<mxfile host="app.diagrams.net" modified="2020-11-26T17:03:59.272Z" agent="5.0 (Windows NT 10.0; Win64; x64) AppleWebKit/537.36 (KHTML, like Gecko) Chrome/87.0.4280.66 Safari/537.36" etag="269HfB2t_qtPhheRc8_8" version="13.10.3" type="github">
  <diagram id="xvts6asv44kf7kMuaCmC" name="Page-1">
    <mxGraphModel dx="1422" dy="705" grid="0" gridSize="10" guides="1" tooltips="1" connect="1" arrows="1" fold="1" page="1" pageScale="1" pageWidth="1100" pageHeight="850" math="0" shadow="0">
      <root>
        <mxCell id="0" />
        <mxCell id="2" value="Layer 0" parent="0" />
        <mxCell id="6" value="&lt;div style=&#39;width: 56.125px;height:auto;word-break: break-word;&#39;&gt;&lt;div align=&quot;center&quot;&gt;&lt;span style=&quot;font-size:14px;font-weight:bold;font-family:Arial;text-decoration:none; line-height: 0;&quot;&gt;&lt;span style=&quot;text-decoration:none; line-height: normal;&quot;&gt;Switch&lt;/span&gt;&lt;/span&gt;&lt;/div&gt;&lt;/div&gt;" style="shape=mxgraph.networks.router;shadow=0;strokeWidth=1;opacity=100.0;html=1;nl2Br=0;verticalLabelPosition=bottom;verticalAlign=top;align=center;spacingLeft=2.0;spacingRight=0;gliffyId=16;" parent="2" vertex="1">
          <mxGeometry x="27" y="359.5" width="119" height="41" as="geometry" />
        </mxCell>
        <mxCell id="4" style="shape=filledEdge;strokeWidth=2;fillColor=none;startArrow=none;startFill=0;startSize=6;endArrow=none;endFill=0;endSize=6;gliffyId=1;edgeStyle=orthogonalEdgeStyle;" parent="2" edge="1">
          <mxGeometry width="1003" height="5" relative="1" as="geometry">
            <mxPoint x="25" y="73" as="sourcePoint" />
            <mxPoint x="1079" y="73" as="targetPoint" />
          </mxGeometry>
        </mxCell>
        <mxCell id="1v6BCpd65HdNt9j6V_Qv-49" style="edgeStyle=orthogonalEdgeStyle;rounded=0;orthogonalLoop=1;jettySize=auto;html=1;exitX=0.85;exitY=0.5;exitDx=0;exitDy=0;exitPerimeter=0;entryX=0.005;entryY=0.5;entryDx=0;entryDy=0;entryPerimeter=0;startArrow=diamond;startFill=0;endArrow=diamond;endFill=0;strokeWidth=2;" parent="2" source="5" target="7" edge="1">
          <mxGeometry relative="1" as="geometry" />
        </mxCell>
        <mxCell id="1v6BCpd65HdNt9j6V_Qv-50" style="edgeStyle=orthogonalEdgeStyle;rounded=0;orthogonalLoop=1;jettySize=auto;html=1;exitX=0.15;exitY=0.5;exitDx=0;exitDy=0;exitPerimeter=0;entryX=1;entryY=0.5;entryDx=0;entryDy=0;entryPerimeter=0;startArrow=none;startFill=0;endArrow=none;endFill=0;strokeWidth=2;" parent="2" source="5" target="13" edge="1">
          <mxGeometry relative="1" as="geometry" />
        </mxCell>
        <mxCell id="5" value="&lt;div style=&quot;width: 57.6562px ; height: auto ; word-break: break-word&quot;&gt;&lt;div&gt;&lt;font face=&quot;arial&quot;&gt;&lt;span style=&quot;font-size: 14px&quot;&gt;&lt;b&gt;Laptop/PC/Control&lt;/b&gt;&lt;/span&gt;&lt;/font&gt;&lt;/div&gt;&lt;/div&gt;" style="shape=mxgraph.networks.laptop;shadow=0;strokeWidth=1;opacity=100.0;html=1;nl2Br=0;verticalLabelPosition=bottom;verticalAlign=top;align=left;spacingLeft=2.0;spacingRight=0;gliffyId=13;" parent="2" vertex="1">
          <mxGeometry x="379" y="168" width="126" height="75" as="geometry" />
        </mxCell>
        <mxCell id="7" value="&lt;div style=&quot;width: 392.0px ; height: auto ; word-break: break-word&quot;&gt;&lt;div align=&quot;left&quot;&gt;&lt;span style=&quot;font-size: 14px ; font-weight: bold ; color: #595959 ; font-family: &amp;#34;arial&amp;#34; ; text-decoration: none ; line-height: 0&quot;&gt;&lt;span style=&quot;text-decoration: none ; line-height: 0&quot;&gt;&lt;span style=&quot;font-size: 12px ; line-height: normal&quot;&gt;VOYAGER Insertion and Extraction test software&lt;/span&gt;&lt;br&gt;&lt;/span&gt;&lt;/span&gt;&lt;/div&gt;&lt;div align=&quot;left&quot;&gt;&lt;span style=&quot;font-size: 10px ; font-weight: bold ; color: #595959 ; font-family: &amp;#34;arial&amp;#34; ; text-decoration: none ; line-height: 0&quot;&gt;&lt;span style=&quot;text-decoration: none ; line-height: 0&quot;&gt;&lt;span style=&quot;text-decoration: none ; line-height: normal&quot;&gt;&amp;nbsp;&lt;/span&gt;&lt;/span&gt;&lt;/span&gt;&lt;/div&gt;&lt;/div&gt;" style="shape=mxgraph.mockup.containers.window;mainText=;shadow=0;strokeWidth=2;opacity=100.0;html=1;nl2Br=0;verticalAlign=top;align=left;spacingLeft=2.5;spacingRight=0;spacingTop=-5.0;spacingBottom=2;whiteSpace=wrap;gliffyId=58;" parent="2" vertex="1">
          <mxGeometry x="619" y="115" width="400" height="181" as="geometry" />
        </mxCell>
        <mxCell id="8" value="&lt;div style=&#39;width: 44.5px;height:auto;word-break: break-word;&#39;&gt;&lt;div align=&quot;center&quot;&gt;&lt;span style=&quot;font-size:12px;font-weight:bold;color:#595959;font-family:Arial; line-height: normal;&quot;&gt;Start&lt;/span&gt;&lt;/div&gt;&lt;/div&gt;" style="shape=rect;arcSize=15;absoluteArcSize=1;shadow=0;strokeWidth=2;gradientDirection=north;opacity=100.0;html=1;nl2Br=0;verticalAlign=middle;align=center;spacingLeft=1.25;spacingRight=0;whiteSpace=wrap;gliffyId=63;" parent="2" vertex="1">
          <mxGeometry x="839" y="168" width="50" height="17" as="geometry" />
        </mxCell>
        <mxCell id="9" value="&lt;div style=&#39;width: 44.402596px;height:auto;word-break: break-word;&#39;&gt;&lt;div align=&quot;center&quot;&gt;&lt;span style=&quot;font-size:13px;color:#666666;font-family:Helvetica; line-height: normal;&quot;&gt;folder&lt;/span&gt;&lt;/div&gt;&lt;/div&gt;" style="shape=rect;shadow=0;strokeWidth=2;opacity=100.0;html=1;nl2Br=0;verticalAlign=middle;align=center;spacingLeft=1.2987013;spacingRight=0;whiteSpace=wrap;gliffyId=79;" parent="2" vertex="1">
          <mxGeometry x="839" y="193.5" width="50" height="15" as="geometry" />
        </mxCell>
        <mxCell id="10" style="shape=rect;shadow=0;strokeWidth=2;opacity=100.0;gliffyId=86;" parent="2" vertex="1">
          <mxGeometry x="899" y="193.5" width="110" height="15" as="geometry" />
        </mxCell>
        <mxCell id="11" value="&lt;div style=&#39;width: 118.406px;height:auto;word-break: break-word;&#39;&gt;&lt;div align=&quot;center&quot;&gt;&lt;span style=&quot;font-size:14px;font-family:Arial; line-height: 0;&quot;&gt;&lt;span style=&quot; line-height: normal;&quot;&gt;data visualization&lt;/span&gt;&lt;/span&gt;&lt;/div&gt;&lt;/div&gt;" style="shape=rect;shadow=0;strokeWidth=2;opacity=100.0;html=1;nl2Br=0;verticalLabelPosition=top;verticalAlign=bottom;align=center;spacingLeft=2.0;spacingRight=0;gliffyId=94;" parent="2" vertex="1">
          <mxGeometry x="635" y="181" width="194" height="100" as="geometry" />
        </mxCell>
        <mxCell id="12" value="&lt;div style=&#39;width: 115.073px;height:auto;word-break: break-word;&#39;&gt;&lt;div align=&quot;left&quot;&gt;&lt;span style=&quot;font-size:13px;color:#555555;font-family:Helvetica; line-height: normal;&quot;&gt;Connection status&lt;/span&gt;&lt;/div&gt;&lt;/div&gt;" style="shape=rect;shadow=0;strokeWidth=2;opacity=100.0;html=1;nl2Br=0;verticalLabelPosition=top;verticalAlign=bottom;align=left;spacingLeft=2.0;spacingRight=0;gliffyId=96;" parent="2" vertex="1">
          <mxGeometry x="839" y="251" width="170" height="30" as="geometry" />
        </mxCell>
        <mxCell id="13" value="&lt;div style=&#39;width: 67.7917px;height:auto;word-break: break-word;&#39;&gt;&lt;div align=&quot;center&quot;&gt;&lt;span style=&quot;font-size:14px;font-weight:bold;font-family:Arial;text-decoration:none; line-height: 0;&quot;&gt;&lt;span style=&quot;text-decoration:none; line-height: normal;&quot;&gt;Ethernet&lt;/span&gt;&lt;/span&gt;&lt;/div&gt;&lt;/div&gt;" style="shape=mxgraph.networks.hub;shadow=0;strokeWidth=1;opacity=100.0;html=1;nl2Br=0;verticalLabelPosition=bottom;verticalAlign=top;align=center;spacingLeft=2.0;spacingRight=0;gliffyId=100;" parent="2" vertex="1">
          <mxGeometry x="198" y="187.5" width="103" height="36" as="geometry" />
        </mxCell>
        <mxCell id="15" style="shape=filledEdge;strokeWidth=2;fillColor=none;startArrow=none;startFill=0;startSize=6;endArrow=none;endFill=0;endSize=6;gliffyId=106;entryX=0.0;entryY=0.5;entryPerimeter=0;edgeStyle=orthogonalEdgeStyle;" parent="2" target="13" edge="1">
          <mxGeometry width="100" height="100" relative="1" as="geometry">
            <mxPoint x="139" y="377.5" as="sourcePoint" />
            <Array as="points">
              <mxPoint x="154" y="377.5" />
              <mxPoint x="154" y="208.5" />
            </Array>
          </mxGeometry>
        </mxCell>
        <mxCell id="17" value="&lt;div style=&#39;width: 130.3915px;height:auto;word-break: break-word;&#39;&gt;&lt;div align=&quot;center&quot;&gt;&lt;span style=&quot;font-size:12px;font-family:Arial; line-height: 0;&quot;&gt;&lt;span style=&quot; line-height: 0;&quot;&gt;&lt;span style=&quot;font-size:14px;font-weight:bold; line-height: normal;&quot;&gt;Port&lt;/span&gt;&lt;br /&gt;&lt;/span&gt;&lt;/span&gt;&lt;/div&gt;&lt;/div&gt;" style="text;html=1;nl2Br=0;html=1;nl2Br=0;verticalAlign=middle;align=center;spacingLeft=0.0;spacingRight=0;whiteSpace=wrap;gliffyId=115;" parent="2" vertex="1">
          <mxGeometry x="624.6957397460938" y="298" width="133.39149475097656" height="16" as="geometry" />
        </mxCell>
        <mxCell id="1v6BCpd65HdNt9j6V_Qv-46" style="edgeStyle=orthogonalEdgeStyle;rounded=0;orthogonalLoop=1;jettySize=auto;html=1;exitX=1;exitY=0.5;exitDx=0;exitDy=0;exitPerimeter=0;startArrow=none;startFill=0;endArrow=none;endFill=0;strokeWidth=2;" parent="2" source="18" target="24" edge="1">
          <mxGeometry relative="1" as="geometry" />
        </mxCell>
        <mxCell id="18" value="&lt;div style=&#39;width: 67.7917px;height:auto;word-break: break-word;&#39;&gt;&lt;div align=&quot;center&quot;&gt;&lt;span style=&quot;font-size:14px;font-weight:bold;font-family:Arial;text-decoration:none; line-height: 0;&quot;&gt;&lt;span style=&quot;text-decoration:none; line-height: normal;&quot;&gt;Ethernet&lt;/span&gt;&lt;/span&gt;&lt;/div&gt;&lt;/div&gt;" style="shape=mxgraph.networks.hub;shadow=0;strokeWidth=1;opacity=100.0;html=1;nl2Br=0;verticalLabelPosition=bottom;verticalAlign=top;align=center;spacingLeft=2.0;spacingRight=0;gliffyId=120;" parent="2" vertex="1">
          <mxGeometry x="198" y="408.5" width="103" height="36" as="geometry" />
        </mxCell>
        <mxCell id="19" style="shape=filledEdge;strokeWidth=2;fillColor=none;startArrow=none;startFill=0;startSize=6;endArrow=none;endFill=0;endSize=6;gliffyId=124;entryX=0.0;entryY=0.5;entryPerimeter=0;edgeStyle=orthogonalEdgeStyle;exitX=0.995;exitY=0.446;exitDx=0;exitDy=0;exitPerimeter=0;" parent="2" source="6" target="18" edge="1">
          <mxGeometry width="100" height="100" relative="1" as="geometry">
            <Array as="points">
              <mxPoint x="145" y="376.5" />
              <mxPoint x="175" y="376.5" />
              <mxPoint x="175" y="427.5" />
            </Array>
            <mxPoint x="138" y="378.5" as="sourcePoint" />
          </mxGeometry>
        </mxCell>
        <mxCell id="20" value="&lt;div style=&#39;width: 67.7917px;height:auto;word-break: break-word;&#39;&gt;&lt;div align=&quot;center&quot;&gt;&lt;span style=&quot;font-size:14px;font-weight:bold;font-family:Arial;text-decoration:none; line-height: 0;&quot;&gt;&lt;span style=&quot;text-decoration:none; line-height: normal;&quot;&gt;Ethernet&lt;/span&gt;&lt;/span&gt;&lt;/div&gt;&lt;/div&gt;" style="shape=mxgraph.networks.hub;shadow=0;strokeWidth=1;opacity=100.0;html=1;nl2Br=0;verticalLabelPosition=bottom;verticalAlign=top;align=center;spacingLeft=2.0;spacingRight=0;gliffyId=125;" parent="2" vertex="1">
          <mxGeometry x="199" y="570.5" width="103" height="36" as="geometry" />
        </mxCell>
        <mxCell id="21" style="shape=filledEdge;strokeWidth=2;fillColor=none;startArrow=none;startFill=0;startSize=6;endArrow=none;endFill=0;endSize=6;gliffyId=127;entryX=1.1102230246251565E-16;entryY=0.2928932309150696;entryPerimeter=0;edgeStyle=orthogonalEdgeStyle;" parent="2" target="20" edge="1">
          <mxGeometry width="100" height="100" relative="1" as="geometry">
            <Array as="points">
              <mxPoint x="154" y="377.5" />
              <mxPoint x="154" y="581.5" />
            </Array>
            <mxPoint x="140" y="377.5" as="sourcePoint" />
          </mxGeometry>
        </mxCell>
        <mxCell id="1v6BCpd65HdNt9j6V_Qv-52" style="edgeStyle=orthogonalEdgeStyle;rounded=0;orthogonalLoop=1;jettySize=auto;html=1;exitX=1;exitY=0.5;exitDx=0;exitDy=0;entryX=0;entryY=0.5;entryDx=0;entryDy=0;startArrow=diamond;startFill=0;endArrow=diamond;endFill=0;strokeWidth=2;" parent="2" source="22" target="33" edge="1">
          <mxGeometry relative="1" as="geometry" />
        </mxCell>
        <mxCell id="22" style="shape=image;image=data:image/png,iVBORw0KGgoAAAANSUhEUgAAAWcAAAGeCAYAAABIJcBcAAAAAXNSR0IArs4c6QAAAARnQU1BAACxjwv8YQUAAAAJcEhZcwAADsMAAA7DAcdvqGQAAAAhdEVYdENyZWF0aW9uIFRpbWUAMjAyMDoxMToxMiAxNTo0NjowMkCKqoIAAGTXSURBVHhe7b0JeBzXde9Zhca+7xsXEMQOEGtjJQG1RAIkLG6STFi27Fh+mYzeN+97mTfJy/a9TXHsLI53W3Zs2fESO5lkovdNkmd7lMhxwtiRJduSrcWyJGqjVlLcFxAbgZ7/v1DFNMHurqruqu7q7vP7eHgL1VW3bm3nnjr33nMVQRAEQRAEQRAEQRAEQRAEQRAEQRAEQRAEQRAEQRAEQRAEQRAEQRAEQRAEQRAEQRAEQRAEQRAEQRAEQRAEQRAEQRAEQRAEQRAEQRAEQRAEQRAEQRAEQRAEQRAEQRAEIVPZ2THdqC8KgiAIyaZUKf4okrOQy5B5Xa6EyMKGv/k7t70EuQB5u0Qp+N3ehrYpLAuCIAjxUKkU/RGSi5AlyFXIagzC/VYgzIOK+8326u3vQKoxPj5eoC8KgiAI4egob+5F8jSEVjIV6TLkqqqqQScEeVFZU1EvQmhVn6hRin8r0O6vxrIgCIJgsLNjZwnT3tr2PUiolK9ZyeEUrFPC/CGGoj65b2iqAaky7Z8uYyoIgpCx9Nb2bq9UCv8bFs9B6Dd2zEq2IziuoaTPVSkFv4tUEAQhc6lRiz+NJGlKOVRQhjWWA0LL/QRESFFUPRUEwT6vQOjnzYVizNHWeIhgMGg0Pp6GbOEqiJAiZOmpIAj2OAmhfzffi4qZoFzZSFi2mtrc0q9wFdcLqYEoZ0GwwUB1awAJu8VVQPnRYvZpP3gUlC+L5Xx7+eJ78eeZ9bWCIAhpxFBDz14kHBSSdN9yLIJys8Hw/Hhb/6Z7lXvFMBMEIfWpUoo+iMQTjX7xCMpPBX2RChqpIAhCanJk/EiB3neZitmxPsvMy46EyyNWQX6aBQ0RPIw0EAiCOXRlsOEvLv9yMBhkN7dQxcy/Cd/DcO9i6Dq6ITRBOeJ2Seg9OTi6sFJbIQiCkGK8DVkOtTztCvanIr42iq+lpn0WqYGhmM2EsEsch4M7MvoQ+y9XqMWfQSoIgpAazA5M1jTmlHwEi1SEa+GUm5lwP4ihlE+11nSyQTEeNEU9uKXvIFIOEaerZSXcsa0I9mWlsdhT13rwgP9AIZYFQRC8zcGx3XVIGLIzJusU+9Gy1SxliNOEWtTsHsfASvGUk+4NQRCElOAUJCarlPtBLrTXt18L6ekGvzo7m8e0Sin+FBK6O3hc20qa+9Xmln0NqSAIgqd5DrIUTpFFkunpacMKXSrzlX2emSQQwyfNgPyxKmha38cggkcwbqogCP8GrVBbo//0nhhUjK9DWrkuSdDNwfClPpTfcq8Ovfx0wxTzT64TkouMEhKE63kZkh2LYt6xue09SONRzIYfOR6qqtSibyBd1ctlCV2RZw9v7bhjfY0gCIJH2D++m6PmaDXbGgWI7ekSeA1iiXv891wXKGmkcXDP2Na+d9b6yr5e6yv92mjzwNxwo9Yjw1DUsShtDjKx5TPH9tI4KAiCJzkOsdWnGduvVOeV2mpM89f13IyEfZbZG4SuBHbX06ay0oXuEf7N39hd7lKVYr0/8t2Bu/MP+AMMZWo7Dgi253Ff3Nu9VwanCILgCWiZ2lJm2Jb9hGlpW7Zqb9o+dDsSzTqHmDbccRtdqLANq9bK8dSJ5v79SKngLTcQclsIj2PXUhcEQXCe0eZOKjJbPTSw/XKtr4yzoJgqsvesW7KcxopWcjx9kqlsaXVbhf2sLX8NYFsqZ1rropwFQfAE7Ndsx2qmJWspPvJEYxcDJ9GFEfNovlBhPszvgH/XVqRR6W3o9CPhaELLx8a2y8Obet7J/QVBEJLGeOsAA+jbijqHbWnBmjLR2GsoZkdDjTI/PV9T9NGOls8P2zHv81Od6zN5C4IgJIWGnOKPIrH76R/VL3vPgQOFu5r62fDnuGI2BPle80PPzc1F6/rHcrIctiqf4U2975jVRyEKgiAklH1DmnVI94Qtl0ZDTsV9SM38svQxO+LKiCTMH0K3RTRYTnats+u2sdw9UBAEwQ04J6AlxYXtaDUvHhnfH20mEfWXpw81IrXVUyJW0Y8TraJQq5UCu18HmmuD+0IEQRASDpUPu7ZZ9sfW5pZ+Vd8vLLpitqzw4xUeB0Lr2UyRWnZtYDvmKV3qkogM3xYEewpoddum5geQUoGF5aEffP+/Iol75hSr6McpODg6tW19TXiqlPyvILE6pJvXRBSzIAjJ4cjMwWYklt0P+rZmSovR4RJiNRuC49FHzO6AEfFv6ZxBYulcuQ2ElrYo6CQhlrOQ0fh8Pr4D0EfmEdyCgMn6X1HJhiRaqbH8BeuL4XnstWcfQmI5GBIQxZxERDkLGc2JN98aQWJVCVlVzslSalaOa6X8BqKck4goZyGTUZ9+6mkOEnH6PfCyUrOlnGf6ZqL6sQX3EOUsZDLBM8H5OX3ZEfaPj0frYuc2TlvOQhIR5SykM3850jlSpS9HwtHP/AUOkk4e4oZII0Q5C+kIZzNhP+NbKgvzc7U1Eaj2Ff0VEksKmq2G+mJEvvfEI2/oi17FlgLP8V2104AoOIgoZyFdUAc3d88iZTc2DgJhz4Xi0+cvtCCNSFt754NI0qUHA8tmVj5551MEuVFCOsBJVS/+9PVn/gZpEQxcTs7K7mzZubn5ZdP+6TJuFI7a2uqfIXG6BwPzS4ZvN+oxb+maaEJi550Pfuen/8TZYQRBECyhWYjj67OKcKAEp1a6YWAF1nEI8pnJ1skapJFgXk4PQmHAo2QMQokaX9rf1HUbEksTCmA7CbqfZMRyFlKRFyAXH3np8b9EymHSOZAbnmWs47DmPDVvMX99jSNkjW3re5e+HJaBTV13IblqZ/breNAHx6zu7NjZu74mLOrLr77CmbXtDClnvkKSEOUseB59slJlpLnvABL6lLdACqB86b4we4az1oJ5ZtafHSWU9dLrLx1CGjHPysKyJ5EwmFKiGtPWytWCbzz83MNv6X+HI3g2uHAnUjvvPMsvCloQhBsZbNwxgYRxhdn7gi4FW+4CbG82ASt/sx2Ifv/wnu3c2QTL0e5iFeYP4byEZhUQ5xK0M1WVFjL0lsFb6KcWkoBYzoKnuFe5N2tu5NZ6LKqB7tEjP33z6e9imX+zoS8PYjfSmxWrmb5Vplbx/egnj/w2UrO8OZs3laeb0Lq1Uv5iiF2r+cyVFZUVoiAImc7w1oGdSNj7grGEY56p2hDsb9qA11vf/g4klmfexrZUuGYWuQED1rsyGwryvVrmK/6mdpTosJx25hDUGgNnJ2drAoEAe70IgpBpcO67d+/UgtOre4en6BOli4E9DxxxByCfJTMXxO5+bci1LRcEtrXiSlB27xjj5Kr0kzuqoJEf3Q60zE0Za+nhdbUzCwqvP90ggiBkKOpE28hNSN+EUNGE7RIXjyA/KjH6q80Uqa2ZS7gtZF7vOxwVXUGze13c58f9IVSe2sSuZpQpOb+PxHJXQQq2XTo8tZeNroIgZAqwlHPfG7h9MxbVQzv3vhcpLVbHLOVwgrzNXBvqWFsfu5lZdm1QsP1KuZL/Ze7PTCzA3hQxnS+3h7BC4LlE7c+8AbuVjubSgFg9J0EQ0gB113b/JFLGn3DFUg4nOMZKg6/sc0jDKpx7772XDWX8zVavDQq2j0WR0Q9NtwiVLYUK0RA2xIX+TeE2SwVK0f1ILR+ru2obu/zZrXB4LJk7UBAyAPXI7iObqAD/43vu6cTfVMquWsobhceCRFU4s6MBWvNvQ2z5hrH91arsEgZPsszOjp2NBUrex7BIXzQrBFrTFFrFoULFT7nQWt3JPt6WFOY9/ntyZge0UZGWGwENwfbLpeszdYtyFoQ0Rn3vvtsbkDI+g9H7IqHDmik4JpVzVAv3nrl7jPgbthoGKdielQ1nv44FrUyjvaOb2xt6dnXVd9000TXRtKvbv1X/LVYlacudQeH2EFr1giCkKSot5V9ft5SN3hcJV8qhguNH7V1xb+Bebd6/ciX/T5Da7lmBfZZGt/X8EvNKNjV5Jf83ErtfAKzAFodbhqUhUBDSEPWuPXdsb/CV0L9L90VSLOVwwnJA6EaIqKDfN/O+IiT8PRbrea25bvP3kcZqQTtFTP2qsY/haxYEIY3QLGW9YY0vuOZThqyFUwTJEpRneWxrzzuRRsJQ3OzaZ7lfcKhgP5670f84VpeEXdRDgzvZVzym/tTYR3P75CuFvxUtvKogCKmF2pBTRlcA3RfsfeEJSzmcsGwQ+mIjYoyIq1Dz/xSJbUVHwX48zmLZuovEVXqru26qVPLZi4MNiLavPfahYl7qqG1hzw5BEFKcSJZywnpgxCooo6WRfdP+XWyQs+3eMIT7QXhdrrkKAt0BxgiJG70nhrJ/fWRjXL1f9H3t9JsWBMGLHB7bt21TbsV9WExa74t4hOXVy25KoeL7BBKeY8zuGezL4zGPyxVK4aeRxsVQQ89eWMq0yKmUY7KWDcG+rEDm+7b31SIVBCFFobVJYYOT5r6AeN5SDico90q1Uvh5pKYWdJGS+wUkMfmfQwV5UBHyui1UqEVfGWzsOYhly/TXte1HwiHgVMgxW8qGYH8OdlnqqGq1VQ4hcSSqwUJIbR6HbIMUQrLxctsN2+kp9BlKqCh5PlRUZlApFuO8447Qps9aYowC5LJx/NDljfA95TX3OXXtUQxWruxZwrgfggeReM5COAwrmULFtANSCuF0UCmtmAnOgc+9b3RLJ/slmxooI50jrUgWdIUWFzg2oZLlLC6MT81ptjiNVjThdtzeScVM144oZg8jylm4gaa86o8goVXFUXW0GDWlDEmb54Xn9KPXnmWPDNPQmLfeeSsrKFZOV5xQ0OFAeUhWJNE3iwuUfU0vP3usVGorI8BJD/TF/6CngiAkmsOBw+VIDEv5NCSlfcpWhecHsdR7gz1T/Nv97AOshf4Ml5+XBWXWzjVfyf8MUjPU3W1aTxBelxPtVS2HxzePF2i/CILgPgzfyXRbYd0nkVxrbAr3cqer4HxZCS3s2q7FsogKJwZgWqIUsF8xK7CUqLxQTu0cW9cb/0wroontE7X5isKeKvxyYuUVtW+4IAgOcXfgbvoxCV9UzRKEpL2lHEn0c2efZjvQHULl5emuhCgfe3bMt1S0zCK1g3ZuEFrcrLRDXR1CApCLnUHog0aUV04+M42EAw/4ApbgJU47n7IdeO5I+BVhDLs2ZWzHWB8SfuprDYX052o/eATDv1yWXcwgSEWb+4Z+sP6LJdhYGPpMsJfKpQd3PFhjfD0IguAAIZYyYcxibfACJCMt5UiC67FSpub+GVJLhFiS9NOzoou7/3G8wuPr5eA9jmUeQCrmG1xbXAc5N7R1iCFgBUGIB8OnfFPHGOMmsPeFIwMY0ll4faCgv4GUmPpnQ8lRcjlyLylKmsfTj7uQp+RzJKLlsodYw/Qth21zwHrDvWHrmgiCEMIB/wEOriB8kei+0IZZQ0QpWxBcJyo5BnK6FgjJKiOdI1VIaEnTh+3qdWe+ev48DisFfhURywr0UMfOEn2RFnNU/zl+X6nILv06UlHQCUB8zmmEYQGdu3BiDxKjnzK7f2W0T9kuuE5UyHmQhSuvnKrWVlrkx8/+mJUh9ylsqWg6jFSbbED3S6/qvmBNsN4SoftAmAeFFchioZJ/f09DD7+MWCEbMTKoSE2Z3j5dduzN41NYZEVSwGdE+yECvC7nrl58T7lS8Mf6KkEQonFk/IjRB5UWzSmIWMoOiH4NWcHFRXvZ9t1IqLSN+QKZJ4X3SXOBRBAeX4vHAeG+bLCkhXuuTKn4g31D+5zw/zJvyz1OsC3LxXMQ69llxJJKYYxP7jdPvTKDxLCUOaBEi38BkfsbB7yGSHIgVJCWe3JspH+T/weBpv4WLHKmFVq4lIKeho5DhUrOl7BMZUd/riGaMs5X8r9UopR8fKpnqh1/c99iSMnYjt2dwyNDH//7x//+LfxtixA3DV0vrBxsDcnXn6ns3vrWI+trBEHYCC0XiviUXRZeV8jKSHPvXUhT1mKc7tZiVKvlvoI/RxpzoyX3g7BCEVxEPk1SkImtvXt++OpTf4lFNubQEsI7I1aymwQBElaAa6VK6RcvKhf/k/ZDakFrmdZ33JEFcTl4LTgtli2fvGAdeaFTB81SrleL74Ni/jaWKyDS0Jc4qJy1dEFZodsh1eBI0GuNw9qa+OAzR+NADDyXkJfa+6jvmzrYjPQE5MqJ4OV/j1SUcgKBlajFX26p3fwupAUrysLvaD94nP7Kzr1IjAEyWjxqp54ZPR8qeSp9wQWk1vMmofeFo7wYrlLcFwlGV8qGO4MNgqnwCc9nh2Vmrx3X3V64Rst9NR13NZY1P/TgCw9KgCQh7fk5hNNByYi+JAivt37dF32K+jmkSn9TwAir6klGG3oMK5mVCC3lhEQXxHGMiksQ0hb1rj37tyNll7iMjhKXTOE1h7D3y5nOrZ2ejyNRpZR8GAktVlbkSXlmcExeL/kKF9KPrTlVfMEM32BGxVP2kuDaUzEvTnQNNiH1BNP+6bJypZizkbwOYbdJ+nhZgfPLigNStG6U4c4nUcLjQ+Z3dZvHxBaElODw8N4tSBgPQfopJ1F43fXrv5in5HwIqWcY3DzI+QvZGGw8I6HimecFZaEbSBoHHUQ+RZKDcd35MHPkl2PzxAn2CAaDVMyUS8M9w4M/+flPXtN+8BYsUz2eEWN0n+fQG09ZYTA8LZW1ECeiEBLMFl/VB5EYQ62L+MKJYk48UCZEc2Ps8u9qQ1rtUcWslCm5n0XiuYD+oejPcFa5kvtF/qmtFOJCLqLLMHzntx77ljHUlX7DGgj7h+J5FqWcDHSlTLncWdFy4NlzL/5Q+8HbMI5GNSvz9T+9h155iPXsEKIcXOanP3uUAxbY2EcFXYeXKxciA0iSAJUHhMpjsa1+++1Iq1JEMRP2HGHoUVYqnkR/pml4sLFSDL84EQXhMLOts4wDbPDqG6unfhMph83mednqSXd0pUbFfGZP50jTsRMvfUf7IbVglznPujZ0qFNCQ9gqfr+fkf0Em4hydpifvPDIbyDh6Cx2zK+H0FIWv3KS0K1lKual2dEAw3bW/+N6QPxUhM/TssetZypkWs/sXXKht7H70PJbV27ib4I9RGE4y1OnlfP/BSlHk+XjOWUMDLnGSUJXYpRLfQ3d+4qzalJVKV+jRMn7OBIqaK83DvIrsfCpN5954Kk3f8FAXXTrnStS8v64b1M3Jx/QCPQHyjd8bQo64heKH17DD0DovmAnfCplJ6J+CTGiKy7KcveWjvc889pzf6f9kCZMtPXv/+GxJ/4nnrOUUWr6PWEjYWi/8oVSpeQreVk5r59aO8seKUKaQeUYKhE5PHWYgz5Mt7NLd0M3lfI/Q9hveRkvTdiO+iLuC64/X3p+UhuTnaYr9D8ndWRgPIKyU0Fz4Arv1Xy5Uvyx0dbRzVhWAutxTDIeR5VUAmB5g1Nt46PHj7+w79Xl0/8Of3MQBz+h+CkVTvHyQTAsKS7zgTi/vWjT/S/Nv8Ep5LnOEQ6O7a77X49+7xdYZEBz6ZGRQEKsZfYfZwOsY/fVa8z0zdQ+9ORD/4pFGgUp356h3ztWqlpPGsgbkD6I4EUOHDhQeHDsYB0WNYX7/tnbWrbmVdHfZjS2scalojVuqiGGn9GQjb9zH2PSTM7k8PLO7f5bkRqKfaNyjwWG+eSEnClr2aSK4BobFhjv51t7RvZUIc0U+HWQNrFYcC7X7mWlWnIfUmWkcyST7ud1OKGInIZlCu7u3DXzvWf/9fNY5owf9K3ROqYvV7OQQdzWQoi1xYfCSJfrfZVf2ty8/a9+8sJPfoq/Y8G4rgxMIz5oF8C948us3b9KX+GXhgYGP7KiZF85+thR9inPJGgEsJtm2jxj+ntpGFasgLZBhGQQOrX/Zl/lHyI1Bm1cC50JWWPt6pYwf/04PB4/rc70b9qxH6nG7OgsA97bQa1Wiv4IKa18iTTnoOB68j7RwpqvUEp+F2km8yYkLds5cF68z/xC5teyMrl1koaakAjm5ua02n5i6+AeJK9ADHeFppDD3bBEiV4GKmlaJmfqldJ7kcYKu3CJgo5TcA2NypOVNpVSxrN/UlNYfEbTNqIhzk1zQxYo6u8jzRiS6dYwjs14E9pkpRDPRWfTP7EMxcBhqXXTO6cb8yvzz3/rW9diZliBwY44j5uMlooB/T4YivklSD9EAOVK3ifOK0v/MZ2fLdx/42upkH9yXbqTTEXIFlkqt1qINrTZa4qZsEwQ9rzIxZ+VkKXvPvzdnx9/7EW/toF1uO8lPGRUMIJFqJT1a7Zck1PyUaQlgUBgTPtR0IBi/nUkno67ES98B5Gw8uHXLBvc056EW85TLQOHv//iz76JRUauSsk4xoayCHSM9Rx97tHjXKX9YA2xoC2iKxtea362Pww5CBHC8wKE/fjTOlSA/kxQ0j7yXcJu4lBdF62dN6GY/wppAR6glH2IWHYkeVDMzyO1OySYFvRFXcELYcC1obXMT9jF3k3tWvS4ubm527QfhUi0Vir5X0aaUOtZv1eWRN8lLvDu0YKmLJQqeR/L5K52TkDrnKKNnoOkVcMFzodK5MrI5h23H9o53Yhlq9CClkbCDYJrwkpLG4hQoZTeiVSwyK0jAQZGSkjjII7B+8TGe94r9jE3hK5KCstB4bLxm9bYHy4/OzI9Pa0dv7aogsPyoVvuTdsvBbd5FsIblLaKCOdGa4UPHgOi24ENjKKgIbgOmqsIcrlSKflPSAWbTPZqPTfY7cyVZwr5Gm4m3qcLbdXbOXjLMj11nQeQcOCXIz2ysD8No0tempDXSVytcW4ZGLkLSTNEC5uprUxDcG68jjy/qvrski9pKy0AS7sbySI++RL6Keol9E9evqh80U70buqcPqtc4rB6wSbFm4qvtJVveycWF/Rr6gj6PaJCppV8qUAp+iTSsmOn7cXE/vnJZ7+FpKy7sXsOqWawxVNOXafkP3fsGMcTCDZgF7klo5bLFME58yE+Ne33M76DFejy4Sdf2vZTjSQ8ZwivF0dSCg4x3j3Odg1HninmAVne0djyLqRuQEuaFXPMZdX3PzPSNEK3jhCN+lzNeuRLl3EKh6Kfu9WoaFTOdIfwU8/VUZBeEpwrLSYqkBOVWWUMYCU4C9t44vLvcn9ILO46WxQpRdQXPE5M+oL7QWjVK/eK/zkiVDTsv5zxYTN5DSCndnbsLEFqyszABD/10v664RwNa/lc96Z2Lei6vFDOMu2fLhvd1nsYizE/T9iXipkjdhOC7o9mA2JMFQr3gzCMqhAGdZ9/8j1IY64B001wHaiE7Ey3z8/7tLx2PC8IPz9pLb8KEVyCcWCOTM5ylveYlDP2o6K7NLZjjFEhE4YeUZAVQqwKenlmdKo5EAiwD7Sgo25Wy/4AKT8tEqpceDxd+EBFEmObhCs+HHOxIaf0Y0hNmekb5iCLhF9Dt4XnA7Hj6hHiYPe6UmVXTdtKjvtAEmYxhzI3N5er+8tjUtDcR99X2ABbX+PycVkVHMdQxnzhqcx4bN4UWp78tKFwmcL1Rn9LiiPdeKwKjwNZbMgt/W2kZtAtlDb9n3EePHfDWn7eRiOpED+2GwSxvabcAt3WGtbu8d9jjHLlc0tR/E3+Wxt8lR8f3dpvRHQ0ftN+t8K+oakGJDEZKdiH77dqBFXLWHhz/Ju7R7HoukJB/oZC5svOG3euylf+idGO0VuwbIb2cBycOti8q234DixTefPhZV6uK2r9GBf3jQWixqX9tSPXQqeyEklp6xnl5zlrvuWu2uZpTuSJZSEBVCg57Ipo633E9poRwf2tsr9/9yYkHCHLd4n7Uqgced+Z8m/+Rjkz1TlEpWsVNmja1inY52pVdvFfIrVcGaQlt637iE5AXG3IQv6G9UWl+rq/2T+DlMR7A9gKTeualjUfKNcUIvJeqc8t5fBaK7h+Td0SlNuwlvliMgyskHj4PNu1mnnPTN1Ot43cZgyX5ra8x9wv4rH4my7c7sq0fxen1jJFt95tNxBiex5Ls555rKmeqS0ZObt3va/0I0hc68uMvA3r62xfQ88+pG6gWdVVSjE71tNijfqwxSPIlw/NUxArsCJKKfcGyssXQ7OWIUIS6K5tOYTEVsWO7fme8evXDLwnBR9GGtN7gu15HL4DHBlrFVYAsRyHz+FCqZJ/P1KiZkSvoLnuudzxrb3TWKQ167giY54QXlzWnC9DEoE6tKmfLhLOwsLzctx/jjx5XpYaLN49rcXpoFWfED9+PIIyMqgNX1a+SK9PDkyyp4CQHPj82rU2ed+sQsUc8zOJfTUruia3hK4HK9BIiel42E87FmSxXCn46sHRGY5W1gh0B+on+mZq+/pmOEF02uHK7B7Ik7XeQqVayslclQP+A9VME8mRqYO8iVSMjlvRyI+VjqXudb986x2MGbAYLh+vCMpnvADnZkcD2tT2QlJh5W/5meW2EBojUV2EA7WddCXadjNEEuTDZ4aKNyr9TZ2MSkhrO+b3kPtCDGuaFRHPd75Ayf1i/6bOa1PRpQu8kbY/N8wE+fGGXdqxacCYDTvZMIiMG+e5sLWw4jeP/FsDYCR4DWz7DxMhLBNEs0ogHKoveANbjcnYlveQ/mOz983RRn/kxednif2SmbkJdIM49gWJvHhsQ2FT8V/oamhnSFov6JzYOTK+ny20MfWhjCTIy3jRvearVO+cva0FqaNuDuYFsToHHmd98JTvGeUxrBC7sawF97HlasS2i9Pd0RvpBurb34HE8bYl5MnnaHGgoZ2jGSOih+KNy3qOJswXYljVrNxo0R/vqtrOuU1TA7oYNueUfgKLjvUkQF7GhdFm2I0R1nihYrBx3cbfrcDt6YZw1IJGXleGtvXsRRqVsZb+m5HYsobcEpYBwkqU5UlUW4BgD8vPKbeD0A1i9k4wOJFjxkmoMF8Ivw7NsFXpxCo8BoRl4nPOY77VWdl63XtKf/VIp9ZTzVPwJjrWSIV8NMVcl1/5BaS22bl1kOER+cnDm0uh0ggnxu/nqxVtJCOxo6TVO2+5ZkE78oAgHz4A5yd3jPUhjYZaqxZ+BmlSrWccX7OWK335X2SZIILH6N/SSSVi2cLFtlcrlcI/QRrxflarpZy30bVuncibOoAVitkzxfc44QYKjqlZ9/rxWZHRqj5bppSw14p3ODKjNZQ59nmDvGgxW/q8PzJ+pOCOwVvZQKZONWtKmZUEP3V48XiDrQi35T6XqxVrQ6pD4MPD+QId+7xiXlsKqn7vvbPvLcVyRH5p+gA/O1kxJDxqHY7J62ZYEZz1WvAoI0072HhmWZFy26HGHgYcikbc0e3MBPnznTJTzjSuEq6cDcGx2SMpVI9Qd/GdONNT1eqJuS0d8zUjH77whs/SqiXGhifWXppSDpevFcG+vMDGxbUVhGey238EiSMKGnnwJltpjOHvCX84cTzjIYzH5SQkDr5Plt8LbLsU6BiLOmoVuN6dE/kvHTRvGEyqcg4nLA/EeEdoXVOfXMxXcj7bXdMyi2X3Yb/mse072IPCEasZ+WiNf4xCFQgErMyQor5jYJyzqsSllDcK8jKU9Bl9PL+VSoLbONKNEHmwNubnkhUcbbGOJjgOr4vmW67yaW0MQmpgS5FiWysWK40ht5XzykTbACNaRsNzynmjsHwQKmu+O1TWF4uUHA7Ucx1aT3HfJOTBE7CqkAx4bDdHImqKqFbRRjya4uREmsiDx2aDY8SX5D2BA9WbcsrZ79v1Id04hlFhGSPGrFRYgjewNWAD23pFOV+tyy37BtJoZfG8ct4oLC+E7xL1Hd1DD2+p6rA8CbSd4YwcSePEi8oCWwodefvETC0SWoyMZubaHIS4kMw7723l4v+F9DltZRS+8+OjJ2/uGX4/Fnku8cJ7wIk5I9J+s//s1NTUH2ORc67xpjuOPk9cqBuDoRuJK8cTXCFl79Xq2qoT75KngF7JgjByH2N7FEK256ytsJJxjjsD++iXinukGvLgy8/hpabowcKpmBPWSwHH4gOyWKMWfRCpGayoHGlBRh5LTUVVv8tMo7GpoOIrSBy1YpAfz5n3hVYU+1QLqYutNiFsu7SvP3qkRJAQt4Z/UzfbcqKRcpZzqKDsy9DSRk8xS1iynP/lhz/6DSROxEddGWzsulNfjsoDP3iQFmwhTsw1i3kjOBavR86p4PxvDG3pmlpfGxV+qjhiPR+fP/O/6csRaW1u/X+QOGZh0FpGQsW8WO0rZ+CnhM58IThLhZL7TSRUBJbJzcs1+xpOhEUbfOyNZx7Ql9OV4Oaihn/Slx2Fvqy4ai3uD2GDRcSHgfGhJ+p7RrBI69p1/2okwbHpB7bkegFxt2Zzf4jV0XZXwuVhV5CPppR3tQ+5NauykGAGNnXZGsmHbVfqcso+r+0cgQql8HNIXPt6Rd7UC/xqMyPVLWf25LCFqeU8vLkzgCQHB7Djnw4HbwIVHgsalvsfu3/lhyd+/jdYLMHxjFkWEg6OTWu9rNZXzKDlUS2LidY+tjLHa13wGLnri6bQ7UyLNyZ03zIrH/qWX/nX5x+nNS6kAXV11T9Dwvtr9fnIWg2usY99xGd8a13zXyNZjueZs4CV98fMwvc6EfVeTIy2jvLGPQuJq+bE/rz4V/ZN7WuINn3Mu3fv5me1I35cJwTlWNxaWPWbLFsU+NDEXWbsv7CrfZiWjxn0Ado+FveBaNZypVLMUV9KoP+wzE6Sfth6FrHtwkxf1D7G6vCWbsaIpnXr+CAo5LncU9PMQWUR2Ts8tQWJ5WHpXhOWGzLfv7mNcYmcYbJ1gI1ytuPDbhTsT0vNymAPHiupw5RDBWWhMuOsJNFqbf5mqwtTOMH+Kw05ZRxKGxF94k7bx8L2fDj4cp0faNTicAvpi63Pf2y7UqkUfYHxIrS9I+O4WwH58f2isRGVal8hXS+e0Qt2hWWHvNVa3Op4nHMn/M2L+8e1+cYiskUtZ1cx1o4JH6IcSVAWrcbbP7lnO9JIqPVq8WeROvF1YfqgArujwDRr+cjeg63cWUh77A5E4XNHazuqAQIFzhlF6ApzREEzHz2/iLANqm9zH2dA8pResCMoN89z0VGrOYS4akzuCzG7+cS1yFfxCMq0XOMr/RTSiOUfbx6gNRpXV0Psb4wWjHqd6lRrUQGxjfHwsyHiGETIDNgd0u6XldYgF2kap5BRvDTUaAXGa6zRYOAxTRvBy5TCuA2fZArKznN1LfxBXP5U7qvnEbVmhniyNZZlglw2s54hVILxPrSLk22aoo/IRNvgTUgiVgT4jeVdaa3d/I9IRSlnGH317YzpYGs0LbanwrU0/gDQiIpJQWMfo+umnZ4L/BLwnF6wKij70pa8GtPQwOGw0gMjqiVnERbSDCeO4zi4wLxG2adPnulcXxMRWqlWzjMavpdffTXqRLb1BdVsoOUDfgPBYFBTzJDz9VWb/xBpG9cLmcOTJ55/EImt3hV4xmkZF/fXbmdUu4jQzYCkrFwp+jOkiziG5ePo22kutq6KtqgNgAb+bV0Mwp+rv4OpyuprS6f+QV92nLhaSbkvhLVfRG5q0SZW9exceSgbFR6n+Y9UgaizfWPvRhpX32zsf7U2p4T9Ss0qqut6bHAZwgd/Xg/gZLxIQuah1ij5dMPZcgVgez4/Ud/TEPh8qoONfQyVyS9ezZKOIvz9Sm+DpmwtUaLk/R6SlO2hQWHZIbw+rhGvcuZN5zDsiEzvGGPEu6QNOjETlI3nwM++iEpzd8cgH9S4gjNhf95MI+BQNK4pZ6SaNQI539OgBVsXMpwDu6aN+N+23ltsvzTY2EYjwzJ9dX27i5SCL2GRSojH3CjzJUpJLJNp0BXquTYoO4Ly832mG8h5r0Cgd5SzKcetnOtzy/8UabQCOjonodPCskFYwUQ7B/4Wb6Og1ZtJ5UxrhHJpoKmLlZsSCNydz1TIePj8UFnabRjk88eGulhirPCYxnNrLIeKHRgWIWUbAQ3BOVBvWJ0r9Aai+nLOnT/PoCg4Tnw+H1+ONu6EhY2E1dFxycTSA2bH1xcBK9eaN11r7Z4dnd30s+O/+A5XHj36dVakgsB3jQrO1rOov+fa6Fj+qYtVeEzjHTeWQ8Uq7MFRhLIkLKaOi6w2ldSbxsyJRFRFkBXMciLYkQJ1ZeXm2K1dEwnLFlcF5TC/mJueY7/J+rF3jFnpGy1kHvzqZYMdrWHLhChoVvQcgJUQAt0jHATDr9OYQzfQMIom+mYJQT/e6vFLJ9hA6zwDWzt2Ion3U/1q7bpbIxqe7i7DsulljFaB8Ld4XUDGcaKyvSyFpmwXkkZfTUvMAziwj9aWYTK020nicmVgX+Nrkue70e/NdRS6Abkd37NrEi6/eAX58lhvQNxhdmCSww3jVTi8GNEaBNVtxTV/gdTrPmd2wI+onO9a7wfthM/50q7uXWzQEQQnYGUf07vF/SB8/0/rlq0bMKwDG//iVcwsp6q3k13HRNdE07R/emuZWvyZYqXg61jF421U3mEVNyXcMc0E+y2ONHW7dc2uxXJg4eO1BqnYItKQU3YfEs82AKBsvGlstIyonKe7tNCb8Xal47U6N6V3hxOEeAj0B8qLFJUTR8Tc8wH78Zmk4looVQoYYkGDeeuLlgnp3qkegLJEyh5QtHZjNsy4L2QxT/H9/kyfNnNSNPj+Gu+wlu7s2NnYUddxC/bnNHA0IukmZGOqocCpuGNpWOX+ruOEco76qT63PvW/a3MExiso20pjbhWHkUZSzmpjdjFr5Lisf+5fnVPyub3je40pogQhbg74tS8xJ95jIxzA2f66Hft3t43bihdx68ittCT5qU8FyHziMsiwv6YEpzrjN2b82/1lI50jVRN9E7WU6cGdoXP9sQKxfO24LYS9rlyHNYCryhlQ6Xl5EMriZNdIND8vy8/aNubrRMH+yzu7xw7dLV3iBOdhl664xxIgD77PtFapsC4XK/mf7WvoiTiqtbe+96ZSJY8TJ7MXBt8RJ4MnLfVv7roNqdvYcu1iW16fk/6G9mru7CZxKR3uCzHrUUDlFlfN7pawTBDXGwMp2H9pZ8sQR0sKghs42n8YefHdoMuDiprvLw056otQ4XoqZM2fGy6fWAR58bhnJ1u1djHX2N+vfR3YMhyx/XKxkvXbgaZAXEaWle5hPFi8RFNsBk7EpnCD1Rq1lOESIxLoGGCsAM60G293u2BleeWL+rIgOA1neV8NgvU/44PPOyQbwvgX+ZACrKZCMqRAX8+ZlHwQR7qjovhU9KwIKn/wwg9ci/hG3jp3fgCJ5XLrXeiu9m7f8dWjx4/SYHMHPdg+rcZ4LcKFkW2RP33Ikd37WUN5ynpmWSCs/c2sZjYkxOtv5rH4wEWtyObm5lJhwI7gTfhsefIL1aqg7LSYo3YwcJJSJYcTH1t+t7kthF8ocWNSIxTzPx6MB42HnB+/8nPODByRB773bTYUsKaJ91hOQoX5FsSsTHkQK18H0QhW+UrZpTAi9EWff+rtdv1PQbDMPQcOFB7ZvZuNXE584SUcWqS6xTwfaPdHC9/rKBeVlQ/oi1ZZK1ayqNDdZbJ3kp9B7IcYt58KeSw25JR9iPlGwTM1O8sAmd8/rln0Ebn3Xi1AuRP+Zuah6vlFg6O23OvcLqQzno5hE0lYZgjdnlZnqHcStpdZfrexbUK60Cn3+P05483anHNx96RAHrzAZhHXqJw5Q3fSI9ShDEv1OZV/pJcpEups/9j7kMbbv5l+KlZKVqxvPiyL9b6SqH5wQQjl4Jg2eXLcRkSiBeVdaSyp+ZuqnKrP8DySgOXeatwOQjdoQrFVe4QT7g8x61KnUaPmU/EkbVAKjs2KxLShYWL7ILvXWb55kYT7Q6woZ/7Om29YEqemB6dD+2MKQiQc+QJOpLC8kPN7h/duOZyEmeKHW3pszfrN7SAJ84cTtU7VJneM+3MIeSwONrYy7rEVtOlwwuXjpuCYWu031Dw0xUJEQa3PLf0yUidcPjzmlZnRmahxDO4OHGaUwIWQ/VYaCsq+MbSlayoQiK/bjpD2UGmkhEuD5YTQ+HCkYS1WOmu3zCBhN0FLsUmwHcud2DK/f/a2FiRxj+BDHiy8WZ9njVtHtKnaE/pA4VhUkotVahlnYbBixcZtNVOQB6/Lid3R/dusJBm0/LrKgH9DtNFIAX/A9U7vQkpifHHF/ay6KSwfhEqZZX350M5DJUjN3kPX6G1o4cwtll2W2Jbv4gvcN5HwAjnir0IePAFLwbx1PxmVuesWNI5BBblY7Ss38zMTdaq9706kjvjGkc/Ckf1HNh05coT9RMOixyII+4JhHctOt8iTEEHYCJ9nT3ahY5kgfH6pFxYKlTzGuFD29+5nZ4RkY9k4xHY8D17jxDK9PjbfkZqXeUAst2jODsyyrzUbEl1pJES+bIzjg3G5Uin/H0hNa+rbRwOMfOWk1cxPoajHvall8BCSiF8v+E1T0LftnOVXjiCEwmfLM7FrUBZDIdNKpkKjEnylf1P/zUi9Aq+ZHX8zzych8TQ2otYq+WwtdcpS1BSSHvXOElNdg7RUbQUgMRPkZTwgZ26fup3BU0wVM+A2bCx0xJpHPloXurnAnNapPApU4FFrcfzOh575vQwRBKJWKj5OGpyw9hsci89hOOH7RkOIz+jFYqVYs5INPDgpsR3lvNxavsVqe5orOOYDRj68SWZd6zbC4C2saalQY1bS3BfC49P6taPI1N09w5wA05FKgnlAWAY1EAhEm5aHFYKlLxduA1muVQvM5m0UMgM+A4585VkRHIcKeGOsDfbSotCyfK23UeueS7z+fFpSztwGkniXRih33XJrExLHPo+Q13KlWsha3Q7qUHPvXUh5MahgeWGuk5D8b/gNwn0WSpTczyO183Bw22chPK4jDzryYVlOMRA40mjYfsGwrdbaPS2B+zOaSqXgD5G44hLcKDgO3y8qZq8rXSvwHCwZYdwGwvczqdhWEmaCvJYr1EIG27cDy6FW+Eq/hpS1Gy9iNOE2FCpWDnIhdh4gY+TelYkh/2vhzsOuIC/ths5MzNSauTQmW/sOILFdKWIfKv/L+/oD2kS9ECHz4Ki6hPR44nEg0WY9SiXsKudLvZt6b5iFJWEEurXubfS3OloTMz8o6E/xGDZR9b7BmrI2ZN/Yvm2UjesN+dXZX2UsDKtwH0aK0yz1cOWPRZDXsn9r9xE9/4iMbNkxjISfgzG9YNwPslCh5H8aadRjCWlJwrqj4jhUZl70HceKVeXMd+xk9+bu5E6S0V7VPILE0RuOvNhjYrlSzf8iUi+hfmD/HW1IqZidPF/jMyiqsrxtZE9VnVLwMSzGVRlifx6Pbg67Pn4h9XGkl5WZ8BgQvifpZABYVc5L2wobokbdTCS8AXQT2J7VN5ogPyqQC311HUlt9QyBXwk8T0ctD+S3Uu0r+xOkVh5kpxthz+/uH9801y2hR9OdvT1THH7sWBtJNMExlgvXw2tmlHLm7xBWgJ6BN4Ctr45/LjFPCC8KJ39MBupdk/sZklAb/AJx9MFGfjw/KlxTDk/t1cb2h8snVkF+PCe6SdR9Q/tkItk0ZmRbB6051/s34xh8ppM61Npp9vWP0S1qeu2wzUqeovDr1jv01bTMInFt3j/kTSVCJc14yglhpEabEIAPmePWMgV5spZl3qbWxe3rM3C74i9knhBaVE9D0snSEa6H4WUdf342Co7B9zSt6NvUeQcS0zYmbMNz99w7pJYrBfQRu9a5HXlTmVFJX+mpb+VUUBqzo7Ol+mK88KJqMr5lx7uQar5liCufgciX58IXJiIhk7uy1dvNa6spaL0Xiijo9MR1fzPzh6Sbr1kpUbKp26JWbPidbWWWjK1kwELxAXC1dkb+fADoj+aFONdXr9Vq8aAeWe/lQaucn/h8uOIa2GImyPtqeW7hnyONih5Dgwrc9RFdOIZhyb8GEQWdJsz0zRTVKoX/FYuJcGnQ4EhGEHy3Mf1qxe98f0wb9pNGsZL9W0hYwER8PvFi0OLjAzHfU9f57kCH5hsivEBR5WDfVPNYYw9H+NGfzM8R5uOapWwI84csmoUE1WFZqTBdLZMhPA5kudpX9FX92EKK42/3MzohDQ9XK3jkz2dnvr2ifRJpumH61YHfqTtM4+Ikm4QqFAqPBaFypcVLobKlsByG0CIOFf6uWciUcPm6ITjWSoVawoE2ZjdRrVnvTui61bxRcExeFxlRmD6YxmKJV5D/Um9jBwNypRU7OwY5gQX1hZlyXu6s3X479/EyVDqvQKj8Eqb0rAjKQ79QQpVxqOC4rEAsRas6PJy4rk/hBMdlWS/v7t8ddd5EISWIe9b8aMK8Id79pI+D3WNaQDYadxG7CuM3nv/iRNcEQ1p4nzE9rCXEUwo6GYJrYIQitdRtDvAhZ/fBhFvNocLjQ+aHGns4ZDztXrxMYLS5l7P4XJsxxw1B/vykt/pspwz011epBR/GYtSBX/j9apGS+yWkqfOOVChaIKOEBFrxsuAaWFLMxmzbgW7/e5B4omJjGfSyMAqgkGLUqcWfQOK2v3m5TCn6g3ScfadcyWdER7PGwOX26u3v0HZIJarUIp6cq70fvCo4Z1sW86H1CVqPQxLqs7ciKA/v4ZlA9whjqgipA91obro0aDVbctWlKKbB3fA739eUha3Frnfl8ZrgnC1/7ulzpBH6mV3v7RKLoFysaLSYHAf8BwqZCt5Fn9rNbZfG0o66tv3aAdMPuimiGkr8DUIF7iraJ7VLNIy27LgzGAwuQ2hNpjU8RwgVM2+a6SCZ2dnZPF9wgXMGUpFn46b7tB88BsrFSQBYiVz80RP/8kvaSsGz/K9Hv/cvSFx7lvR3efXpk8e+s74mY1kdbhlmA35Kw14cnrUMnRCeG4Q+WkvxQObm5oyXh5+GSW0AtCosJ4T9w2lZSEOhd3E1fjPy5nNgaYLmFMWwnKP11OA1eHV883hyQ4Q6hFqXX/rXSNNKQeN8+HnDGzVvcYBJKHyJUqrhFOVlJcSK9hhEFLQ34ZeYm8qZRki633sz5bxoZ/7TWHHTrRFKcHNF4/1I5/FZtJIObg79HKis2J+06KEfPWR5LsLa3NKvICnBjU6poOQoLy1+hhptqvEVfZmruF7wFG7HSqFyyljw3tMgW/7e04+m39dDd00zZ//Q3ByQlOzNoZd9YWZ0yq61TDhNVsp3NeQ5QCR4v4foqm3mxKluNwbySzFZ4XwTRUTLGeuXOsq3pN2oyI3Q38pPJCo6R4P2uyV6WVnmy501nXuR2rJQ6vLK/gxJ2nQxxHnwRbXUM0VICKwsXW/DwDG0of51Sunv8KA66fQVFTEUMn5bGN/cn5ARtIlya4SjHMLwmKylrvJzwYvuDpZJL9tKha/4L/YP7+kK9AY6O7o7fsSf17eKzr7OIcZmPn9y6cK7cYNzIMm87o6B82BPDvY4me+qb7uVq7heSDyTrQM1SDg3puvPFp9hJMUnlYv3IuVsQT/obehKi+BHwy09Zj0wgo+8/sQb+nL601vfSlcHfbeaooYk3bJkGSC0DFmm+aL1KeZtKZ/ZgVm+MCRlemXEIjg37YuiTMn/PE9WSCx+vz8Hz+fvYjHh4wpwTONrku8vJ29Iabrq2znqL6zbEeupEzw1JVUiUUuVIjaW0SdNxagpakhC3B76sSg87kKJUvQFpFTIhtiiSsn7fSTs95y2ijlUcJ6aH3qqJ/X7f6YSvVt7K5CwgSqpvaFwfN5/Kmlalt/rruseRZpSFCo5H0cS9n3FeuoGToKRsWhKUFeM7FdL5UZlrflqKeEuXKyi52nU/jwO5awemc22QjY4MqV1rdMaPsMdN10F52v4oWOq0ISYoXsh6UYAykDXJJ8Bvk8XapSy37t18BYtcpuDMxi5Rr7i+zSSSMp5uUBRP6htmOFc92L3bulmCymVNRUeb3yoZW1V+OBQuGy4LK4UKfn37+sPGEH7len1eBfxwJlMNBdNuJuc7sLzhlwpX5+NQxR0YmBXTj5zxnuR9EZ2lIHvGd9VVtbH65QKTszh9eeBcW5uUM5Yx3Nxfch2yjOwtWu6RMln8Hp+YlBh0w9Epc2HM5IYVjFlvkQp5P6OcNvIniqmfVWtB5GwLHxB0qJHRqyC89dcQxCxoBNArlLAqduooGkYsNcG3QtUjJoBE+4eJUp4fIhhDF0sV0o+glR7JrwWr6WpbNMtSG7ojoh1LH+6dyGMn0AgkD3ePV4ZaPdXj9kcqTM1NNVAuXXkVkZac0RpVCkF/NS51jVw443NVOG1gPCFfB4iCtplWltb2VtDI9AdKM5bb/Pgc0mLj25BTVFTwt2vRIh+fJaFRsyrPetdUkNDGniBG0ZZ4u+Fie19tdqvQkqgjrb2ziGlAkq6heJF4TXh9fE3dTNetSjoJKA3GL4ICf3STOozy+NCaI3y6+rE3vVZgJL+fPi3T5flKrn/HYu8Rtq1QUpXKK+b4HV6K9s4EoufjnywtIbKjQ+fyPWCa8SvCn5yC0nA3+C/zn3QXKY9w/xMN9pxDF91whW2fmyWgZXH853VrQGkSWV0Wz8tem0wClJWJHQTCR6Ftbp6eGwfGw75mSiWsk3B9eJLyIlHBY8wtHWooaWs5WYsMnokDQ5+0tNqTLi/Wj8en5ErxUrhJ5Em25KmS8iosDK6C51XUSuVgj9CSqVy7aEN93CJmAuuHV++S30NHfuQipvDo5Ss+6upkG6wqinh7q2Toh+TRhArC7pkEspI556qAiXnj7GofR2XKPmf0X4Qko5mJZcrBV9EargutAcz3IMkYk/0a7lYpRRyrjvBw/TUdbD3AruX0Tjhp73hs9beiXD310nBMQzf9HxbeTNnX0lYhT7aOsp+2fyiuDTSNDg7p3iq0TIjCHVX0FIwBr2wwYQPhShkF4TXFcIXPJ0Dt6cj6u4d2lRYtGaN7nqGZe3au8K89WPx/TwxuG1QG9iSIH6mpwkl0z8rOQrxnZAiCAPGMJCPpqwJUsFlGFAKCS0x9igQUohAe6D66PNHv41FKkrG+aZlyaBIfI+0uNLA0UBMeF6oqNl7gpUBFTXHGHCdm/wyhGElEooooPUZSThHns/pB0mwBt437UVrrd526IXTrxxdXyukAjN9M0Wra6vF33v6e9oX0I7aHRPH3n7u8JKy8n/gz+sUNYTa2rF3DM8NrWk+OxTOzjMISRtEOa/Dz7NCUc7JQ3/R6Eoq1lYIKQ/dH1Daj2KRc+3Rqqa+ocJm6phVrT87y4GOse6jzz1KH7GQLnRXbd2NhH5m8S8nUXD9aQHxPlie8kvwNpO9k3RXacqYkq/kfAop3Vi8z9e661HCPRNWRc/jin9791akQjrRv7WNLcEpP31UqgvugWZB72rrv533RUhL1OGW4S3t5dsOY5l9iY0G+Lj6Vuv7ps1IPnFrXA8fFLo36CcTkoT+mcoXlSMKW7hOSGs0PbSvP9D0908c/SkWOUMS3SBG1zW8ktYa6PHs8Lnh7DxuNxK6jvhYr6cMsqQrByHB4LpzSjBaP8anLocc/2eIkN5QkQahmOkvphuksKu2/V1IaVGzu+UylS7Eysz92aVK9te4cK9yb0rrN1HON8IGKVHQLsOXjNdYF84hyc/aS+VK4Wd3tQ/TpcGKknMvcmYKIbMI1jY0/PN423gHlllB0xLO31a+RZu5H88K308+M3yGNLBeAwa276Jy9S4snvvn7u9IFLl0IhAI5HdValPMs9FChmk7LLymEFpDvL4cmks5ObRtaO8ePS62IERjpGmE4X7ZdY/PkCFGACc+X+w7z7/FbZtuHNp5iP2eCW+29OCIU3gNIYZSvlSmlHCyXI2ZvpnaQH+gPBCYky50gmUmt/ZW6Er6GnoAJ07XRcV8qVKtZkwcIU2hD4wNDKKgbQqvGYQKme4KWjZnK9SyDyElYtEIrrG9qmM4d32KtAe6N4+zj7WQjgxv0+YuFAVtUXidIFTKvGbGtD6GMhalLCSE1tbZa7PCpCrysljjbUgFlI90sYtAcL0V3VDO8z2NPe//+Zs//xZ/EwTBPqKcrcOIdUWioK9ng1LmMPhqiCAIcSLK2R4ySCUEKGYqZMqVwW29d//0laf+jpPvHj16lG6NuNg7vrcya/GKb/lqbtbq2qq6srqS9fBzD7+p/0wiPbusKDTG28Y3ZWVlBXN8OWu52bmXHnryIfq+BUFINw74A7QK+YJnfBc7XgMIQzZqzDnY2+LI5GxNnVrCGc05QpBRA/nVwoqRYnS/CxXjN27HoPCcbon+bgq7XL1co1T8zgH/tMRdEIR0xb+lcwYJeyBkZAMhzxvCLnHnuxq72B/cEW4fnd1co5RyZpTrpgPTxbDQrYixT6iw3yvzWw/UvqX30L7+ACdXoPUtX4+CkC5UKXlUIlRQGaOgea4QKrkrOza3aUGJ3jfzPk5SEBPDjT07kfwc8haEFi8VMq8plelauDLEK8jXUN5U1DweK4JX65TS37llcCKRM2sIguAi7Oy+Ek4JpItMT09rKc6TSo0KjS6GmJgdmKxBos7tOrC1Vim+D8uhypiS8IpOP65hVZ/ra+w5gFSzpmdHZzl/nCAkDfmkiw/6O9lAmLYTPxqNfkcCe3seOPoPL6yvjQlOEsqgNtdmx8B180xsl5DGTWParCchdGEJgpBKzM7O5vXXtXBmYnYfS8sGQp4XhFYlG+ZssXvHGCcBVWqUwk8iMaxkz7uBWEaIcd5ne+u73oFUjBgh4chDFwf89H3wRw/SemYMjhy83GljQeuWJBVUUWAkUN+x1nHm/sfup1VpldchhqWckvMz6teA58wGYPrHJyGCIKQQL0HSpgcHzoOW4+XO2taZw4HD5Vi2XInfOngLG9bYwJc2DaY4D8OSZrc8zScNEQQhFbipU5tWiS9wSisklJ+KiF8DyoEDBxhL1xL7OqcYe5k9L1hJpaubR+utAqEVLQiuIhaAc/BasjdDCV7klBxBqH/GL+wd39tUtqXswl//9V/zb6tow9shnmrocxpcIw5XZwXGtgb2QCFU3ILgKDITinPwBWV4wpScRUUvM10RJUt5SxetKuZKJYcxc9ngp8UdSWfFTHh+kFwscqYWWtGc806MHMFx5KFyByqrPLzEKdFAaCjmztrOw+2t7Y/83cN/R6vQCtqXAiQlG/zixbCia9WiP307OP8f1tcKgjOI5ewC/i2dtyGxMhll0jEUDKSwdUvrv1pRzIFubQYKxrIohVJmL5WMfI543pBcKOZfwZ9vTnUO0e8uCIKX2dXadxCJ5xsIUb7lMqXw00gtfUX11bTMIuE0QGk9OtKu4HrQJXQm0Du6GakgxI24NdyFn/20Lj3ZQEh3RlV28Z+fuXr5A/xzfa0pKeWySSS4nkZPF5moVogbcWu4C1/SRf2l9RRUzEiWoZjv5p/ayihUKDkfRsLBNqKYI6BXwozJcb6/oWeXtlIQYkQs58RAN0C+V5SaoZjbq9vf2dXT9cO/Pfq37AZnRtqNgnQLvTLmFwYH8AhCTIjl7DKHdh4q8W/p5ACVq3hpk95AqJdBawBs62x7xEwx99e07kXCykUUs0V0C5p9vs/u6t4lAf6FmBDLOUGUKTmfvaCs/HssJrXbmW7V2fGLpn3kPbfQrzV7tci8ioJtxHJOEFDMv6olipI06xnKgu4MDpygYo5aMc/2jm6uyS35JhYLRDHHhm5B0wfNYe2CYAtRzomFw33ndYsqoRjujAO7pnvX10RvBHzwqR/95NTypXfpCsYz8Dx0WQ0j2m/6pp4A149R+Sqr1aKP8E9tpSBYQJRz4mEj0TKVyfqfCYNKa+HqSrap8uqva96PhOE+k2YxG4o2RKh8GXiIslSg5H6jSMn/apFS8BWkf4q/v4b1bLTkteUQeg4CuqawKfgtWWSfDs7/6kzfFOctFARLSE2eeNRyJfu/n1eu/jaWE9ItjUoKyeJM38z2ssKySw888gCVWDQ4SjAp7gy9rLTqjZSsFSm532xpbP5WUVnlkz/8xQ85q0pE+jf13JKXn132oxefoMKm5UojhM86zycpgZlwXtKDQxBSACoKCpWkq+E1kb+mmPXjWYH+0YSO/sPxWEYqL1rF8wVKwUeREuM6GWKZaf80AxORa/uXKfl/gpQ+dx4n4SM3cUyOInwDIgim2HrgBcc5BmFXK9eiuemWKBUSlZVhiYbl8PDUlr/9yfdZpoTFy9AtSgrdDpwN283hz3zeeQ1OQxirmpZ0wiLp4Vx5jlTQPHbUeyEIQpKZbO9nkCTXYnAw777GDsb5iMpQQ9sUEvZnTkigfByHlQYV1dmpIS1Qf6JR/Q1dvPZanBBIQixpHIcV0aW+Ld0y5ZUQFbGcvcHbkAq8vI72jNCtZnbfs9Kn+RSk3OkybARlMhQzhYrRC32AGQOF1mxCBtroXwtnIdokuIIQjoQ3jAhhqYUs6C+tkzA/U8V8xy3avH+My+zq84Dz42c9lTIbxvKnB6f7uN4DsIKgck5UN0deZ15vMY4EIUWg0nLk85r5QOhrtqIAaMW52giI/Fkeum/4laDce++9TlUEPD9HlNztEzOsJHkt6G5x1c2B/FdqfEVfQioIgpeZCwSKBzdrsZId8T8jj5VKteQLSKMpLv72GmQ5XB5OCfKnNXqls671ANK4CLSObu6q7dpTqPg+hj+pSOm24RDzk+1VLYcnugb5FRCvsj4BSYSC5r1+CiIIgsdRK5V8KtS4rFjsr1nN0/5ps6A7VGK0rl1TQsh7XTGvB1CyC8unjreNb+pZ359Kk32wtcEmEOZtiDY4BcJug/wCeTPQG2DPD01RT/bu56Aay9SqxZ9F4lpDLQV5s9zsoRJvZSIIQoLgCxtzDwLst9zb2H2IGUVjormHluxSuDycEOStVRI9DZ2xKOYXIYyYR0VLZUylS2Vmek24DcRQ1tz3YoVS9CGktqhSCj+JxDUFzXwhVl1PgiB4BCqmmNwN2M9sBKABrVBXus4hXyqexcEt2nRdpsrnHv89HMmnTHfsbETCgRpUipaUsZno+SyVK0Vf2Du8dwuWLVOt5t+HxE0FvVylFn8CqShoQUgR1Im27vcgpQW4Fu7FDifY1rDGIjI9OG0oQFcaAZGvNtiiUi36HFJLSqe/Rps5hKMTWXa3ysVryYrrZGdt5zhSq5yEuOKXR77a/Rps7Noz1z2Xy4MJguB9qNjY2GVZWWHbq+Vqyf3cORKH161H13zNyJdKkI11dkhILwkKjsHysSHREndNav5qzdUULr94hflC3tjbvbcSqSAIKYRl9wO2W+xv6DHz8VLp04J0XBEyTz1vqzwO4fm5ovgiCY8HYQX1M4hV6P923A2EPHnNWFmIa0O4hgxCSQ04YIFhMPkSR0T/feGJt37+D+trwvO+mYMMXelWdDaWgVamKSPNfWyQ7IIwAl5C40brx6MboX1ff8BqKE+Ooox6D+KA5aGiFgQhVQgEAtkdZU03YzGqKwK/LfXUdOzjPiawsdENC3ClKrvE6sCKJyGuWO92BMdnYyHLYcmCrlsfOOK4lY88l2uUwo9rBxEEIbXQu6Qthnu5KfjtCgdpaBuH4X0z7yt679Q+BhlitzRHlSLzg7DyMP00Pzg104yE2yYkyJKZsBwQuixMef/u/ZuQOO6vZ34QxhoRBCHVmOqcaiiJMkgF66k0IjLTN8Hhyex54IblRwV3LjA6axby8xGIK77beATloQ/6ot9atDg20rrx5bHU4Cv78JFxaRgUhFSFjUc3KFisi6qcd+8YYxQ0x8OCIj/N1923uZvDz82w1fskkcJyQTgKMRpqg6+U/ZId71qHPFnBnby1O1DPAwmCkJrcoGTxd1TlrEOr1elP8pUKtfDTSKO5NNRapeCPkLoaxyNeQfkWBja13aqVODqOW8/MD2K3C6IgCF7B7/fndBVt3YPFa13skHLgB/82w1F/KfLicU27zt0+pPm6Ha8YnBaUjwqSijcqu3eM3I7E0YoG+fELhI210qVOEFKVnR072b2OUNlSoayUKcX3BdoDZsHrF8IphlgF+VltCHQ9+p1TwnJCnmeho8DzdbS3CfOCsIIV5SxIP+dU5eHnHjasZLo3GPthubmp+du5+bkRrdi+ei0kqdP33FBmTCNBZcNRdqnyvLGcVmYp4VeD0/DY0a6lkCGIck59anc2D1HpniguLXvkoScfitgl7MkTL/4VEqenYVqb6PD/ir4clolt2ohFTqTq+hRQDsHKJHtmdIpd/iJBBcouiY4pUlwfvo/ZW/Lrfnt9jZDJiHJOAx5++fHvI/ngD576gdnIPEZ+c/qTeTW4cpUBiyLyw1d+/nUkqaKYrynJC2fO9a+vCc8t3cP/DgldEU6iXl1dYZdHQRAyCKcbA6mYIjaeMQzozb0TbLh09LiJEJSXfvwL04NaCNNIsKJztJETefG4Zt35hAxALOfMw0nLOVjjK/kLpGHzfDvr7dIXn332NizSpZFSzxrKS0s/79KFcwPra8JiVFCOuTZ0JHSoIGQKU51D7MrmdE+N5Vt6hu/QDhCZ0xDHR9MlQlBuDko5zpOIgLq5oJouG8fOj3lB2J1OyHDEcs4QqktraQk67W8OXg2umSmShEabcxheryI9DQcDAXK0ppOWM4/l9H0SUhBRzhnCw4898mtInL7fa99/5vF/0pcjkeqKhtcsovLd0T/wXSROd6lTAzKEO+MR5ZwhBJVgPhKxyOxhasVu2bLpKSSO93cuyF11uheIkGKIcs4A9naPV/oAFpOhnNPBco7I4tKi1kUwGAw6qaCzLl1aku50GY4o54ygFDc6i8rDSd+oVZJxTCeJWrlk+XzG+TlaCZVVFp7RF4UMRZRzBnB59fLKWvAq+xo7pihhKaa60rVDRMX7+vHj3Ug45ZejyvnqlTUOGBIyGFHOGcDMczPzbR09f49Fxz69nVZGHiZqJZSTXVCAxPFrsRZcy5TrK0RAlHMG8EHlg2tXF64wQJLT1m7WVOeQWexjxxvLEgivF/sdR0J98onHA0zX/3SO7z7zr6/qi0KGIso5QyiuqXkOyZrD7oisY8ee54Sy0ZQTI+alKmv1atGX9eWwqKqvlMn6X44ilrMgZBC0np2OAxE12NJM366DSCJOSutVQZnZle3KkfXJaCNBBcrYIhLTWXAcsZwzC6f7zlKBRI10V1xW+xMkKw53NUsELO/8A99/6OX1P2/kcGBfExKn42CYuVIEQUhDTkGcnvducaJtaL+We3jU2YHJOaQpMQuKISjvwu3RZxJnhfQmxNHJaplfta/ss3r+giBkAvVqieMTrCK/lbqcsi8gjaZM+JujUzq5KSwnhC4gs3O6YZLdeAX5LU60DNGPLwhCpnBkfP8mJFfCKYVYBflZ8ZHyN8Y9TonodCwnhNH0osFzcjo+Nl0pVuZjFDIA8TlnEA888m1+hrPHhpP9nfkMmc1yQsXD6G2p4nderc0q/ZS+HA2n3x+jshMEUc4ZhvHyM3USn39b1yF9ORy0BDmjyCIqBk8rH5TvapWS/8W31y7+vr4qHGqtWki/sE+vnJxEGgMFIUNxPPg984OYBoh//37NreJZ3zPLBTHzNRs4Oj0VBfnxOnKKKnFrCGI5ZyBUKo5azlAsdGsUQiJ2OyN/9m3NrcIZq73q3litUUvZuBkNKs5XIDk4b6ffn7WtBdVfQ+r0l42QgohyzjA2ZZV+HokbrgUq6BpINKsveGR8/w6knnNv0J2B5OKp4MXf4J/ayvDwN56nmZ/dFji+ZjnfPD75pfU1giBkIhzV53jPCeS5OLS184B2hOhQgbNXgid6b7AcEDZYmqHWq0WOd0ekIE+WgWFCxaUhCJlKnVLwQSRL4ZREPII8qWCiDufWUauUvE8jTbqCxvE5ievF7pr2SaRROTi2uw4Juw26UbEt7Wod5FB3QdCQWjoz4X1nw1c+FIOjri18nVPZsVFrq7YiMsazR2XHcjjqJrCC7sqgD75cW2EOfc0NKKujQ7ZRDvrg2VBawj+5ThDE55y5UDG5oQioZKvXF6OiHXuooeOdSOiDvqorKdfhcSCsRC71NHaYhTwl6u0BbSg3fc1uzCbOa0HlLIpZEDKZ2YFZKpnjEEfjQhjCfCEXhpo6bkFqhmFB0x3C8KKsNFzpasd8ISzbfKVa+hGklqhSCtlISAvfreu1VJ9d+T9mZmaKeDxBEDKUuwN35wc6xm7GIhWOW4pQU9AQy0y1DBxGwjIZSnotXN52BfkYSpnW6Wndd2zHpceKwy3FrPnp94zsqeKBBEEQYBEWfBiJ4w2DhiDvZcjpfUNTDTyeRdQ7A4e3IWWc5GuWtCHhjrNRQreHcH/2raYf3BbdNd0DSN6AuBZRD3kvDG3p2cvjCYIghOKa9UxB3lTQtmeSZrjOXW3Dd2CR5WOvDlq9FOZHhXud0taF62ghUxlzHzb2nfE37bDiVw4HGwDdrLxYXltfF4IgZAC675kxnl35ZDcE+VOhnrVpQYdCF4R6wD+9FYr2NixzqDgVLxWwIfOlSsHXqtTiTx8e20fLW9sHYpuemrZ+JFTMrs7ggvx5XV6a9k+XIRUEQVhndnS2tFYp+3UsOh4nYqMgfyoi0/gbNjCUb6gSjkkZh4GTq7pmMVOQv2Y191S1j8zNzSW8G6EgCCnA9MBOfva7qowoOIbRKHcM4kV+CmEF4vqsLTjGwvTgTkbqEwRBiIqrvmdDeAzI4kRr7xGkoVZvUqnzlTF+MysO10cs4hi8BmzwFARBiMztEzO1Db4yBkRK2Dx/OBZ7YlysVaz3N3aa2YHJmgal/L9gkX53178cDMGxlqvV0o/u791fwXIIgiCY4eg0/2bCY0GopKkcSaKsaPXWkUA9Ujb6JcRaNoTHgjjpexcEId2Z6NAmFnW1h0I4wTE1X3S1UvI5pIarww1FreVbpxZ/Eilji7CR0pGBLlYEx2JltLC7fzcnHRAEQbAF+yS72rUunOCYVFxGg+GFaqX4Y+PNw9NYjkdRa/sOberejZQTAXCkH7vdUSkn7AvBEBxzpUzJ/wxSNyoeQRDSGLWvZjtDZ3JgRNJCefLYEGMwyaVapeS+g6MzzVg2FLUlqVGK2chHFwIVPvNjvglXyhT92BcCvaMMoCQIpvAhFjIEn6LshXn6D/qfZrDvs+MhRe2iR6qj0LKmUNEZspFQ5cxyM4JclkfOgdZ6gd/vz3nsscdYUUQE9+mdONH/qf8pCEIG8DM9NaVKKaTVmbAeDFYE5TEUtCUJl0eiRS8LGz2PB7q1Rkgr/EJPBUHIAOhL5uf9yYHWAQ7bNqVSyf8TJAnrXpdugmunKea+Ta2MWW1KW/G2m5CwxwzdOW9Mtk5auk9CeiJujcyBDWGcwYOf2GchVq04blsCZeNGkPm0Jrg+0wqvH0OUWoGKmbOYE1akpZBw7hshA5CZUDKDkxBO5e+D5GC5vKt2G2Mnm8HKuxJyRVc0gkV4vSqyi/8ci5YUc4mSy26EBfo9YqyN3M7K7bdrPwqCkF4woI4eCY5W8zUfLJchbPCzA626hHexS0XhdYJYDpPaUbGN/csXNuQRyz0SBCGFOA25QalyHYSf3KaERE3TFDQkYQM3UklwXahQV6pyS7+O1A4cEHND10WsYw+P1yd7J2WYdwYiPuf0hveX1lceXvYbXFj49F7uq9t+95MnX/pLfZUV2G+4CPmJDzoEXEsqU7p+eH1quc4iHBhTHO56Iku2D9D3LLNyZyDic05jypWCjyHJDqeYCdbnQjH/GRbfWl9jifIKpeDrUBwruvLIePTrsDLU3P0BpHYUM6fOCquYiX7fcnpqWjkjjCAIacR1vuZwwt8hSzN9UxyBZwcGK2KXr6SNJPSC8Pz168AA/Zbp29RGhWvajxzbiO85QxG3RvrCiUlr8YKbuh90y49Khv5pO0F5+PywAtB6gmhrMghct9WtFTXfefXcKfZ8seN2oCJnLw5eN9N3EMfhvXkbIgGTMghxa6QnfOHLIZbuL/QDt6MS5/T8dirsYLGSw4EqS1QgupJPe3ieusJcunRx8emZiRmrg0V4bSl0fdDdZPVa8/7wftq5N4IgeI2++pZZJLaHXmMffkLzE50R3Cyxb2ifNmlrkZLDfrpGgCFPDJ12Wnhe+vktlCi5nJxAmembseNjfgkSkysI+ywFOsY4ca0gCCkMu7zF5AvGflRACzH4oNWDY7v5qW4ME08rXzTPB0LFenJKn0X8XuVey1+eOxraOWs4Y2zEVHFhPx6fXe4EQUhROHlqXPEwsL9hQb8JsYP22X17YJZhMVlBJCVuslPCskOoFHkeF6Z3Tsc6ISu/RHg94+ofjv1ptbOHh7g3MgDxOacXfGlpvcZ1X6EIuD+HeVfj8/3L2kprUIEo/+/RB1/fNzTVUark0dUxHwwG6ZOmoksZ9PJSGS4WK3n3zfRNtK3krFgatBNKhVp4HxI25Flq/IsGdme7QBm+asS9IQipRFdtM2cOcXSaKeRHq9HyUORwDDf1vgMJA/jzs56WqCetaZZLL59mKe8dntqCVAn4A9VM7TCxvY++aH55OBrVD/mxwmA3RrGeBSGF4Ggzx329yJMK4cLu/vFNOwd3NgYCAdPueRs5HDhcXqGU/AEWaX0a8/d5wi/NckBYcbA/8fkipeAPpzrX/cqx0FnZOoOElZHj4VaRpzFqUJSzIHid8e5xRo57BuJacHzkTQVGpfC6v91v25IkB/wHjHCYSolS8BEkhjVN5c/8XbeqmX+I8Hj0BZ/vqt5+K1KNaf90mb5oi46qjmEkr0HY99u1igd583qxH7soaEFIARjTwVVLFPlTodHite17jUSxUvjfkHD4OPPkObAhUevtoUtcyhr709IMdVcwb1rItN5Pt1a27kXqFBzEw2MkooK5Eugf2xbLV4wgCAmiv6GTCsZRX3M0wbFoudE6ZL9dR5kdmKwZbh6g75y9EqioqUSpUEOta01p6xK6LlS4Pa1y7suynu+tbbkuhjVnGgm15uPgccglSMJCqvJYEFrPgiB4GFd8zdEEx6NipPI7s7Njp9HFzPHPbA7yGGoZuqVUKf4o/qRlSuua7pBQ4ToKrwNTWuGvdte3z7o523VHXcctSNg4pzV0hrtObgmOx+vPLwBxbaQpcmNTmEB7oPro80d/iMUmvLDs+pZw9GHMtOIWCpXcT11Rlj+k/eACge5A8Ur5ippzPieYm50bPJtzNpiTkxNcWVlRKyHLVytUJUfJPvrEUSpoN/n/IP0QDqnOxbVPSlwRXPvlrtqWO3/x9ot/o68SBMFDxDwa0ElhGSDXDVwZ7x9Pp0A96nDLMLvWHYcYPvGkTjqA49N6llGDaYpYzilMd33L7DMnXvxbvKicuNUThFjSVBx0Q9gdBu5FvgvpgrAXBycu8EwjHK43rzX98038k+sEQUg+9Lcm3WoOJywXhD0XLhesd5vT4ICOue45z1QmoXA6LrqK9D+VIqXoD5HwGhvd/Tw3eIZlgojvWRC8Qvl6A5njgxycFpSRyoNKWusxATnW1tA1hdRztFW3sVyMTcIGRSo817vFOSEsZ9eGnihC6iO1bWrC+0ZfszaVvrYmBdDjVbDf8XKRUvDpprot//jMyee/p/2YRLZXbd/90pmXvolFui1o1fP64tKGn97La+C68pqy8uNcg0KaIMo5deFoQE+6B8zQlQmFrgIKXSBU3FdyldxPNFU2PXrs7LFH8bejtFW2jb5x9uWbryhX/0/8yWvHHi70H1NSejYX3ff82kjnyOiPn/1xXLFQBG8gyjk14Wd3aSorEwNdUWuLuvBvKmoq7CtNFS0f8GUFl4sqip5/6oWnXsc6S+zsGGw8fX6+M0sJFjx78tjXsYrK2FDEoRZxyljI0dCvI3uRyEzdaYIo5xQCVlHVs88++ZuXlKX/DIXimR4DbqArG8NnHaq4DcVjrDMwnmXNJQGhwqVwWavE0kEJRwPXbHlHQ8udT78l/Z7TAVHOKcTQ1qGGx199/AUs5qe7oglHiJVtSgZfH1rPxdoKIaUR5Zx6cKAHR6XJvRNuAAqavudTY81jQ4++/OjJ9bVCKpJx1kUq07Gp+QgSnyhmIQp04VRAMb+9/qeQqohyTgHGN48XZCvKbz73xst/jj/lngkR0d052a01m+5YXyOkKmKBpQ4MSZlS/ZqF5KD7njmq0YlwqEKSECssdUha9DMhtdCtZ/bhPrmjeQcn/BVSELGcUwCfon5+VQneI8pZsIpuPXP4eYG2Qkg5xHL2OI0ljQegmH9FFLNgB916lvc7hRHL2fswAE9G9msW4gPWMwfwGKMGhRRDXnjvky2KWYgF/WsrH/99en2NkErIS+9h6gtrZpHIPRLiIQvm8/+uLwsphLz4HqXSVzlz4sopxkiQeyTEjOF7HtzSYUzCK6QI4nP2LvQ1M5JalptujSDQF0nosuAexnvH633dO4h7HfM7GXovjXywir02VvMU3+eWlNVf4zohNRDl7E04u/NNkHCR58LdM6v30Q3lazdPN8oQ6fxjOVa870Qy3ynjfENTQzgLzT2Q7+h/C4IgCIIgCIIgCIIgCIIgCIIgCIIgCIIgCIJwjWR2+/EcHR07SwpWs/KXc6+uPvPMI5zh2hSrIRmffvlpS1MGtVa2ls7nlV0tKrqwmpubq3V5Wl5eVhcXF7NWViqzyq8uZa2UrWS99NJLF7QdTGB+ub7ctXPZ59aQ31pOTo6W58rKirq6uqpJ0VJR9gtnX7io7WBCd0138cW8i6ulpaWrBQUFwccee0yb1y+gBNRT3aey5ufns4quFGU/c+qZy9oOJmzePF6Qn396raysbE3PS8sP8NlU/X5/1unTp31li2W+J08+yb7fprCMxvkWFRWt1TxTY+SpxFLGjqqOkou5F1eR12rZCyinopWT11E1zvvMmeyckxbLZ+RnlK/gmYJgsVIcvKxcVhe6F9SLFy/68q/k51i9J71beysuqlnBnEvza7zXZ7Kyg1lZp4Jra2vq2lqVWrm2qq6s4Zk5Z+2ZaW9or2aa7ctem0eevixfMAv5az/q5PourD1z6pSl69fd3Z3Lc+Ty6abTvuPHjzPW9HX5CTciylmnr66vCC//4/lK7j/jzyxFWb0KPbGKt1B7CbkOKzWFAeE6SJbiw2os4N8atQrXE6bqukZYY/SZ4BqHA+j58DdduB2FmxpCmBp5GfswTkLovsa2xnbRMPI2jkeMfI08N+ZjbEsx9jeOiWujcK46CpeNfY1yGuULzTNSftw2ND8G6yFGXhyIw9jElNDyhpZ543H4G/MxxCgL1zNP9h83ysn8DELzMTC2YR5GfsZ2/I15sWxMuR1TrjckHNzOyIvnbuTJ7Y3yGfmEni8xjh1aBm7DvynGuRrwN0OMfELFwNhvDSuZGuWjbMxTW9ZXMI9rv+v7EuPvNR6YYIWarfiwKuuVJWXlq/pqIQK8sALob+ovf+L4E29ikS9asq6L8WCbYZTP2H5jec3y4e92z3FjnsbfG9dbyddqXoT5GXnaKXNoXqHLoXnYyY+EKx8JVz4reUfKj9gtmxXs5BmtbLFg5MeUkxSXaX8JEXHjAUhJdOV8Aos5bg6XFoRMRh9Ozi+kfG2FEBFRztezCMWcpy8LguACUNCcoUXeMxPEQtQZaeysQqLqNbsgCC6A98tpd0naIspZJ68wX66FICQG+WK3gFyk62EXH5l5RBBcQrec2UOFvXCEKIgSuh6prATBRYw404I5opw3IFazILiOKGgLiCL6N+SBEQTBM4hyFgRB8CCinAVBSAbypWqCKGdBEAQPIspZEATBg4hyFgRB8CCinAVBSAYyjNsEUc46gf6xJn1REAQh6YhyFgQh0YjVbAFRzoIgCB5ElLMgCIIHEeUsCILgQUQ562Rp87QKgiB4A1HOOoucclIQBMEjiHK+hmhnQRC8gyhnQRAEDyLKWRAEwYNI2L7rWVZVNUdfFgTBBYLB4AoSmUPQBLGcBUEQPIgoZ0EQBA8iylkQBMGDiHIWBCFhBAGT9b+EaEiD4PUsQ3yqqqZdpaW/FHaRlygxXHsP8exFfSdD76PZtlZwOj8zcLhVJJQ8bYUQEVHOOt1N3fXPHH/mGBY3PjROXqNoyi7W4ziRpyjh6zGuR6Lfj3DHS/QzY+DksxO6DZfnIVXaX0JEEv3wpQztDe3VWep6vI214JpK4XKhnq4VFqpLK0vZx14/9gb/NmN73fba7KzstSz1ctiHeS1YrGZfXcp+5tTxE/qqqFjJb2V1xffy2y+f1FdFZUdtc91ilg/5RY4xYqd8zcjPp+U3H6F8RTjf5exnT7/6lr7KlM7qrQ3LvuzVLPWKlmeWql7Ley0YxD0qVK+uXvW9ajHPrcgvW89Py+uSolzW8yxmfsVBXMM833GL5/xv+WUhvxvPm+e8jHO2Wr5/O1/jnlzWzpnnyr94vjlXV7KfO/Pam9rPJmzMzyjj5ctq0Djf1bWCLKvPTFNNU32OLyckv8vBjTFqrq4WZj3/1vOn9T8FQRAEQRAEQRAEQRAEQRAEQRAEQRAEQRAEQRAEQRAEQRAEQRAEQRAEQRAEQRAEQRAEQRAEQRAEQRAEQbCAovz/cUYwTHUxfZcAAAAASUVORK5CYII=;gliffyId=132;" parent="2" vertex="1">
          <mxGeometry x="359.2415466308594" y="511.5" width="164.75845336914062" height="190" as="geometry" />
        </mxCell>
        <mxCell id="23" style="shape=filledEdge;strokeWidth=2;fillColor=none;startArrow=none;startFill=0;startSize=6;endArrow=none;endFill=0;endSize=6;gliffyId=133;exitX=1.0;exitY=0.5;exitPerimeter=0;edgeStyle=orthogonalEdgeStyle;entryX=0.5;entryY=0;entryDx=0;entryDy=0;" parent="2" source="20" target="25" edge="1">
          <mxGeometry width="100" height="100" relative="1" as="geometry">
            <Array as="points">
              <mxPoint x="339" y="588.5" />
              <mxPoint x="339" y="720.5" />
              <mxPoint x="442" y="720.5" />
            </Array>
            <mxPoint x="409" y="753.5" as="targetPoint" />
          </mxGeometry>
        </mxCell>
        <mxCell id="1v6BCpd65HdNt9j6V_Qv-51" style="edgeStyle=orthogonalEdgeStyle;rounded=0;orthogonalLoop=1;jettySize=auto;html=1;exitX=1;exitY=0.5;exitDx=0;exitDy=0;entryX=0;entryY=0.5;entryDx=0;entryDy=0;startArrow=diamond;startFill=0;endArrow=diamond;endFill=0;strokeWidth=2;" parent="2" source="24" target="35" edge="1">
          <mxGeometry relative="1" as="geometry" />
        </mxCell>
        <mxCell id="24" style="shape=image;image=data:image/png,iVBORw0KGgoAAAANSUhEUgAAAQoAAAEwCAYAAABPKj8CAAAgAElEQVR4Xux9B3wbx5nv9kXvAJuoLtlWsyRIpChRDG3ZcnxJLjlfdLmXS+6lXO6SOHG3im05cmKnuCSOS+pdkpdzcpf4LvVy7jYti5IokaqWbNlqVGEB0YEFsP39vgWHXlMUFwRICpKw/skAsTuzM9/M/Oebr+JY5apQoEKBCgUMKIBXKFShQIUCFQoYUaACFEYUqtyvUKBCAawCFJVJUKFAhQKGFKgAhSGJKg9UKFChQAUoKnOgQoEKBQwpUAEKQxJVHqhQoEKBClBU5kCFAhUKGFKgAhSGJKo8UKFAhQIVoKjMgQoFKhQwpEAFKAxJVHmgQoEKBSpAcZnNgdbWViqVSuGiKDLRaFShKEo1mUxWkiRVWZZx+OQ4Dn5XGIbR7qPnHA4HmUwm5enTp0ttbW3SZUa6y7q7FaC4xIZ/+vTpJovF4qIx2kuQhENRFIcqSzZFxc2yLDhwXLXgGGZSVdWKkziB4SQtSYKDwElcUWUGyKGquKziuEyoqojjuAT/VFWVSZLM4jiewTAihWNYiiKpFEaoGfhdVcgspmBhTMYyTIqJ7zizI3uJkfay7k4FKC7C4Z89ezbroTy2HJNz0Bjtzgm5OlkUarM8P4vESQ9O4m6KIm2sibWwLGuhadpCkqSZNbEYjuNmHCdoSZZolmUJiqRwQRQphtEwAldVFVPzF3wqgBs4YAeGKXDhGCapqiIokixKsixKkpSVFSkj8GIqx3EJUVZTqqokcEWNESTVy9JMN0NSIYFSE6wkJeOimDly5AiHYRjUXbkuEgpUgOIiGKj585s8LMZ7VEWsVRS1WpD46aoiTcUJImCyWqtMJrOXMbFOlmVtJEkyBEmyBEGQF6JriqJIqqKIsiILkihyAs/HctlsNMNlQgSOdyuSlCAo/BTDWo5iMtWbFtOhI0eOpC5EWyvvLJwCFaAonFaT9mQwGPRRChUQZKFGzPJzREmciVNYrc1mqzdZzNU0RbsYljXTDMNSFMUoioLJsowRBDFpbRzri+DoIktSTlHknMDziVQs3p/OZHpUFT9BU/RbNEt1m2hrCJOw6I79O3qAkxnrOyrPTxwFKkAxcbQtuObVS1b7MUbwc1xupiDwC0VZvMpqtU5xuFx+giTdiqpaCYIwWywWVjsf4PjQPzgiAEhIkoQNHh8Kfu9kPygIAkbTtNZOaDfP85IgCBlFluOKLEeTyUSIS3P9OIYds1sse8xW60mFJM9s27YtNtltrbzv/RSoAMUFmhFN85s8CqNUy1JmjsCLDThJXunxe2djOF5NMYzdarWaKIrCYXHBBYsLwAAWGHAQ8A++A2gAJwGf8He5X6jtJElqoAGXKIoY9DPfBwWAI5XjMn2pZPKELEmHaZOpg6Gok2ZFOdW2b1+iwm1M/ihXgGISad68sNkt0VJ1LpdcKoliI2s2z/L4fTNYk7lKxTCHqqoULHr4hzgFdKSgKArL5XLaPfiOwEHf/HIHCmj3oJBU44IANBDQAXCYTCYsm81qwKEdo1RVyOVyyQyX7uVSqZN8NnuKNZm3Wi2WwzJJnuro6EhO4vBd1q+qAMUED/+iRWutZnOiVuL4ubwsNtlstqucbucikiL9qorZFUUhEDjADqsHCPgb/sGi4nle4yrQsQMtOLRDQzfKWUYB7ctkMhrIQT+grfq2Q78QQCB6QBnENeEYJoiikEzG4z2JePxdUZTeoihTu8PqOMo62HBbW1t8gofysq6+AhQTM/x4y/KWKYKYmcWL2RaCohbbnc4rGZOpmiRJJ6xptLBhJ4V/sDji8ThmtVoxlmW1YwZwELCYACxggQFgoKMH4h7QoroYjh7AMUC/ABCgX3ruCfoDxw8AET1gIkBEshmgFYZhuVw2m0wlEj2ZdPowrqp7MIra5zSbj7R1dIAgtKJ6Hed5XQGKcSRoMBh0WihLXSadWK7gSpPVbl9stlpnUDTlommGQYsZLXL0N9pZzWaztohgMcGFjhj6xXI+YSbUMbiIxrFH41sVAJ1eEAvfEdegl7fAc0AHuAA0AVBQWQSW0FeNCxGEHJ/LhrMcdzQZix8y2+1/MdHWYyqt9ra3t1fUruM0hBWgGAdCtixvqRfl9Pw0x91gs9vnWZ2OKxmG9ZEUZRmH6itVFEiBDJeOijzfnYxG3xZE4YjZan+FVa3vbD+wPVRgFZXHzkOBClAUOTXmzZvH+Oy+abyQCQoi3+pwOZeYrJbZNM24cbRVFll3uRXT7/zl1jZ9e+DYAsJQzVpUEiOxcPidXDa3x2a3P8dYLCe3bdt2vJzbX85tqwDFGEcHnKrIrDw3leOuFRXxOn9V1XzWZKriMhlQaY6xtvJ6XH8kQi3TY97FoFUBuQ60GeQhYHIej8UimXTqeC6TPUBR1Otmh6Ozvb393YocY2xzrwIUBdLrxtk3soI3PSud45ozfOav3X7fIpfbExBFUTOCstvt2m52MV9IXTkSSFwMwlIACYvFogEFsssAuQ/INaLRSEKVlVOJaGQ/SZAvmJ3O3bW1tUefffZZ+WIes8lqewUojClNXLvy2hlZLnldVs592OX1Xm21WWtxnCCRxgKEj0h9aVxd+T4BQDESSIz2W7n1BqmIkVAYQAMEoqBJASCnKSoVjQycjoaj+6yM+Vmase5p72o/VW79KLf2VIBilBFpXdE6neczLaLEX291OZpsDkc9QRAMUmeiyQh/w2REVpTlNsiFtsfoaFHuohcYB73GCP4G8INxQlqUIRNyRUmE+/uPxqLRDrPF8VvKRB3dsWPH2UJpdbk9VwGKEUZ8TcMaryCnVsS59GfcPs/VTrd7iizLZmBjwWgIJiMyhkIOWVBNuasnjSb3SPIIPXiUO1DA0QNkE8BVAGgDOCBggLbD+KTTac0+BQSfDocDE/hcNDwQeiud4jqcJvuvTbj96MtdL4OZeOXSUaACFDpiBINB2kawi3NS9m8Yq3WNw+FYwJpMFo7jtLMvTD6wbYALzr16cNCz7eU4wyDAhCzLOVmSeVmWeUWWeFlWeEVRZFmSBbiPY7iM4fAfTuI4ThMEQcH6wjCVwHGSpCiSxgicJAmCIgiSIinSRJJk3mGjDC7EUQC46f1IkI0JAAcInAE04KgIFwI/ked7E9FohyiKz5sY5qVtu3dXNCQVoHj/rN6CbSFeX/X6nHQy+gmz077SarcvoyjKq9cCjIcwD9WHHLpg50PHGGiRXs4BkxpNeMRC6x3C4Hm9v4ckSbwiy1lZlrOSIGQymUxaFCQOx/AMRZJREiPiGElEcAVPECQ1gGN4gsCUpKiosiqraQ38CEIBvCAUiH0lA1gAKlKYgsEnrWKqRVVUq4rJLhzD3QqueBUVCyiK6OEFkbE7bHaGZSFgjp1mGBvN0Jodid6BDYAWHQVgV4d/eq4MjQwyMkO+IKivANbwPNQDdAHARv9K955Vs4lY/GQ8MrCdJs2/Nzmte9vb28HS87K/LnuOYk3jmipezSzPZNOfrqqpXUGzTC2G45R+cuv9K0qZMSDHQC7hsBCQ4A1ZIqKJrn8fskRE74UFAn4PuWwulkmn+2VR7JMV5QyhYmFMxftJku4nKaZXEqQohmMxWZRzNE4LokWUpcEDvN1uF9ra2oAlKsbdlAgGgyTDMBSbYEneyTOUQLESIxEm1TQFUzCXrAhTJEmcKanyNJwgaiiWCtAM4zWZzW6zxWxC/QYaAzhCH6FfyKwbWV0isBhumQq00AMJOgYiLqHYMULcBc/noolI5HCGy7xO05bfmR3mE5e7q/tlCxR5ewhyXkqIf1LFlGuq6urmYxg2oiHEeJ3NYSKjnRBNdnR8QbsjnJ/hAlBBrHQ2m03JgphQFDme5XJnZF48SRPUW5SZPowTdI+UkxIsznJt+8rKMQq/LnidQ6CEAIuTAVlRalNcMqgQ2CwZU+otFovfbrc5GLPJOXjMOcdNXg8UaPEjDkwPuOjYVypHAdwKgBjQHmwwQv39Pel4fK/ZZP0tYaI7Ojo6wP7isrwuS6BoXd5aLcjcdRkh+398VVVBh9MZ4Hl+iBZ6YNAfOUoFDMQ+6308kA8D3ENCUoIgRC6ZjAyEBs4oonzaTJv2sLT5EE1TvRKBhe1CqufPXV2Zi3HGrlq1ym6RLNUYIdWmM9yVvMgvxSlits1pm2oym6tIirKjIxoCBcSBANDqj1v64wcs8lKFycCZ6I82UD+E84tGoydiAwMdZovlN2a7fd8bb7wxcDHSvpQ2X3ZA0RpsvTLNRz9nctpvcHs8c2VZNsFiBWk5ElAOBwS0s5Xqxg0TESY7AAKKK4GOGSBfiEWjA5Ig9mEydpQmyU6GYDtxWeomRGvkxQMvQkDaS+76SPAjlrQpXY8p2HQhl1lFmegrTFbzApwkakiKcuuPHSgyFnKiA9ppR7HBoD2lCpThXQA28AljhOqHv7lUKhINh/fjivKCxer+w7Zd29655AZjlA5dNkBxXfA6Z0JKfJBm8OsYi/lG1mSqQ4Y4MMGQ/n0kWo1k2lzMJIF3oMhOABQ8zyupZDKcS3HvqpLypsNqf5XEqZO8ovQwWSZ2qYLD+Wi3bt06MnI2MoVUydk5MdMoKuJi1sJcZbJYp9IM7UBBfBDnAPTUL+hSgRwdDQHQkceqHtRlScoK2dzpntOndlgdjp+6/f7O5557Lq8+ucSvywIorl157awsn1pH0NTHYLdiWZMVOAi4QCaAhGn6iTaS8VGpRw8k8c9wXCzLZc/KgvI2RVJvsGa2/bVtr3WBtq5IAeMlOU1vaLrBI2DCQp7PXiOp8gqX1zkLJ8hqgiRssJiHG1iNBvaFEAg2DsTxIbsL/SaBQEOV5VCot3cPLim/c7kcf3npMtCMXNJA0draasKy4uKMkP0Ma9PsImbrJe5I86D/DU0oFB8B/i4VIKAORZbFZDzRK2bFNxmCfs1kte7CJOztF7e/COfdYrQPhcz9S+KZdfPWMb2eXislUKtyQq5JVHMtdqfzCofL6UfHkJFCA4618yCfAKM6qAtUuIiDgfGH7yhuqbaxkGQ6k0q9FQ+FnzfbLL+41O0uLlmgaGpq8tCSel1GFD7v8nmWW61Wd6lnWKSvR6wp2mHQxIKJhJyR0HmaS6eTuUz2lJgT37GbnH9UKWqfp9p+qOKMNNZlnH9+3rx1TJUtfFUml7lekHNrTHbLFV6vp46iaS1tAYwJklvA38AlwJVMJjUOBGmT9FG24H4h6Q6QoRaM92CIQimTSp0UMrnfK7L4lwTP7zh8+HA+GvIldl2SQLGmec3cLJf8O8Zm+ZjH750vSZIJjhho0hQ7hjABwYQbrDTheyKRt/SFv5H2Ap2fE/F4LDIQOWKhzNucdvfzilnZGYlEhK6urnzopspVMgVaG1unKIrSkBEyH5YVsdFb5Z8J0cuBG0RAAC9BciEU0BcJrUdSVY/WKKSZgmeQ3QdsDJIk9IpcdnuG4160eb1/amtr6yu5c2VWwSUHFKuXrW7g+OS/2F2ONXancxpMGDRRSuUoYFKAO3kqldJkGz6fT9tZ4G+4YMeJR2MDoiAdpQn6LzRjed4XdR589vCzl+QuUy5zuenqpjqcwudjmLKWYIgbLHbbLIfDYQbTe7hAHoX8O+BvdEzRh9wrRLUK44vmEDIKQ1ymJIrpTDr9Np9Ov2y3+//11e2vHisX+oxHOy4ZoFi7aK2VY7gWUc59jrWaP+D1+fwoqjNwEuBiXKpUHAm2YOLBpAHuAi4Ai3QqFU8nuC4Wp/5EsJZ2MqtUnIvGY4aOoY7GxkaHSTY1xrnYTSabecXU6VPnCoKg+eoAwMN4odAAUC1a9MhM3Mh7FjVFry5HKQgGY3mIEi+c7j/d87LNYfle244db4+h+WX96CUBFKD6zGHJDyWz3OdnzZ3TgBOEDSYHMu0tVRqORhAmA8ge4LwLF0y+SDiczHHZoybG8hcWZ/+DVumzz3U8V8k3cWGnPdG8vPnaVDr5j2abeXltfd2MdDrN2mw2zUYC+ZrAIoc5gkzJC7HshM0GyUKQzwn6DUAItCY0QZ7pPXP2ZZoxP7mza+eeC0uK8Xn7RQ8Umq+GmP5oTuE/XVNfvwzkEShYCQwkSpqDnI9KIRsy7AEORRTFXHQgfASX8D/QFPsXC2859OeuP1+U1pKl0KScywaDQYsJN7WKIv/3Nrd9NUlT02HskKBZn/4ALfrR+gPPI2tRpG1BR06kQUOyKpoke3pOnnqdJOkfT5k9fdvFLry+qIHi2qZr63iJ+z9clltXN21akGVZEnZ7EC7CToG+w1EhHA5rv5dyDcY5kCID4dOEiu+2sY5fSoz0eltbm+Z9WbnKkwKNCxqrMBL7K1HO3WR3O5eaLOba4ZormCNGTmXoqILykUBv0XFl0IAO83q9WsyLWCyGOe32gUh/f5siyL9k3Y6X29ra8o48F+F10QLFmuY1MzOZ2JcUglhbW1+/QBCEoYxbejduJOlGnpuljFEymQzlktwOM2N7BpOwtrautnAp9VXKTi4FmpY2zZYF4bqszH/CV+ULuj0eO3IuQ6bbo7UIwEVvX4GAAhlnwbxDUc7gmAN1c+l0jM9k3silM7+j7dbfXay5Ri5KoACQ4LjY7bTZ9EFfVdVsZM9gpNXQOxshe36UZAcJPqEupEYFAajGpipq4uypU0cdZudvcJL8c9uOtktGSDW5S7U83ta4dPUiIZf8gtVpvcHhds2CHQZlJ0PZyoBDQMGSSz22ypKY4uKJrnQq8zuXxffrV3a9EikPShTeiosOKK5vbJmTFrmbGZv1I16fb6beCMpIaAkDjuIfIPUW+hyUWmv6cVB3wsQBdvTEseOnMVl91WF1/ZzBmIMv7HghWjh5K0+WKwVWLloZEBVxrYQL/1BVW9NAkIQHzQVkg4GEmyhCVqFakZH6DAGF5CzfFY/F/8PGuH5zsYHFRQUUa5tar+T49M0Crt5YU1c3C6mpYHEX4maMLChhIFGoNAAXBBLwO9TjcrmAZUyFevuPMbT9R1aV+c9KHMVyXfKltWt14+pFfIb7DGVlP+yvCszOZDI4MqgDjgJC58H8CoVCJcu4IP1hJpncy2f5X9kY939eTGBx0QDFX7VctzCSjNxlstuu9QUCU2DRQ1Jf+ITBBHWokXpLb96LzpfISg8BB9TXc+ZsryIoz1tNtp+FUv5dhysGU6WtxjIvnVev59ZyQvrLgdqqxQRBuIC7gPkEgkngMDweT8lR1jXNCI7n4pHIPj6VeYZx2X97scS2uCiA4sbVa+ZFUrF7HF7X9azJHEBSZySoRLEd0KI/37yEgUKOPTD4SD6BVGOCIMjhvv79NMb8miXMv39l9yuVAKtlvsjHs3mtja0ruFz6Uyqp3lBVUz1TURRNQI4sO0s12EPOZRRJZntPn96PS+ozNrP3ouAsyh4o4LiRyCVvoy3mj7g9nlpY3Mg1HBnQwN8oOvZoEwcJKlHgWpgA8H0wBH9S4HLtVtryfYlV2ysqz/FcghdPXauDq2sEQfhgTsn+Q1Vt1Qqny2WFOYJiVZTSExQgSYvqbjZnw/39B4GzcNstv3phx46yln2VNVBc33L9HI6L38wr4kdnzp4zHZyw4JgBnAHIEpAuXB++bLSBRBJtFMQVygPICDn+lJDl/8zi5n8VGfHNtrY2qZQJUSl78VPgAw0fWJ1MxW422S3X+qsDfhR0qJSeAUcC8w0sejVnMlHMxcORvZLA/z+3xfJsOYNF2QLFtSuvnZbionezVssHp06fPisSiWggAQImYOGQygqpNQfdfkcdRxgoOHsijkJVVSUSCh0kMeoZljb//lJz5CllUlfKYljLiparMon4Z1WW+ti0mdPnoGxjxdIGHT2Q+/ugBi5LKEr7QF/ff9t9vmfKlZMtS6C4ftX1tals7GaVxD9eU1c3F+WzMBogAAFk+wBHERSMFQVNBfsIsNYEkCEIIhsPR/bQJP1dW875fMX82oi6l+d9cBFIZ5N/m8ml/nHO/KuWiJLEIKMq2Lj03Gyx6lNFktKJaGxHJsX9B25mftNVhoGTyw4oVq++0Y/xyU+ImPgFp9u9CFRVMACFnBFh0EBuAYgNcgfEQcAU13v5yZIUS0UTr7Mgj6CknRezae3luXwnt9dNTTd48GxqdSjWd8vsK+c2UDRlQx7JIOdCqnkjg79R5WeimExFo6/zGf4Xvvrav5RbLM6yAoqmpiYzrRI3pTKpL02ZNm0VCnCKAoYYxQxAEYgAWABgIKwZDCKABmL3ErFYj5gVnrdY7E+9vPXlvZM75Spvu5gp0Bpc1RxJxe4K1FW3ujxuJ2xeIJisra3FBgYGSg6MxGez8ejAQBtNMI+XmyNZWQHFqmWr/lrFpa9YXY4Wj8fDguBHH3DEaJIBuoPAE44agPgwiAg0oOyZ7lNvEyrxO4fD9czLW19+y6i+yv0KBYZToGVZy5JIvH+Dtzpwrc1h9wMHC/Izp9M5lDG9WKppWhGGCXUfO/GSiWIfb9+7q7PYusa7XLkABf6BhpUrOCG70VsVuI4kSYveKw9FJDI6A6Jo2kimAeUG4w9Ikf7QYavJ9iPcRP57uQqMxntwK/VNDAVWL1k9L5YK315VX3OjyWKuA+4VHXVLeSNyUVdkuaev+/RzNofnu290vHG4lDrHq2xZAMXala0LklnuLrPT+mG3x+OF4wL8Q85ZyP7ByKAKWEFAeLCmg2MKuPyGw2Ghv6fnAEOwP/ewvmcqQWXGa+pc3vU0LmqckuZiG+we14d9VYHpaJMqhSogZAdrYy2VhKy8c+Zk9/N+r/uxl9vbT5VS73iUveBAsbahZUYsm7jT5nF91Gy1TkHggMLl54OXShrxjIRFKLMTch3mOC6biMX22hjrD81u2+9ffPHSzLY1HhOhUsfYKQCxOpNc4p9JFv/7uVddNdconoXRG0CmBkfnQVcEORoOv51JJJ7x2Gw/fWXXrgvqcXpBgQJs7NNS7POkhfmcLxCAJMFD5zwUXgzFM0RGUqMRG7gI8PzUDFp4PnOm+9Qep83zmEK7X2lv/1M+Am7lqlBgHCmwcsnKaal04tNOv/Mf3V7vnFKqhuOL2+3WjjFalDaGyZw6fmKvIko/2nP4zWdKqbvUshcMKCB9XP/xU2vSIn/v1BnTVmVzObIQpy7o8KAdxFBwWxQuH4BCy99AENxAf2ifnbU9WcXV/r4SBbvUaVIpPxoFIIIWl0nc6gi4/66mrnYWHH2RkyEKwgweycj+YrS6kMUxylqWSiaTUjb3P7wo/KBz3772CzUSFwwoWpY1LeFymftrptevJQhiSHg5GiGA+JqdvMWiER2OJ8A9gJEVMrRiWZY79vY7e21W55O0lYYcCxdt+LELNSkq7x07BVasaJ3OJyKft7ntn6iuq5sD8xHZWoDcLBqNaup6I44YWX8iQTwcowU+1xPrD//GYjX/aNuuXRckOfIFAYrrgqumJnhuo9XrXOd0uXwodJ1R6j6U1g0GAbgHGAAADlChajEkUqnsyeMnDlR7qx/lCekvO3bsyI59yCslKhQojgJwDBHE3KdoG/PPPr9/ql6mVkjwXiSXQ1o7lFoA5n0k1H9E4oT/tPhcP7oQCYYmHShaW1spLpz6ssll/mJVdfVVsMhRslkjN14QFjkcDi1wKXASWsKdeFw710miKJ4+cWovS7E/sPkcf3j55ZfzabwqV4UCk0iBlcFrZyUSvXe4qzw3OZzOahDCwxyFjczIVwS4ZHh+MIizJrxHyZhlSZKSsdh+Psn9MCHx/z7ZqQsnHShWBVc1Z4X05ikzpq3JZrMksGMo1LmRVgO5mKM4EnAWBHt7q9XKH9y3/x2r2f7jAB74ecVvYxJXRuVV51CgJdiyMJGO3lo7Y8pfUzTtB5kaShsxGrlgHegzkCGZBso/wudy3EBvb5uZNn/rjc6dkyqvmFSgWNOwZm6cj23yVfs/RtO0C5lmo4AyhQAFyvoEIIFUpsffPXbUQpl/Znc4f/3q9le7K3O3QoELTYHmpc3BrJjeaHZYb/T5/VYjGyBo7/BQjcAxo1CNQzILURwI9/X/ye0KfOelrS+9O1n9nDSgWNOwxpvm4192Bryfo2hqOnQczF4h3wawV0byCSAIEA1ldkLhyc6cPtMXG4j8weWveWTbtkpEqsmaOJX3GFOgYXHDh3BCucXitF/n8XiIQrQeKCkRzHPkyIh+GwIOUTwaD0V+QNktv9i2bVvMuCWlPzFpQNG8fMV1GEXcZ3c5W2RZxkEQCapMODqgGBFG3UGOXchWIhqJxuMDsb84nP7Htu6oOHgZ0a9yf3IpEAwGaUIg/o4yE+u9Af8io80QHcGhlSjMI7Ij0pcVBUHoO3O23WFxbNm6e/vWyejVpADFmuXNM2O51L2B2uq/pRnGeb6OoZR9cF/v16EnEjKVTafT2Uj/wDaPx/eASqodlahUkzFdKu8YKwUgnkWCi3ze7LB+3ulxz4TyaD6DcF7T1nGc9psRkKDsd1AmmUjEek+e/oPfX/vAZBy3JxwoIMM0Lkj/1+J03Gq122YZCXNGu4+yOYmiqEQGIvtZkv3mGx1v/NdYB6/yfIUCk0mBloaWGVw6fpuryvdJu9PhQ85fMJ8BJFDEbyMZHZSD4zp4q2oC0kzm3dRA5FHCZvn3iTYFmHCgWLlkZYuECff7a6uu0UIaj3Lp09DrkRcVQXk8cpnc8WQ8/VNfted75RbgYzInYOVdFw8FWppaFnLp5P12r+vDHo/HhLQgsPjBMAvkb0YcBTqaoCx3OI7lTh87/prT7X9g285tHRNJjQkFipblLfXpXHzzlOnTbpIVxWtkJ4EMTvQggY4g6B6X5sKpWOo3drP9W6/uePXsRBKnUneFAuNJgZXBlWvjifD9c+Zf1aSqKgFHDxRoFwDDaH0AFwHCf/CKBsGodgwniP7TJ07+0eHzPrh169bT49lefV0TChTL5y3+jMXruNvhcs4rtgN6oFBkORnqGXjN5fY/9MrrzwWeK9UAACAASURBVO8uts5KuQoFLhQFls5f/AXKQm+oraubhWRyINSHI4VRSkw4omgm3YKgmYMjlWs4FDok5XJf371/PxzDlYno24QBRXND81xJ4b9VVVf7V8lk0gTIaRR4Ri/EPOdZFZN7z/TstppsW97Y9cYLE0GMSp0VCkw0BRob11Rl4v0PuAPuT3h9PhcsdlD1F5IIGZmBI40IiuJmtVqSxw6/9ZzLXfXA1p1bJyRy24QARWtrqykbS91WNbX2K4qq1gEhoFOFAoX+OZQVLBFPnOSS3I991b6KXGKiZ3Ol/gmlAOQMyfCpe91VvrUWiwUHzgLWiJGMAhoFXAdwE8jpDEADtCGxSOQ4F08+Qtssv2pvbx/3kAoTAhSrgyuWYizxsNlmWwOdgI6B8MaIEIgVGx4GT+CF8OmTp15zO6u/tnVnJdblhM7iSuWTQoFlC5Z9mmDU+/011bPR4jey3oRNE9YT8h2BIwjyHyFJku/p7n7N6XTe99q2bV3j3YlxB4qmpiaPmOA2Vk2f8lkVw3xjDTyDwt4hD1FZksQTx052BHyB9a9vf33HeBOgUl+FAheCAhBxPhvPPOTyuz7j9nrciKNAmj/4hLUDbgoopoVR2sxsJtMb6en5pc3ne2y8kx+PO1CsXtbUwCvCY4HammZ9mH29MdX5BkbPcSBP0TOnzhxXeOUxjPU809HxXPJCDCp6JxypMAwzCYLA4DhOkSRJgpWpqqo4RVGjqn6H2q2LjqEwCq4oilZWlklClrO8ojDamKiqMmxseExR6MHf+PeRQfvr/T9p93FcUPMPwmTjVYIgVHgf/ALfBZJUWEXR2o/eSxCoTPGUxnF88L3n1kFRFJlvA4sRhKjCs/n3o75hGMtqBndaO9HvQA+GObc+6Af8KoqEiuOECu3X+ibAd/iNh36qlEgpkqTIJpMsZzKsgGGxTFdXl1h8L0svCXK8cCT0o4VLr25JJBIk8hxF0d2QLCI/lsYGWZD5LnT2bDtLmTa/sXvH66W38L0axhUoGhoavFI6t9FbG/gsQZJe6DhwCICERsYk+UmhaCoilOcxw2Ui8XDsjy67+5sXKt0fZC1LK+npEi/NEHPcPBUnnaqi2DACM5E4SRMkTgBgwEjq1Vv44ETXFj1BjEpnHFdxVcHgeCZCOZjxMDVgfkDx8wy4rk4VHtL+xhVMVUDwnV+AWln4TaNvvlEqpmhPyDhBKISq4gRFUbAwWXBx1qE1Wqzo/VDl8LZoInb1XGBQFWXoWQQcitYiVQMmXFHg/9oz2nsUjFCACFqD8/TCsTxYaF9hoQz28b3f8iCBYQoQDaBVxRVVhYJatRj8qioKpsqYqso4TgiCLEqyLOdIggizDPOW1eR4S8DYM7t2vXJBYlI2Lm38lILLD9TVT5kJXAUyKkTgAGsBhhFkfEZHEy1RVi4bDp3u/XW1p/6BF3a8MG6Jj8cVKJqWNH0gK3IPzZ135Srw7kTHDpTezyiBDzLP1j5JUjz+7vEdPpf//td2vDau6FgI0q5pXjMzzSVWyYrUbHc55wqiMMVmt7kInGRxgqABHAYNyIj8jqgUJKwd7d1G9DGS8Rj1C5VHhmvaqsVxAGdNoFaI05LRO4zu69qAcAzmiTYPS+n/UGX5BugBTdWgSMVUSZKgvzJBEKIsSTk+m01kc7luQRC6MJXoYi3sru3bt0+q93EwGLTwaf6puul16xiGsQEpUJBeAAf4G9lYGCkDBjPlKWdPdu9gCHr91t07thuNR6H3xw0ompqa6sR0ZpO3tvpTVqvViSYdYpkKzQaNdMWxSLRbyspPmJymn0xmHo5Vq1bZsQzfHE8nP+32+xd6fd4pkiy79ItU/x1FI0IWdoUSfqTnjHaMUup+jyvIDzkCC/Q70i6NxzvOVwc6dyOXaX2bkOR/It+vByJoC+zgefZejmOY2ptNZ16RRPWPrJXtmiyvTOjvqsbW5li8/+GZc2Y1IY9RWC8oJSa0tZD1g9JV5DKZUN/ps79wWwMPvzJOnNK4AUVDsOFDJpZ+sHpK3WKwHoO4liChhQ7Cv0L0xMhENZvJpENnQ20+n3/DK2+8MmkJUCCDOpdJrcMp/G+qp9TOU1XVBYAHkxgJkvQLDHFMKNhIqTtyqRyD0SJDC3U40CE212jHMqrf6P5IZsrI4hbaZMRRGNVvdB+9H94D44l2a3QszuWysXg4ckiSpOdtLtevt27desKozvG6v3T+0ttMDvZup8tViwSYyMwb2lqoifdgX5REJNaGicq97Xs6do5HG8cFKFatWlXLJ9Nf89fVfNJqs9kgVB0ABepgoUCBBiw6EDmMS+q3tu+58dcYtmVCLM2GE29t09orQ6n+9XZIZ+j1zJAkCY4UQ2H6wC0enRdhF0L/oB6UyczIBLdUICh1IaPyqB0jAcZok6rU9iP6jNSPQvpWyDOjtR9tXMM5NwT4UJaiKCURi52KhMMv2MzOJ9t3tx8aj4VmVIfmOJZNfsdT7b+Jpmkt8huE7YcLvqO5N1o9+kBQJKb29nT3/DRgq31sPJJejQtQrF7etEbC5UdcXu8SFEpf708/fIKer7Pa+SyXS4fO9P7Jag1s3rZ7cgLRXLPqmiviiciW2qn1rdlcthrMaaEtKLI3AgU0oc4ngTYS2Ja60EpdKEhQpne+gzYNP4aMNj5GE97o/nCOTP9+I6Attf/oyKUHd9QexF2ggLaJeLw3GY3/D2uzPLF9+/Y3jfo1HveXL17+GZvDsolimbkQGxY4ChgrZIdkxHGhGJvQF47j5Gwy+RopEbe3dZbe/pKBYuXKlYFcIn1PVX3tZymadhjtSPqzqH4nRoYjfWd7dttM1i1VU2tfePbZZ+XxGIDR6mhtbJ2SysY3OTzum2x2W/VEv69Sf/lSAAE5LFBYnOl0sjfcP/Anq8PxyPbt249NdMtBsClnxZ/WTKv7uCzLDAr1CEJNWB9GnBjcR7lxoA+SwJ9JDcQeMXmcPytVzlcyUKxesXoVL2a+7fJ6m1E6wNEIijoLxxLEdSABZiad7knHk79kbL4n29tf6pnogYGI4Nk4dzNjYW92ed0lZXma6LZW6p94CiDtAtIAwUJNxONHE9H4D61O+88nQ8B57aprb8Qo+XGnxzMXwAFp0+BzpARZevBASYOQYF3geT7WH3rOYjFveGXbtpLygZQEFICAqijf7Qv4vmi126uNvN8QNwEggeQXyHZCURS59/TZ15wW232vTbBvPZpyqxpWrc5kU9+onVrfQpIk6PcnfjZW3lC2FEDqeRQuHxamJEnyoX372qqqq7+2s7NzwiNfQ0SsJJ941Fft+zvWZGKQwxgQbaT1pZ+zsKaQ+znI1EALkuO4Y5lEesvaPR/69ZYS5H0lAcXqxtXzMrnUw96qwA12u50ykvoD5wCN12sQEDfBpVI9XCL1E4vL8VipbFIhMxFiZaSy8Qdrp9V/zG63OyAOp9EZuZB6K89cvBRAZ3yYo3D0QPYMiiwP9JzsfsbkdHyno6Ojf6J72LJi1U2iKj1UU1d3Jbigg+c1tGUkGYUeKABU0HEFbco0RSUHzvT83mox3V9KVvRSgAIPzl/8JUfAfRfDMDMKiaStFxhBxwGxtXBgaU6K9Pe3exyejS+3t42LOsdoMFc2rPyQ2Wp6mDGx8yDALwCFUe5Tozor9y9uCgBHgZJRARsPGx/s4nV1dWr71jc63Dbr1zr2739xonsJfiBKVnzEWxv4nKqq5kHOZsSNTA8U0H4AOAA8tGnD5peOx9/MJtIbOg7u+99i2140UDQ3N89MRePfmjF39kcxDGML0fMiPT4MBnQEBgN+G+jrPyFwuV9466oee/HFF7liOzOWcldftfDb9TOnfkFWFA8yADKSKo+l/sqzFx8FkDYIdmXQeMHmhwSbyUQi1Hu65+dvHT2ycTJ61trU/EEJU75XVVtzJXAKwIWPlGlMDxRIG4dkLQAwYCFNEUTk7PGTz9gDvoeKdRYrGigaFy/7KGWmH3J7vfP1/hmjEXE4UAD6cem0GOkLPWezu77R1t7WORmD0LiocUpWSH/fX1f9UbfbTUKAUyPPvMloV+UdF5YCMI9hkQFQAEAggTuAht1qzb196O0XnD73bTt37jw50S1tbm52ixnhUV+1/9OSLNHQtpHm6HCgQLIM2PSAU9bmNklKA309baRMrd/auWNvMW0vCigWLVpkxUT5oSkzpn0awzAPvBjQy8gEGenM4XngKMAoK9QX6ssmUj92BDwPTlbI/ebG5qAg5X7sr64KojSF0BYjYWwxBK6UuXgogLw20dwEgyeYF7CTw79Qb/8Op9l6R1tH+6Qcj1c3rvw4TpPfDFRXzTlfPJfhAnjEDUF733cMUZTuvlNnflg7c/rjxQSkLgoomoJNVyqE9HigunotuFkjPa+RQREMBHQYySYAqSP9oR1Oq2PDK+2vvzFZU6ppccPHrF7Ho6yJnYXMxo3aPlltq7ynfCkQi8beFlO5zR0HOiclRQRwFXwq811Ptf9TDMOAh+95gz+Ndi/PZYhcPBT5I8tQX2vbsePoWKlcFFAE5y/+pMVlfcDl8WjReeBC/g6jNQCdoQDt4PyX5TL9Az09z/pddd94cfuLobE2vtjnwQLO6XU8yJpMdVDH+Swti62/Uu7SpEAyHu/OJjIP7jrQ9bOJCmI7nHKrG1f+rUpiD7s8nvclDxr+nBFQwPOx8MBBmRfu3rFnz5hjzo4ZKFYFV02NxQceqJs57RNWq9U8UlTg800TFBwUCWf6zvZ00Di5ub2z46XJmlrr1q0jT7x97It2j/N+i80SqIDEZFH+4n9PKpnsTUdTj9A29kcTnXAHUaulpaU+k0g9XTWl9sMQDqAUKmY5LhLt7fuZz+169MXt28e0MY/5xY3BxmaOSz4yffasFcAVAJLBmQ7ORiNJZfUdg2eRrprjuETodM9f/M6aW8bLFbYQIs6bN48xE8wtDr97o9Vq9aIjRyGIXEj9lWcuXQpw6fRAMhJ7nLVbn5yIALYjUQ42tu53jt9q9zjvttisQy4GhfpP6eskSVI8dezYK1aLZcMbHR0HxjJSYwaKq69auMHpd3/V5XLVIS0GfOoj85yvAUiqDALE3p6eo4ogfG/3vn0/GEuDS3129uzZrN1svc3t86y32mweAApkJlsxuCqVupd2+Vw2G44PRL5PmJgnOjo6Ji0soyZ8FzNPVNXVrQQKDxdgFipfg4093N93NBNPf6Pz0IFfjmW0xgQUEJwmGU18f/YVs2/EcNyCbCcQABSy0AbzLQrhvv5tPq9nw0ttk6MSRUTJA4X9Nm+Vd4PFYnEj70Ek1BwL8SrPXl4UAKBIhOOP4yz55GQCBcRqTYSi36mZVvdPJEVZRgIKvUbxfKOizXVFjp09ceo/A27nlrEcP8YEFM3BFY05Wfj+lOlTG/Wh35AdhRFQIPY+1Nd3EhOUX5rd9ifb2trCkznd9EBhtVrd0I+RArpMZpsq77o4KABHDy6S/F4WE584cODApBgGIso0NzT8DcmyjzhcLk1Tpz96IDmbka+S5lhG01Lf2dNbWZq9tW0M7vNjAoolVyy6xVcf2KBiWC2oOIGVQYuskFBd0CF4LtzTt81ismxu27mtbbKnSOv0VlPKnrjNXeVdDxxF5dgx2SNw8b4vlUwOcPH0dxUKe6KrqysfVWaSrpUrV07LJFM/qZ8xfW2xQAHlgKNPJ+PH05HYvR0HDvxnoc0vGCgg7kRqIPrd+jkz15EkOULgdONXDprIpk8dPf5cwFX71Vc6XplwB5sRWoUvXbD4Hn9d1Z0URblRTAwEeMa9qDxxuVKAS6dD6Wj8uzlVfmqyOQqg+ZKFV2+uqq2+hWFZH/yt36QLCTUJmzQoHVLJRDTeF/qhze97tK2tLV7IeBYMFM0NzVcLEv+DqrpqTaBSzAVoFotGz2ZjySdIm/nJyVIxDWsrAoo7KIrS/DyQQLNQoVAxfa+UufgpoAFFLPFYTpGevhBAsWL5iuswVXnMVx1YhGyRYE0hwDA6eiCfJohTkQyH/2w2a3EqjhcyMgUDxdIFSz/l8Ni/bnc6ZhRS8UjPwFHl2NtHdvncrrteaW+fNEvM4UCxeMHiTVV5jqICFMUO5mVYDgGFTOJPTfbRA8gdDAadfCrz5LQ5Mz+hKAqDjv6jxSLVDxNycoMNMZ1I7JFS2bva93e9VshQFgQUIAC00OZv19TXfJZhWWchFY/0jCSKqTPHTzzvrq66c+vWraeLrafUcoNAcVcFKEql5OVVfhAoHpVJ/OkLARQaWMxf/GVvje9ek8VSCwAB4RpQWH8jjkIfOEoWhTP9p85+PzCt/slCfD8KAoqVwZWzcnLmybr6+htLmRqh3r53pEzux12HD363lHpKLbtk4ZKNgRr/XRRNeytHj1KpefmUB6DgIslHCCvz9AU6NmPXrGhuzMr8D3xVVUtBLoFyk6B5PNpo6OVwBI6nerq7/+BhXfe+uNt40y4IKJoWLV+jsvjj/uqqBaVMi1PvHnvVYXNueqNzx65S6im17NL5i9f76wLrK0BRKiUvr/Iclw5x4QsLFK3BVl8o1f909ZSam5xOJ4W4ikLtgFAsGDB6hGBRqqJ8Zfvu3fuMRrIgoFh8xfz1ntrA3VabTZO2FnOJosj1nTr1rNXtvre9vX3CA+eO1sbFCxbfXVVXtZ6iKF+FoyhmNC/PMhmOC6XDiUfMHvtTbW1tunTTk0oPYslVC++1+Vy3ut1uL4qTWYggHqWbgOMKyCuSsdixdDh6X+dbhwzVpIZAEQy2+sTUwGNT5874exzHi1KLAhkz6XR/uLf3x/vffvtrk0rWEV62ZMGSOwN1gY3jCRSyJGUFQYgrssyrsiwPJuAFy5h8tt78AVIXvVdHesi+C5mJSYIkcMgpjOUtaiCJb75EIVF/dRWi5L75zL7nXMjyDQx3MDDWk0XtC44RWN6TGbIHQ6ugvFYDDql/83UN1pjPFzpS7fnfoMLBdg/lFwYaQNWQlRjHCJKkB1s4LFfoKDNEo+J7CZB1dM67AUPacxynKZq2QvoIgiTZ8ZpvGlBEE4+YXRcUKLCGpQ1/w5rpbzlcriuQXKKQeDDa4A3mMtWiXyWToejZvqcxq+lRI5mLIVCsWr5qPs9nn66qr/mAkeUlagQ0HmVfBu9SiLRz8tixNylZvm/7vn1/HK+BK7aeJQuvviNQU7WRomn/WDgKFNBkMMGKhsqJeDzEJZNv4hhx0G6zd+IklaIJXIAM3vBPIVQFkyB1uKwScj57t4RJGD74HT03mOiYUTFVW6fwPDyDPvV9VcmhLN/5TODastSiiOfHE9J4D34n38sInl/uUD9NKJiMURih4oqkQkL2tKLZ4WMUTiikCn+oCqF9DNWTBwiUmX1YpnO4B5maYZWquAJYJ2OK9j4M0AfHqfzv8KkqhEySqqxIqhOncIVQCS1/i5aQPJ+JXLtIMt8vcvBvKIvu4TKkKIdM7YoqY4DLuCqLCknSDE+oCiMJUl2Wzy4gWDpod7sWUTRtKWTXHW1OZTOZUDISe9TicoBF8YXiKLCVK1fO4hLJH06bNfN6FCwKeWaP1n5kBqDRGjBbVVMDp88+azI5t2w1kFMYA8WyVdfjjPqUy+OZa0RovYMVsETQ+MF0gurxI++84Xc5b3915849xS7w8Sq3dP7i2/x1gXvGChTwfgALFGYsEYsPJCPh/7DY7f+N53KH4rKc7OrqEott55YtW4gtW7agxVAIFzHWVw2Nd2trq7b+UqkUPkKb0XPa57p167TPgYGB884Xv9+vwn34fPbZZ/Xc03n7ceONN2q7fSgUUux2u9ra2qqMV/+DwSDtxtwW0iQuTfHZWzzVgQ/iOG4aK8H0z5cLUEAi7Uws8dDU2TP/SVYU81hyk6IoXnnuApMjPX2vMjhzh1E2MUOgCC4K3uXyOe+yWK1VhRIZCVaQqSmfyyV7uk//jyvgu/tCyyegD8EFS27x1frvGytQIIMVOOMBx3T6RPdLbptlizeR6Hz28GGhUPpUnps8Cqybt46JOnuvTWa5b1fXT7m6lDcDUHCRxKOutP+J544+x5dSV6llGxYt+by7yvcNimFq0KZsVCdwH8AFwyfa9GPh8CEhk7lz1/79owazGRUoIDYmLqlPTZlevw4nCKsRR4HCnaMjMGLrI6GB48lI9CdVLP3Ui5PsTDMS8ZYsWPLVQK1/81iBArgjiEMIXEUum83E+kI/omyWBybTk9BoMlTun0sBLfx9OveUf1rdZ3AcJ4qlEQBFKpJ8JCVwTxy+wBvDyuXLWzCSfNrt9WqayELAAuYvCluJLDozqVRPpLf/sf3vvP34aFG7RgWKVUtW1Sb4+M9mz52zVhAE3CicPcq0hDgJZAhy6vjxnRSO39+xb9+kRbIabTIUCxTobAd0yOVy4dhA5IFdezqfKnbiVcpNDgUgdSSW4jaa/V6QS1mLfasGFNH4wxKhOYUVfcQs9v36ciCnyCaST0+dPesGFDjKKDg04iiQA6eWfFsUE2eOd//KZfbft+3gttj52jYqUFyz/Jr5KTn5y/ppU5eeL1ORvmLknaZ33QawOPn2O/9j8bjW79y5863xIFKJdRDBBUtu9hXBUSBVFLBvfC43EA2F7+vY0/mTEttTKT4JFLi+sflmwml5qBTL4mwm05+OJb5jcthAmJkPFnuBrsbGRkc2nv5W/axpn1UGkwShvCTnaxLi9FGgqTxgEMLZk6eed1gtt7aNkoZgVKBoXtbcqtDKT/0BvxZEtxCtB9p1UaMVWeZOvnv0116LecO2gwfPi1iTRW8QcmG8/GVfXdV9Y1WPosQqWjYpUYwP9IUe3bWn81uTFWh1smh0Cb4HX3H1kse9dTVfJIr0fAaaAFBwscS3d+zpfOJCjzmEyDt2+N0vOv2uzXaHowrNzdHGDmkl4VO/6UX6+3dhvPLP2/bu2l8UR7H86uWfsrosj0JDxjJ59DbnoiiGu48ceertkycfGEsdE/UsAIWak77iq63aRDNjU48iYeYgaEpnTp7+H5pk7tu9f/ehiWpvpd7SKdASbFqYEbNP1UyrbymlNgCKTDz5ze1du58s0LallNcZll22cNmNtIV6tH7a1HmQ6MdoI4f7cExBScIhdQZwx1wqeSw9EP9Sx5vnFw2MylEsnbf4nupptRtJirQXGmoLqWpQFuZkPH4sGYpu3Hvk0KTkQjCkLoZhyxYu/Yor4N5sMpsDSF1kJKiFevW28lr08VzudCrB/ZtKqv+1e/fuw+UweQrp/+X0TOvy5dWiQnyJtDBfdrpcRVsWA834XC6UCEfLQkYB7QEbp0wm/f2aaXVrYN0ZOYWhOQxzHs17jRPBsL7+7u77dx869NMxcxRwBhLTuYeqp9X9C6lZ0IHR2+iqfb2MAgk2Q319HRLH3dl56NCEp4wvdAEEFyy+1RXw3mO2jA0okAksitSlJbEVxW5Fkl+QFbWdZumdlEwpKqPKtEzjmAnDcjkMo2lZkSRJs18SBEFVFAWHxElgtCRJFMGoCi7gAiWKYgx+h36QJKkRG/42m83ab5IkDUnsTYrpHJDPEcTgAL0XfAneiehCCRQJJlE5nFAJIqf9rigmnGVlhlZoRmVUSRQJsBFVCUJQoSzO4ypYFsHf8Ly+PlQv+g21TzPXUpSh9sF3RWFxihIVDMNoWaYIkpQULIuJnIKJIF3kKYLCsKxgVsw4ZtVAGc/XYcFMpnxdRI5QMct7o4xoRGZJFb7nqBxLEEQsm80SpET6aQqfyvPZjxAm5q89Pt+sQjaD0eYQAEUyEvt2OcgooJ0QwzY1EPvOtCtmfZIkNYO7UZfAcCUDsnPCVDUROnn6ERvu+37b4bb0SJWcl6OA/B1Zgft+dX3tx4y0HahiJCyBvxFodL/77h+sFLWx/cCBI4Uu5Il+btn8pbc7qlybLBaLZplZaHQr9BygN2LjQMirGRViWJgXhF5MVQV8cHGq+ZGDxaHAhWPYkO3x+wVPmsW2KstKDj40M0dYk1rFmj4P7KVxBcfziR2QBaZmcf2elaZ2E8ffmy5Q6eDsyZtM50FDs4YClMpfNCxeRVEoktRwSDO8xgfNxgdNpLXntXEZaTYOrkACBW/MmwpDFVqLdOMJBu2aeSWO4zKGKaKqYIICbVFVXFY0c0H98OOYkv9BzVtsAqHy1uZQAv4Akg7af0K1siiLOKkSFEnZGBNbRTP0VIqmbRDZyUjYZzTvhFwuFB+IfnPqnJlPPfvss5o16YW84BgtJNIPT5k94ws0w1gLAQqgAcxdxIHAMRrcDkJnzvzEzrJfb+vqGjGG7XmBYuWylQtkTPpXb8DXiHS0hSCy3otNFsX0qePHf2Wh6a91vPnmhQh7N+I4BuctucNZ7d44VqCAvunBQm8SqxcUnY9ORgM50ZNO//7hbdGt8aKbUcj80G8qw7+PpfxIjQT/BcgXCvXoQ8PB3+hsXnTnwCo3f/R4aOferrKQUUBfFs1ZcJd/SuBuszWfzMro0icKh2eB84e5EO7p+S+KIO5s7+o6NSaOYvmS5deZrOwTTpfrKk3KX4DWA204SKjCpVK9odNnf4RbTI9diNBh5yNacN6SO13V7vVmi2VMMgoQ/AAdEHHRwKAz33A9NrqPFqXRQBoJo4wmgdH94dHGESuKQKJUIDMqj96DjrEosLH+d6M+jHYf6Af5bAEkUPJpmLtgZKTtnAowd8VfAp8LRfuiD+0+0AVaj7K4ls1f8vdml/VBp9tleLTSu1jo41fAuMXC4Tcknv+XnXv2jGjCcF4IWrxw8Wc8HucDVodjKlRaDFBE+vsPc4nEI/vefvsXZUHVwUYUCxT6hY64C/3iGJ4ESQ8U6Cg2Gh0KyQY/WnmjhYomx3AAG2mXn4jxQtwmej9auAgojAyGjNoEgABAAeMA/0Cgjr4jADGqY7T7ABSx/vCDu/bvBY6iLK6W5StbZBJ/0u1zLzLaiBBAaCPnkAAAIABJREFU6zcuRPt0InEo2h/58t63Dm4dE0ex8Ir5m6vra74CmgGEREYNGd6AvlOnOnBJur/jzTdfLAuqlggUCCyHJ2RGOzPiqFBfEYeg3zmNdsSJpNNwIBorx2PUNqP5oedo9CKP8eIokLoPzOzhAnBAXpVokRj14WIDimuuuWZ+Js39qy/gX1EIRzp880K0z3Lpk33dZ+87ePTIr8YEFFfOufKJaTOm/iNF005kPzCWiQDPnjl58jWKJNfv2ru3s5QBGu+yxXIU+naMtPgRnZBQVz8oyBquFI7AiP5GHAWy7x9pR9GD3XjT+3z1GbV3rO1AoeFAHgFjAUdFJF8D7qKQhWQAFP2x/siDu/bvKRuz/Rtab5jdN9DzdE193fU0TY8qpNBzdIgjRv3NZTL9PSe6Hz184tijBQPFFVesshPKwJMzZs/6OElRVthJUULi0QipdzqB508eOfKc1Wq9vb2zs2w0HtD+4Lyr73DX+DaM1Y4CWNtwOIz5/X5tt0JJme12O/h+vG8iooWnB41SF7rRwiq0fhQODT5h8SBvWKP6x7pwhz+PJuqgr4zmYAd0Q+0Y69FreH+hHzAWYHwE92C8NBW2JGE2m037Xsol8Ln+SG/kwc6D5QMUra2t1dGB8OO1U+puohkGNFhFXSLPR0+/e+IH85Yt3jKSRmdEBGq4ssHLSYmnp82dBapRdjCmhKEwCLF5g04n0sl33vmjy26/fevu3Rcs4vZIVCsWKNDRAiY0EpDBZE8mk+BNyptMpgyo/VRVBaXekEYRB71hXl84FDUKV1WwehlSH4LhwZAuM69d1KsWh4+TsXj7/R3XBdnK22jAGFEEpRCUBhQUTdPvvT6vd8zrIodduKapzV+D30Zqi+63fAwrULxq2k8MA3KoOV7AzWaTmON5TSlLkCTqc8ET/T2gyEfiokgKVKYkz/OK1WqlJEkCta8GErFYTBuzUq5BoPhG58E9T5dSz3iWXbNmjTfSN/DtmvraT0JwnmLrhgj53UeO/Txgpu9tO3z4HFuKESfc8gXL63Mi91T9zGkfIimKRF5nhUiNYfAG/d1z3UeO/LfLZrv9jb17B4rtwESUWzLv6ju81b71Jou5aix2FNAvi8WiAQN8wg6lKkoqGUscEQV+p8jLJ3ES40mcklGkJjCGILC8+YMWeSpvAkDgKg4rg8TgnyzjoggGRrKkqiqhqhhAC4ljKqEMlskXV4cMrsBwCn4bqjtvsPH+hT0YLUqLbKcoEH5OlTEVp3BCAvk/QRI8RK8RJNmC4ZhC4ZQEYarykbAwTIEGnMMWEBAw79xLr1DA3wtVl39QdxMAEozHZJWicSItqQqsbgJXFUrBcTAvBGIBtOAqgeV9wt+zG8E14xINbjAwCMBIaCtYGkJ/KAoT+JzVxFrigih4ZUye63A75pAMPcPlctFGHIvRXBNyuf5of/Truw90/cDo2cm639raaktFEg8E6qr+CUL/FfteWZay3e+e+I3HZl4/0nodESiWLVp1hYJlflA9peZadK4txN89v8vgGuchSxJ3+ujR37JO5+1dXV2JYjswEeVKAQp0BAM2OpfJRAd6ev+XoU0/J63sEZZl+8fgVYivW7eOOH78OBFIBLTprwuGgsYFnnnfGA2PMgURqs5HI4gapb/X1tamtLa2ErpPzQMS8rY4nU4lkUgQDMOoZrNZhbL+Nr/6LKZFqxq61mHr8OG/jfD+4ZwIjsoFg0Eym83imUyGOHnypGb0CW0KhULE/MPzNSOmgdYBHPULnkX1Q6iDORiGdTPMUP3QVrgP7eV5noYw+vPmzWMCWIBRCMUtYNmVGKV8wupxrrVATMYSLoHn+2L9Aw/s2r/3RyVUM65FwYU+HU3e66323cqwrLvYyhVFEXuOd//ZbjPfNtIJYMRJtnLxysUSKfzI7fM2goAInS2NzrD683gum02ePXHiV6TFcnc52VAAIUsBCig/mKFJifWGnpMl/pusy7VrDABR7FhWyhVBAVhIfDj5QYnC7q6uryvJKYzn+b5of3hL5/49Py6iKRNWZNnCZesdPvtdVpvNX+xL4LgcOt3zIoNRt27bv+ud4fWMCBRNS5o+gDPY43aXYzGc6/SGOaM1BJmHwjPZbDY20N39U05V7z969OgFDRs2vM3L5l99u7PKt8E8xqMH1ANHFRDAUQQZ7us+/Zgd8z51Pvv4YgetUm58KQAcBisR36ydPfVmgiSLjpvJ53K9sb7I13Yf3HNe56nxbXlhtTVcHfyqyWHZ5HS5agorMfJTkf7+rYSI3TKSu/nIwszFDR8y25jvmKzW+chGXg8C52sMemaQLR+I9fV91x4IQMbkCxrkY3h7QZjpqvatHytQIAtMAAoxlzsRD0XWdx46UDZesaVMkku97Ir5i7/grK36JmNiivYg5XO5nmgovLlz/96flRO9GhY3/JPJzm52ulxTS2lXPBzZJWfFr2zft3t3QRxF46LGj1vdpm/SJtMcBBQoHqYRR4FkFALP9yZD4W/uOri/bHTOqO3FAgXirIDLCvX3vy1lhK/u3Lv75VIGp1J2ciiwdkXzRxQL+0Oz1VJX7Bv5XPZsrC963+6De8rK0rhxaeOnzDZTSQnEgSaJaHSflMx8efvBvTsKAoqGhcFPWtzWB+1O5ww9l1CInh5pEbhU6mw2mnhg58F9ZcWmAQGC8xbd5aryaY40Y9F6QP9BVw8aj0w63R3pD2/qPLD3P4qdeJVyk0eBDwQbv2zyuh5iWMZV7FtzmczZxED0nl0H9v6y2DomolxzU/OHJVn8nr8qMLuU+tPJ5CE+mgSgOMeMe+Sjx6Jl/6gBhcNRjywKC3HFRkJPeJZLpU5l4vEtHfv3/7yUxk9E2aVXLb7bXe25qxigQCHHUslkov9sz89xht58eAS980S0u1JncRRoXtjszsjxn9bNmvG3xdWQL5XLZM7Ew7FNu/fveaaUesa77KoVq26UFelxf1Vgbil1c8nk2+lY6uZdB/a8WhBHsWzBss/bfbZv2B2OGj1HUUgjkB1FJp0+yadSm7fvKS+iQh+WXbV4vbPGc+dYvUcR9wE0oWla6T5+fIeJYh8UcOWVCx2VuZCxuVyfuW5Fy008IT3s8npnlUKDbCZzOhmKb9x1sOvXpdQz3mVXNrasVTHxCV/Ad0UpdWeSyXfSkfhXO97cf45v1ogcRXBB8IsOr+0Bu9MZQCpPaICRehQdTWDXzabTx3PJ5L3b9+41TIBaSueKKRuct2Sjs9p9x1jjUSDLUzC0GjTbTp86dvx1hrX8G07juzs6Os4U055KmYmhwNqGlhm8KnwwzqX+oW76tFWFBmA6X2s0oBhIbNh1oLOsjpvNK1qvUzD+Ca/fd1UplITYmVwkcUvHwX3/WxBHEVwQvMXhs292OJ0+/ZGjEKBAziY5jjvGp1KbtnV1PVtK4yeibHDe4k3Oas/tYwUKJNBFIcTAfDubzQpZjjsi5IRdgiCcURRMpSgCJwiIgqW1Pp+DVMvNqaX6hahMkMRTizgHAawg9pwiKZikSCJYZkJEK+2TICDwE/wPTA+10HmaReX7o0Zh74VZUN4zs4ccoJDON19AM0oicc3sEtojy7JMEgQhkjipSopkJXFSUsFwM19/3uZTeyeuWWLmLUAVsILUrCXfn3sUBd6SB+0mBy1RtXres8qEvoIlJvwqyxJFElRSlmXNP0GVVRIjMUV7HM9bZOoSJYNaWqMFECcf9QuooMXGAhNVLRk0AdWrqklVFHiQYlhqusVuW2C2WOoLDZMw2nwDoEgNJNZ3HOgsq81vZUPLtSohPunz++aVsl64ZPJ4Jpy8feehvX8qFCjudHht9zhcLs9YgAJVDmUAKIR0euMbnZ1lpz5cumDxPe6A53azxeIbizATdqR0Oo05HA5NqAmcBRj7AYCkUimVZZmsNrvB9QAykaOc3oOEeR/Q5s2ScTzv76FdOK7hQN6F4j1fj/yfg4/oXC3OmRNa/UPB7oZuIytGWDx5BpHAITgmRlKUFhdTFEWSZRgFLB+Hx6I738TLm1m/73qfG4juzlB/wHgP4mpSFAWxQ3GapiVRFLXEUhAbdLDfQ+TQ1zFIkve9c8iZZrDXEG0QLDVRvM1UKqXZvfh8viFHsVIWUlkDBS4+6QuUCBSp1Ml0OHbHrjf3/74goFi6YOndTp9jk8PpdBfi3zG8UpiNWS59TEiVJ1AsW7D4XmfAc1sxQAGh1kDrAdaZ4POB4mfCJ/IlGK4d0rt1a+AxzNdKf2QrZSIblUXvgcWDgrqg76AGNwocU4jWa7Q2wFyC98K74BNFbEcOdoVwrEZ9hDqgbuD2oH74Du8FUAegKuUqV6BYvXz1GhEXn/RX+Us9enRzA7E7Ow4d+O+CgGLJwiUbXF7nRofT6UJAoZdVnI/Y6Bn4zKTTx3KJ9Mbte8uPowjOX3Kfq8pzq9liHhNHAVyE0+nE4vG4BhRocYFbM8gskNs5YgjQxEef+jPycPAYCUDGOqkLXcgo+hOKeIVS0pXqNGX0frgPNEL5L1GAYljURiBVCC2QVy98glEcCmAD3xEXWEg953umXIFiVeMHrgcZhS/gv7KU/nHJ5Kn0QOKuXYf3nSMuGFmYuTC4wVvj3UiSpAtNbhSUxaghKEx/MhY7JqSzG7bv7TwHnYzqmOj7g0BxG2tivSh8XSH9Q9GAUO5GmPAwCQFAADRGA9BCgMBooRkFXilkR0YypJG4nPGof7Sx0wf20T+HggCVKmzUtx9p3xAAIavaUuZWJp0+nQony0/r0bD6Qxguf9cb8JakHs2k06cSfZENnW8dOEcGM7L36MKG9f4p3k0IKBCnYHQMQUF44TMRi50AjmLn/j2/LWVwJqLsskVL7/FUee8wmc1emEAoDbzRQtOnbUMsLexawF1oLue6I8VIdRktBKMd3QhIjNqP5E0olB8CPj0AjkZvo/qN2gc0g2f0gV31bSg1sAzQD0XfRrlyIRYFCs5j1H6jucbncqfi/bGN5ab1aGpY/TGckB72+n3gXFv0lU2nT8dDkQ2dhw6co9UZmaO4OrjRX+2DzM9O5GZeyNsRikOZVCLRnU0k7t25b9+IMfgKqW+ingkuXHKfp8p7mx4okLGY0UKByQgCTCTYRNG/0Nl7tPJGQGu00Eqlh36BapmsZXmI5Yd7RkA2Hu9Huz7QG0Uzh3qNuJlC3o1CIejDFKL3oGNJIfWc75kMx51JRGL3dO7f+++l1DPeZVcuW/lxykR+0+l2lQQU6WTibCoU3dT51pvn9O+8QOGr0lLEvw8ojCYyQmwY9HQyeSYdjm7Z9eaBfxtvwpRa37JFS+91+T13mMwmD+IooO1GCwV5jsL7gYvQCwcH76GEP9pJYzDGlaYehR9QZqvB9iPaQwIbUDZAAiAZNJrvsSa6ZD75Cs8ZL72qYZQdM58iByc0VYUKOshBrQqBkwRB4qDPJfTZvYYl7tGafL7xf68jg5oQTaMzpBcZarN2DIBOQNI5LS4OpkUD07Q9KmhIIbiORo0hTQ0a67yqVHfp3zCoCpJkCXpDkBQFmhWIycMglTbi+kqZOwLPn473x+7p2L+7rCwzl1/d+CnaQjzg9flmltK/XIY7E++PbNr95v5z+jfy0WPxsrt9Vd57SYpy6pP/GLFuaCLBZzqZ7I31hR7+67cOPbHlfSGOSunK+JRdfnVwoyvguctkMmkyirEcPYC1BbYWysCxQ5HlTDIe7+Z5/mg2k4lAIixYenlrBxUsJ0DZry0ISZQUzY4ib1oAmkpVVWS4B/9EVVGzKo7LuAKWANpT+gAwhKriMPk1ewotpFx+3WtPDtpYgK3D0NrS7DcULL8QtWRbuKxikIgMTDSGAtTRGI6xmIKxWqQoHCMgkpZmyqAlJnsvWhWEsMtXri3nwbnzvlwZkIoMYEAL8wdt0kfgohhKVGVFkYAQiiJgKgF2IxJ0F1AVx3HIOYjyfmm2JIMJ07TIYPDOoT6DcYhmawIp0LSZp2EdruIMhiksSZCM3e2Y4vV5FlAsM2U8tB65TO5MPBLZvHtfeTmFLbt62edYC7PZ4/NOL2WFZNLpM6lQ5N5dhw6c48tyPjfz9Z5qzz0EQWgcRSEaj/zMB3ucvM1NJp3uj/b2PolbLA+Xm3lzw8LgBmeVez1rynMUhZqpD5pua2o3mJoZjkv2nz37kiLLfzCZTPtwmY3SlKBgedsKsA9Q83kxs6rAMAqZyecTzZCZIQ6DSlNqikyp9qxdvhBxLSBWA+y8DMNQZtFMQLtlRcYV63u5QwuZfLKcz4+KYflwi1oO0cErS2S1/sJvAi0oJsEkC1lBtit2vu1kG0S5GpcLUuyhuQYBa3BOvILLcn+Fm+i/q6mrXSwreWOvYq8UcMmR5Nc63ywvN/PgouCXrBCPwu2qL7ZvUC6ViJ/JRBL37Tp04P8Nr2c0GcU9BEnakaS6kDOkPmYFx3ED0d7en9RMn/6N5557rqwC1wSvDm50+93rWZZ1o6OH/vx+PmIDQIAdBbCxcIV6+rbiivQdiSTbyy3cXykT5lIqCw5hKi7cJDHY3YGaqpJ8IXK5XHdqIH7vzn27y0rudvWVCzfavY7b3R5PoJSxy2Uz3elQdNOOETyiRwQKYM39dVX3kINAgQCgEGHckFMYx0XDZ3p+6amr2dzWNnKG5FI6VUrZhsXL7vZUeTcCRwH1oKOHUZ0IVEAVGovFuIGe3h+YHfbHOjo6yiavqlEfLsf7LYsaZnCysKV6et3fEwRRtNVVOpnsTsW5zZ37O8tGmLlu3Try3UNH7vPXBm4xmc3afC72Ssbjp3Ox9L0db54rrB0ZKBYt3+Sr822iKMoOL0Wu5kYyCngObAtg4SXj8eTA2d7f1vlnbHhhxwvRYhs/EeWWL1l+p6/Ku4mkKC+q30hQC8/BM8i6UFXVvlhv/z27D5afG/1E0Oxir3P5lYs2eabWrC8lHkUymTyVjaXv33Wg6xzW/ELRZ9GitVZS7N8cqK/6EsOyRUfhhvanU6nTqXBsS+eb+8+J4HUeoAhu8tUFxgwUSHMAn3wul+k72f3fgWlTN7700ks9F4qQI723ccnyOz1FAAX0C+npU4lkdzaWvHX7vs4/llPfKm0ZmQIfCDatYxzm75ps1inF0giAIhNNbdl9cE/ZxFhpbm52p8KJB2qm1X6OZpiSooyDMDMeijzQdejAvw6n0bgCBdpxNbmGoghnjx//QyAQ2PB8W9vJYgdnIsoVCxRIcg5cU19Pz5lcIn1v5wgS4oloc6XO0ijQtHjZzTafa7PJbK4qtqZUMnU6HUlsKSdh5urg6poUn3yktr52HUlRRR+rgCaZdPpsoj/69c7D+38y4UChi62p9pw48b8Wq/XurTt3jphKvdgBK7Vc4+Lld3mqvRvHevQA2QT4ecBnhuMi0f6BJ/YeOvj1UttTKT+xFADNDoORT9ZMnfIPFE0VveumwYR7IP5A55t7y8Y2qKWhZUaGT/+gakrNWk3p/f/Z+w7wOKpr/2k7s2W2S6tVdwODuy3ZstyQsTHBBHiQkOS91BfykheS/JPQO6bXEFoIISEJCS8FQl4CBGKDbWFbtmVbbtjGgLva9l6n/r8z1nEWIWlXWskSPM/36ZO0O3fm3nPv/d3TTxFXMpHojHlD9+w4sOdj5Qj6tnrMqLvZVeG6idExmsxTqI4iV96HNt6OjmaDTnfrhu3bNxfR/2FvCspMp7vkxsECBSpqe9yQxWOHDq816Lm7Wnfu3DrsnTzzwOGiALVk7oJFEqnc7SwrPa+YhyYTiY5oMHZX2962j7HmxTy3mLZz586dSirEz8sq3IuLeQ60BaCIekP3th3Y87ECR/1luLrZVVUKnpmDAgr0t8ANFejubNVJ1H2b9u58vZfzULFjKqr9vNnzbnSWOW6gGeaUlrgQZSaYRiG3AeSkAPGju6srGI9E/2HijL+UGKJ1GPxFevK19CoNWNRo8zY+6az5KbwWLlxoZmRiUSqb/hprNFzkcDisxQwTNlLcF71r+/6xU9djzow5i/UG9nGnq3ROMWM7BRSe4H1t7+39eUGix5wZc24pq3DdOBSggBdg4I+/u2u/ksr+zG6q/J83W9+MFTuQ4WrfMGvuzQ6387rBAgU4n4EPRTQa1cLN4QoFg5FQINhGEeQug8nwHmSMIhlwcaS0BFaQhYmCzFKnvBoJAlwsT5bYlMFtMifzFaEnVM2tWVZI5eTnWhzESddtfMap8pvg+Kxd4LAJPpkfrfmZ6/INzyJpzeXz5M0E1DAiCEUkGJ2OTiiKzEEWHahNShOn7iFUyL+l9UPLKEVD/VItL1fOeHKzXWlJpyhSgZrLJNRdJikFPNNVBZJ8ERnNS1SGNaKIoqJAZi0R+q0opErTBNR/+Yj7NmS2gs5qXp4nM+/A754cN+gpeooKkizKfM8aZFPZzDRFleaVuEqnsHo9X2woezKR7IwFInfveHfnx2T44Vqbg33OjHOmfs7msD9gddqLivPIAYr7297b+7Haqn1yFEMFCm2xKlA7ltI2VNDv60gHQ7+zO51Pr964sXuwRBip++tn1d9S6i4BoDhVq7EQjgKTooDlA+7HPBQn/04khKyQhOxRNEVrrtVwv+aaTJAn0+GBY3bPKs4N9OgJ4jiZ6A0coE/FOoDH978yYH3EPK1tVEWLDOlFp9z/PzK/PZweSTMMKJshHgLC5Cmj0ShC3U74X9v0PXEgWld7di58hICAD0Waaf3S/vlXz2G8WgDLv/L0QUIqrWQ7rBGWZcVMOs2wLCsDqMiyrIALdp45h0GfGpPmSN7TAqBXkmSC5VgaxqbT6Rgdy5ppmjYW6lmcb72lksmuKOgoTlYKGxNc2LmTzr66rMJ9m9lqLapK2JCBorzKfSNBkpbB6EfgxAXLAGZ7EgUhGezqesVmt9+1dtOmI/km4nR9P29W/a3O8tJraZq2FwIQp6tfZ94ztimQSiS6I/7IPW37dn2MNR+Nnjc1Nem97d231Eys/b7eYBhSNrrcfkMtnqg3NDjRYyhAkRtmDh0AC4ivvf11i8F669rWjXtHg5h9vXPuzLrbSipc15wBirEyI5+MfqQSqe5YMHjv9r27P8aaj8YIGhoaypKh2Krasyd8naIoQ7F9GCpQ3ECQpHUwHEVuRzGJTdDj2aZI0m2tu3e/VexAhqt93cy621wVLuAobGc4iuGi6qf/Oalk0hP1R+7d8e7On42F0dbPWDhZUuKP1U4cv3I4sowPGijqptXd7K4pA9Fj0ECB8RCgo4DOR4LBD2K+4EN7Dr0/Zgq7ngGKsbDMP3l9SCWT3h6gGBP1dKdOnXG+2aB/0FXhnpsvvKIQagNQxL2h+7cXqsysm153k7u67KahAAXoJ3L1FOlkstt7tP05U5nzsdbW1jFh+TgDFIUsmzP39KZAOpXyxgKh+7bt2QVAMerKzEnjJ11VVV15I28xnzWYTHT9zeyggaJ+ev0NrmrXzSRJ2gYreuRmeNbSkElStOPDQy+VV1bcs2bDhvaxsPzqZ9TfWlp5Rpk5Fubik9QHAIqoP3L/9r1tABT5LDQjOjTIt9FxtP2uiZMnfpPR6dzAwefLuZqvQ4MGijkz5lzvrnLfMligwJJ7uR2maVrs+PDwP/Qmw20t27fvz9fZ0/G9BhQVJdeCefSMjuJ0UPzT8Y50KuUDoBg3ecLTL7/8slZVbbSu2bNnVwjx9AM1k8ZdDmbg4RI9ooHQfW37CnS4mj199jXlVe7bSIrSErsUemGqfs0RoCcjNfgceNrbd0hp4a5t+/aAh+aoX2eAYtSn4BPZAQCKiD/8wPjJE58adaCYOnsma6B/6nS5lmLZCBD7i7mS8XhH1Be+r3AX7ql1V1tK+Ht4i0Vzcc7NXDWUjqQTiU7v8RP/46ypvrO5efhSnw2lL9Bm9tTZt5XXuH8MnpkIhKhXGeozz7T79FMglUz6EoHIA617dz4+2qOdPmnKlSWVrnvsTsdkqC3T4yxXVLdikciJTCS2qrWPHCt9x3pMrfuW1WW5z8TzWmotrAcxVDZdEoV459H218rLXXeubm4+VNRohqExVEJzV7mvp2laS1zT43XYb5bpYXjlmUd8CiiQTCT8UX/kIXOJ9Ynm5mZwNx+Va8qUJp4UPNeX11ZerWPZEgyZGOr+xEHEIpFjmXDijoIzXNVPq/+q1WV52MTzbhAhigUK6Ii/q7uFo9nr39m2ecuoUDfnpXXT6q51VZVC9GgpFvXBJMKj3bcz7x+7FNBED2/w0Uim/MlDh0YvD2xDw5Kz0onII1W1VRfLssxA2oNC0zkORN14JHI4E0veunXPzj/3vq/vxDXT5n7R4jL/xGgyVQ4HRwHPiEUiH6Qikbu3v/vuqCcmnT2t7gclbsdtnJ5zIVBgWYKxu0zP9Gy0KZDNZLxBT+Bhc9z6zHBmDx/suObMmPMZg0H/gLOsZBa0BfEZfJaK5SiiodAHYiJ905Y9OwurZj535twreAf/OM/zWvrv4QiqyaRSXl9H13P28rLHmpubI4MlznDeXze17lvmEv5us8VSnlu0aDg0x8PZzzPPGlsUOBlmHr4/qQq/OnDggDBavTv3rHOvr6qt+gGjY6qxEjzmjCmmT6FAYL+aFm7cvLvtHwVxFHNmzvms1WF90mQyjS8WpfCFsiSluo4e/5ujwn3LunXrjhczoGLb1s+o/5zRbHjU6rCNQ/3EcIBhsf06035sUyAUDB6W45k7t7678w+j5XC1ePbi0mAi+PD4s8d/ThRFMxShQneEYvdqyOfbS2Tl61p27/hYuEU/dT0aVtidpp/pjcZJxb48d+r93d3bWIW6ecPObetGc0k0zm48jzbST9sd9mk4PtTDjGa/zrx7bFMg4PO/S2bU6zbvaV0zWj1dUL9gmqiIz7grT2a0wsLMxTpbwbPCfv9OQpKu3bRjR3NBHMXc2XPPM9v4Z0w8P2W4RA94jpBOe3ysVicYAAAgAElEQVQdXb+pKBn/yD82/SM8msQmKPVph8t5HgAFchWj1Z8z7/1kUMDn8WzUydSPN+1sbRutHs+aPP1Kc4n1QSNvmmA2m7UkSvA7nU5rJtJirnAgsI0UxWs27tjRUhBQNMxpqCN1xPOusrKZiFrDYRWQJSnj7ehc7bDbrn9rw4YPixlUMW3r6uqsqUj859UTx31Op9OxWH90MM5lxbz/TNuxSQH0LAafGpT9sXp9NBLJfHDg4Jvu6spvjFbMUmNjoyPuC99cPqH62zzPW6AGLvQzHo8TPM8X7cLdfbz9HV5vuq55W8uOgoCisa5xOqFTny91ueYC8YZDUYIvjoUje5R09taNbds+pjA5jcuHmj556i0TJk/8PkGSZaIoagWHYYGcuf7vUgAOClgDcHCAyRFOaVj7RqORiEYi3V3HO39hLbU/vGXLlvRoUKmxvnG2IGR/UlblXgrcA65bcLiCWI98lfwG6jOkHwt2e94wMoYb1rZuPFAoUJwjk9KvXe6yRmwwHNFpPUFiXd3H239T6Rz3k9EUP+bOnrtcb2Aftjrss1HOK4bQo7FwzrxzeCkAIiiAAxwaABqwEWHdw9Xd0bmVlOhbt+0dPf3ajLOnXm11OW6w2qy1yOlDX7F6XTEcsaoocveJzldMJHvThr3bjhYEFPNmzBsvkeIvy6sqlmHxXizuU+zUKLKc8p7oeLWk1Lnqn+vXv1/s84bafu7cJncq6r+1vLr86ybeZB6OxB9D7cuZdmODArDh4DCD0xlOaWDr4eQOhUJBf2f373nO9mDrvtGpM9vU0FDlj8QfGjdp/L9hHlDoK+xPADN04x4qJRVFFjwnul4w63V3NG/f7ikMKObNc6YT6WdrJ9ReTpInMzLnFPYZal+0QQFrl00m9wnx1CNmd+mfR7PS+bw5CxeTlPRQSVlJ43CE6Q6ZMGcajhkKoOMdbDwQOdLptBL0+VsombizdU/b+tHq6PzZc5dTLP2Yu7JiOuwhVMLDvoS1iyLTUPsny3L6+IeHfm9hnTdv2b/lY7WC+zSPQmUlUiF/WTuh9os0TXPQKThxkQ0bamegPShgJFEMhz3ev1nLXPeuXbt2VJPuzjh31q16nv1OmbtMcy47c/3fpYBWChNyqMgnI8jhf09X9+FsOvMszdlf2LVro380qNPY2GiIe4O3V0ys/ZbeYCjN3YsYsV2seV8SxXjHkWM/Y82mO/qqT9MnUAAxpkye8vPqcdVfYRiGx6zaw+FTgSHo8Uhkl5JO37lp587XRoP4+M75c5acK8rJ/2d32r9oMBlOpe8fzT6deffoUQBrf8ApnYAgsED4jxRnfG779pZRy6WyuGHxjEQ88lDVhNoLJFmmoW+9ufxigULIZoOdR479ZN+hDx7oi/r9A8WkKfdXjq/8DkVRDqzgXYyyBF4OkwDPAs4iEYv5vB0dv3fb7fev3vJxVud0LpWGGQ3zM0rmxvKq8uU6nU4rIHPm+r9HAQyAhINREqVAd3vHBp1O/+i2XdtGNZBx9lnT/tvssl1vL3FOAJEI/CaAk4C/wTqDysxiOP5MKtXpbe+8de8HB18YFFDMmT7nPx0u+116g6EalSbFLh1MvNvzW/J1da7nWP7mTa2bRs2BBce0YPaCxkQ2dq3FblvqLHFqeThQoQXjR2cWmKBc1hSVvMgCFkOjfLEm+Ti6fO2xbyjf5hbwKcSFHRYknGZQ+AgUfbAwocwiLFac22LGn68tWqVA0w/vhT6DHgHmqZBDDPsP70FagWUD/obxILcbi0a7Y5H42wxt+GUiE24dzbiO5QuX13R2nXiketK4lZyeK/oQg3UK48TDH2kSDgYOZELx77fu39OnHqZfjqJ+VsNKs9X4U97Cn13IIso3yTg5aP+FRSpk0u0hr+9p3ul8brQDxaB/8+vmz8kK2W+wet3FJa7SCbB4QEmEmyHXgxNzAMACRcsQ6F9G8soHFPk2S2/zL24W/J3vRAJawAIDzhA2KLwPPQKHI3oxH+1g/AAKABRwoZUCNjuUeAQAG+hCHQTcDxeCA4K8IAii3+s9nM1kX+ONlj/pzfq9o5l3Avq4cFbDSlJPPWh1Oqbnm9989MulWW60NMy7v7t7EyWK39+0a9eeQXEUixoW1RE08ZzNYZuTb4EW0kEECvSChI5ms1mx6/iJdSVOxw1rN46NAkFz586doAjKxZSOusJs5mfxZrMNNhJuotzYEFhguPng83wbLR+d8tE5H8eQzw+k90LLfV6+d+MiA4CAjQbgCcAB3ITJZNI2abEuxPnoAyCFGn/oA5auxM/ybSTkpJBOmoghSfAjK5LkjYTCu1RRfZmhuebNuzaPauAi0KJpbpM7EOy+o2byxP/QsTprvvnNRz+c794HHrTrOHLk73rOct2WnVv6TCzVL0exoG7BREHJPOUqd19U7AbAAWDJQWBfAc0DgQDBMsyRiNf/iL3C/ZvRNJX2IjLZWL94riikV5I6cgHHsRNImio1Go0GhmF0yE3ksrD5JqmQ7/MBQb7v8232vhReuHkK6R+0B4CADWaz2TQWFk54pEO+jVrIOwa6B09+WD8oMqDIU0i6RmgDwAZjlmVZFLLZWCaV8ggZ4T0hI7QajPxbTII53HygOVFsX4ej/fzZ8y+iGPJeu8sxBzm5Yp6LNEJnMvTBEAVB7jh27EWz3nFLy66WrkFxFBAPIabER9zV7qs4jis8w+4AI8GaHwAY8DecQrzJlDz6/gev2e1ld67dtPaDYggx3G2bxjXps45slaIoU4VsZgZBKuMYjiulaNJKkpSepEia7qkhrCoqISsylAz+V70H6qPVtv9VmLjnnp4ExCd3GklqBcO1suEnf6BkOCTqg6+12DXtaxIak1g9WCsdDLmMCfVkBWSo1vuxTPLwOKgZfvKC26DWuqrCc1RSJUhKVVSSYRioKwwl0eEV/8qQ3PNYRqUkURYViqJZhmVKjQZTicnCm1GxBot5JC88aNBnQKfTKZIkxSVBSEqSLKtAGgW6D/WhNbIoGj1URYYfURBEWZYzQlpIqAQZ4BhmP8sZt5EkeSiSjrSPpi6iN92a6ppKAlH/3RPPnfTFjJBxADjmOwjy0R6Boqc4tcYBa85a6XTK39H1jIVl7mvevbvPXDH9chTw0rrps2+3uRw3mkwmU7Hml5OL/WSkJiA7LC7Q3sZiMUIShPeTsdhjFMf9frT86PMRWaNHXV05q7ImRqcYCZnS0zRFqbRKMsRJc5VCyVqtB1ImVYKB35RKaVXHYeySKvX8ffJuglAZhqSghjelUIqiPUsGBzeoag6Vw1VVq4quXTRUGT+phDv5mz75W7v6yd4oy7KKzyBJGYp8f6QWBaCESkARdQXfB1inUJSiyCSpwjig3yffx5CkTNKyJIsqoRoymdS5gpSdbuQNMwxmfo6J5035OJ5CaDzQPRD8VFJSot3i93jeT8QT7+lodrfJYDykEGScpggZoBrGpc2Homh/w7hhTCRJioqsCKQqpUlGiSgRNjhWuIfe4140a36TyCiPlLpd9ZjBqljOHpW1wM2Dbgmep+mZUqlwuNt7j6pnn+7Lh0JbvwNNTMPshq/ydtOjvNmspYwrFtFQKQrPAcUfRLxBmKzGVRw6tMbtct2+ev36UbNXF7uQ/4+1J+vq6txUVl2WFlPfmjJzxqJ0On0yMGKELhAbQPTxd3sO0SrxR5o1/D0tpff2t7hHqBsj/tgVC1a4fMHua8vHV12lqIoT4zmGA4hhHwMdQWRE4NEyd/mj127f9/FcmTjYgYFiZsMKk930tNVuPQu4gGKBAl4KAAEaavgNP8BVACsZCYWOiqnMTzgL//xYSOk/4qvhU/KCeefMc0pk+irObPxuSZlr3EgOC1jmcDgsJcKRP+k59tFN27b1qaEfyT6cjmfPmz7v31RGXuWuqjiV5gHEumKT0yA3D0CB4htICrFI5GAiHPvezv17+00oNSBQLKxfODmWiv6morqysVD5E9mbU0jUI26gphVNbKgQBNEDFGNgAQl0db/GO+y3r1279mNhrqdjgs68Y2gUmDdtdr1Mqo9UjKtuGtoTCmsFJ2A4FOqWkpm7W9q2PVtYq0/WXU3zm8b5fN57xp8z/jKoAAaHKe4V9JCGz4DLwI2Pvjz5RJMeJe6/RI50WjuoPzhwcJOBM32ndVdrv/tuQKBonNlYmZASv6iqqQLLByjX8lI9FyhQJ4F+BuiZCUpMVM7kmmqgUpGQTD9aYip/4W/NfxvVBLx5B3rmhlMUmDVr1jhGIR8or6360kiSBdZPOBjczukM177T8s7GkXzXaD177rS5XzHajTfbnfYpGPKOPiro+NjjJCVlMhkm12s6n/kUAQWBB6QEhmEyRz84/L+sSX9tW1tbd3/jHhgoGhsNmXj2p66Kki/rWJbPBxS9Zagc05uYSSY6GYp8V2XYFTqdjkNnGbDLJxIJDTiAIEGvr9lksty6bsO6zaM1WWfeOzgKgPihsuKD7tqqbw2u5eDuzmazmZDP/5KVc9ywtnWtd3Ctx/7di+Yum9DdfeSxqbOnX6CoihG4b9gfCACY0SqTSsU5mv6zoCiXmsxmF9w3GO9pTEQFvyHGw9Pe/ZTOxN0/kK4nL4tQN2PudRYHf62JN7mHChSSIMSiweABE8s+Hs9mr6+ora2DwUFHUQOLzjqZdDoQ9vpedJS7H1izZo1v7E/vmR5CdKMQTz1VPq76mydNuiNzpRKJ9nQs/UCWEH/1aVNgQsS2TtF/22Bhr3dXuGuQmwBwyOUaQE8RCwW3GAjmIYmlHzCazecCSODmH4jyCCZwIGMJwkg4fDwRjt20a//ePw3UNu+kzp+z6BKdgXjU5rCfXej09+YsFEWRQx7PTp5lH1VperKi033XYDSWYx5OFD/QESTkC2w16tl71re0vFHoO8/cN3oUgEXOktQvq8aP+wpJksPic9PXaLyd3ZuNBv7a5pbmraM32pF586I5i+oiqfCjE86euERVVQpjMOBARdEdAMPb1dnByMp9FEXJMsvepjcYajDBDrqm99dD9DDODVP3dHa1UQTzva1tW1uLAoplDctmpIjUM85S58LBHBa94wgS0egJShT/TCm6Z2NC8mcOt+szoJDBTmOwioZ6JBk9cfTYP2oqx696/a3XRy0J78gsiU/fU08HUIiCkPR0dr1kK3FeMxbigoZzFptmNdmCSf817tryb0MOV9j4GHwHLgTAXQBIpNNp1dfZ+TeOJL+rMxhu4R2Oq2iGMUFfCkm8hECBrg6yLGe7jrX/nTdZb960fdOAeWHychSNjRc6sgn/k2VVZV9iGGbQdnIEDEWWxUCn5w09x/yAotmLST0Luf/GYwo6uC83d2UoEDxMCNLD5bqa37+85eVRSWY6nIvh0/wsED0y0dTTlROqv44Z0YZ7vJFQ+IgsiHdu3t4KJSn/5f063C8ahefNnzH/EokW7x43cfws8CsC8yVG5gJQYPJcb1fXQSor3SVK2WaCZX9RNX78pRjNDBxIIbE2yL3D/ZIohoIdXc+rBu6+tra2aFEcBTSecfas+0urHN8zmkyWfDIQch29uQ8AglgwvJkiyPtVRdyfVcDrzP15RLfcEPQey4nccfRYs8vpuvOtjes/VmdgFObzzCv7ocCUKVN4PaV7omJc9TdGQvSQZVk4ceT4Ow6b84cbtm5479M0EWAO9Xg676s5a/xlBEmYwFUAgAH1CHiQKoqS8Z048ZJAUVebFWoBZTH+3GK3T4S9gn4R+Th+/B4P5XQyeTzmCzzc9t7+Z/LRNC9HAQ9onLPocopTH7Y77ZPgf8zIjXk00Qc/nx03lUieUDLisypHP8US9GeS2fQqq902FVOjAyJiXk1gpVKJRNjT0fm6u6b6trfffvtEvsGc+X50KNAwraFMIrMPlddWfa0YZWZuVCeOBORuURBOBLq8P9914N2HPk3cRF1dnU5NCd82OazXmK2WCRh7AaIGWDvQygH7zO/x7GcU8s6NO1pfaZg5+x5nhfsHNMNoEaUglsC9+fZfrtIT9tqxDz/cZmRNP2zZ2ZpX51MQUCxuWDZDkBPPlLpLF2LMB3QK7bI4wfmiByVRjIUD4bdYkvsxy8qkqFI/NFnNV+tYnR7du9G1FAYCslpXR+dBKSXcLzHqnz5tmu7R2dbD/1aIgVGy4k+rxtd+sZinw+YIh8MaCw2LH9ZXOpWSvV3d75hMlls2bd00oMKtmHePRtu5Mxo/Q9DSne4q93zM7YGFfNDVGlzWs5lsJBUK/ZwQhUcpSRLjNPNiZW3NpUAnzEOL+3GgccA7YK9qAMSyaU9756sGznzzhm0bPpaev/dzCgKKBQtWuDLxwANlVWWQbNeEnATG8wPqYxKQAeUckiRCwdABjuD+21Hh2Bw43j0tko49VTtxwmKUtTAfIGaXoigqu2f7jrdqx026q7ml+WMVjEZjgs+886MUAMe8lBB/tmbS+M8WQ5tcsRXnHzwxE9H4M1lZfHgsRXcWM05o21TXdE4oGbzDVVl2qd6gPxVQhxwCiBywr8xms3rs0KF3GIn6Xuv+XQfmTZ/dqLD0b6prqiejeALBchaLRbs/n2oA9iz4LRGq6o16/U/YKfeTa/auGTjjT76gsNyX1s+s/47dab3NZDFXQYdQeYKOU1iCLR8BhWzWJyay9wqU/CKE/Bop9scKQ15jtducYAqCJCiAorBoYLHY7XbC7/UFwr7An8pclY+t2bAmL/rl68OZ74eXApC7JC0knqsaV3t+MU+G+QYZHQ4NWMwMwwiejs6Ner3p9s3bNo9q3spixtVX22kTptzpqHB+s8RVWgPcNHgr95QH0CwYcPrDPlAE8cNMMvX45rbtz4CoQmTlq22l9httDkc5iChYgwT2TT6gAGCBfQr0Dfp876sZ8bote3a+XsjYCuIo4EGLGxfPywrpZ9yVFXWoDEFXUPTAzOdCiqAS8gZeMnL8Les2rzva1NBUkRYTT7mrKy+FgGsYbG6wGCpr2o8dPywmMk/uen/fU58mObWQSRrr90A2NEHOPFtWXl5fTF+BfcbgQ9gAPo/3uJBM/ZQycL8ZrXqfxYynv7YN0+svU3TEHfYSxxw44THvJ9yfm/GeJIjo0Q8+/JuJpq7Zsn9/qO7suhJJJz5WPb7my4IgUCh65Lpm5+Mo4F6GYZQTh468beKN123YsuXdQsZYMFAsXHhBRTzgfax8XPnndTodjVYKjGkvpAAJ6iFCgdABPa3/oaPcsT6xK8Go5WJTKBm5q6yyvAFRD4PHMM0ZJFU5fPDDzRbedvfmts2jVna+EKL+X7tnYf3ClRRHPmZz2CcXM3bQS4B5sMcTMX380JFmh730+pZRTJVfzHj6arukYclZoaD/vtqzJ6ykaEoT4+GCkx7T+8H/oigqIa9/HaWQd27ZvV0LZ2iYWbdIYYhflJWXT0GvZuDC0HMzX19hrwLnQpFkzNfR9YLBZrl38+bNBXk/FwwUV155JX38g/arLSX8bTRDu4DVgZMfNj9qXfPZcTH1ViKeiKZj6ScMacPDIB+tIlZRzQ3rbmBMzDVGni+F54HclZvVR1PEyHL80IH3366trFn1z41r9+YjzJnvTw8F5s2ov8rkNN/J83xRRZQwoFBL9ur1HRST2Ud27Nv169MzipF/y4oZK0yBdNePrBUl/23kTVXgcAhjjkQimsgNFxyU8Fkqnng3GUk8juNvampigt7wTaXlzjvMZrMO9ggACxyksO+QqxhoFAgUkiCcSEXit9acPfGPL7/88kmkynMVDBTwnKaFy+fTrPIsxdAzITwV0AmQDQZZSBZmGAyafIK+YIuO0v138+bmffDsFUtWVEcT4Yed7tJ/kyRJD7IqyGCYvwLC0QE40slUV9jje7mi3PXI6+vWdeYb4JnvR54Cs6fOvM1V4fohq9efTD81xAs2iKZsi8X8vm7PKzqj/YG2tpZPjVl89uRpV+mtph87XaVTYS8g14wp6uA3iCFejycS9gR+Sxp0t+3du1dTNM6YMWM8x3CPV1RXXAp7DT03Ye8B3ZCzyAcUwMEk4/FWIS19bzBlMgYFFFBjIJaOPW22m1eaTCbNSxP1E7lsU3+dRYIAskUj0W5ClH9UUlH2CqAacBWbFm1akswmVpVVuhfHYjHK4XBoQIG+FdAOWDRvl+dgOhp9vu3AvkeHuCbPNBsmCgCneWDX3mfHTZ70JYqiBqw7gQscOQc018H/aO2Kx+NKLBReR9Psqq07tn5qHO0aZ8z5jESTd5WWl80DTgJLO2DuWNjwPf4TmQ/3v7fWwOhv235g926cpvqp9V/iS/hHzRZz5VCnThP9CSLZfvjwqw5b+fXrthR+0A4KKEDryijszU637buyorhh42IKdYxGG2gQqKGFdrIsK0Fv8HnWyN66cePJmo5NTU08JVCXS6R4k73EMaUnlbqGslpx454kHjRNS4lIbCOlEg9uaP306CsgH2ZbWxuDNIzH42pT0zsKQdypkj35Noe6SEaq3eK6xeWBmPfp6vHjLuU47lTf+3ofBjfBhoBDAzYMFtiF+YX/PV1dh6Ws9EgkWfbbQ4feHNlCKSNFlF7PPW/ugrmhaPiuqonjLjAYDIymJ6AojRMHWsDYwX8C1re/u3ubTqFu37yn7ZQeDmJpVFF9buLkiUU5tMF7Mun0iXQ08YjMkL8YjF/SoIACxn9+4/kLCFZ9Um8y1AEbA5OLclLvqNHe84BJQjE4paO9Y6+RM36npbXllGfYhY0XOpJi/AecxXA1y7GaLgSccMBM2pNoQzPvxKKxhK+98x9l5VX3r/0U6CvWr1/P0IT4Fb3BPJFhGCOpKiA7iiRJZkhCSasUCcbvJEUSMZokgoTEnEgTRKC+vj51mtZ7n69ZtnjxlHA0/kRFTdXyfC7EqADHtPs9tV20+YTDIJVMRnxd3ldYRv9Q6+7WT0Uw4AULF1YEIrH7Syvcl+tY1gL7BRW2eMgClwyiQzQSPZaNxp+gZP3vtx3cFkSCz54+9zxOTz1V6nZNL2au4bDxdnRtNJks16/buG7bYJ41aKBY1rCsLJIKP+iuKf8iRVEGFD3QJ32gl8M9mNgTFkk6nQ4nQol7qidWP5mrVGlqaKqKJcJP1Ewaf5GiKoZcAMJKY0BYhqL9nuOdf68qK3/49Q1vfaIX1vr160tK7PbHLTbbBRRN28BSpuXYhxzbqppVVSWpKkqSUJUYQSghVZHfV1Xx7awcW3fOOYvig5n04by3af6i5SKpPG53OjS5e6ALDhTYFLmOVfCZFgyo02UDvsAmUqXu3rx984bh7ONoPWtZQ0NZl89/R81Zky5RCaIa00miUh84CwAO4CaOHT0aifrDf7Qw+oc2v7frVPGhuro6YyaRvWXcpNofUBQ1YKxVvnFKohgNdHf/2ca77nqr5a0+63f094xBAwU8qHF2478rjHxvVU31BPQxLwQogN0EoED5DESQrvaujSbO9O3mLc0Hczv5mfM+0+gPex8pqypfCFwFojCaS8ETDZxyZEnuTPgDvzWbS3+2euPqflN55SPiaH+/fv163lVa8qaJNy/qry+KogBopBRVSRCq1EWRSrOaTT81cWr9qCn8GmfWf5O1Gu8yWyxV+YACSxECZwgsN4BGz3pQThw/vsvEGh60RhyvvfkpEDnAShH3hX7Emg1XuysqxmvRmpKkiVwwZvgbPZxFUZSCHt8/SVm9f9u7uz7iWDZn2pxzSYZ8vKSsZEWheWv7Wz8hv/8DnaTe2ryj9ZXB+iINCSiWLvzM5M7OQ09NmzNjWTab1SrJFKKjgAEgceBvIJaQETrFZPaGDds2/aH3ABfMmv8No914o07PnQOyLAajATcB9R26uro019WA139QjCV/aakoff7tt98eMFx2tAGhv/fvWL++hC8re8Fsta7s6x5VVbOKIkcURY4SqhIiVOmQIour1Wj2tYn19aMyZggvlxKZW2xlzu/rDQbggga8kBuENQDzidp6WRTfjYeiv2JM+he3jHJl+3xjKOR7UPAe3X/wW7SBu7qipnoGeFhiLAaKXwCWIE6DG0B3V9ceHUHfbbJbXs2tdTpjxgwTJVPfKCkvuZ3juLJ8sVQD9Q0OmfbDh9+uKK28cSiuBUMCCkDLmD+yylHm/A6r50pyM1XlIyTqMzRTZzoNbJfUeazzJSNnBE/Nj9R7XF633CrT2e/obcZrWIO+DM1J6O4KCw4I7nQ65QPvvruHpw0POxj3a6+1vTaqcns+GvT1/fr16/WlDsdLFrv9kt7fq6oSV2WpW5ZFj6qInZIkH1EUpU2l5C1Tpsz1jpaic8WSJdVeb+gRV03553Q6HZMvehFNenAfmNdh/j3d3YcZlXyOVrnfb2zb+InlCHPnrH7azK8SOvoHFdVV9YqikKiwhY0OP1h9HTiLWCx2LB6IPCUzxO/a2toCuc+ZMWPeeJZWHnVXuq/AQ3IoawvapJIJX9jr+62ltPSR5ubmj7ynkGcOCSjgwUvmLTk/KcSfLKson4qiAbCS+S5gT7EGJJo+g4HgUY7krmne0vy33u1XLlhZG0r7bjfZrV/gzbwZ2qL1BF1Y0ax0cO++rS6H8wnabPznJ602CIgeTpvt5zan80skSWrWA1VVJVWRjklCeo+QFfYpkvyBSigfSqTUlUoRoQULFoxqQp8LF58/xxcNPllZU70QHYAGmv9cTgLmMZNKdaWj0RcZln9+07ZNY6qcZL513N/3C2fPvzQppn7kdJUsttpsDIACRoKimR9+w17paG8PpKPxP3As//i2vdt6xzBRs6bP+ZrJYniotLTUBXsln0PjQH32dXfvYGXypo27tq8dytiGDBRapeWo98maSeMv0+l0bCGVxHKVkrnyrMYWHW9fw1vc/7l588cT6i5deOHUZDJwh9NdejFBkiZAYgx3B5DAKFYdwySOfHhou523PF3BMW++vGXLqG6kwUwIcBR23vXvW5YAACAASURBVPKEw1XyZRijqqqCKksHMunEW9lMdp2oZg/odKngjBkr0iRJfqQ04GDeM5z3zpsx72ssr7vHWVqiBTbBnPSXhgDmG9YInqpSVvAGurv/aTLzjzZv3qw53X3Sr0Vz5l0eTSV+5KpwN5h4nsOMbcgJ4yEHm14QhETY4/urnuYebtmz/WPV8WafO7uW4qjnasbXrEAuPF8sFZpZQZwB4NZyukBRaZqOdR458prDbr9x3ZYtQ3JSHDJQwKTWT6v/psFmuKOktKQWk4AONNn9AQW0iUVihymF+n/rW9b3mVD3wsUXzvH4Om8/a9rkC2PxuAHZOfDgBKUmlptjdbqEp7N7B01Sz1ZzzKufFLDQgMJiedzudH6BIEmjIksnxHTi75lM+k+Cyrw32mbQ3vMK+olkKP5Y+bjKrzIMo9WmBcDOLVIDbWDBAjhouVApSpPVvR5Pt5hMv24ym55dt3Hjzk86QED/F8yu/1xKEL5nL3U02ux2PQAjeivnHmZgBlYVJdt1vL2Z0dF3bNmxo08z5Zzpc/7LVmq7j+f5UuBKsKxgvv2FIgpamOB+T2fnMSIr3msscbyQqwMZDN2LAopli5dNCYd9P62aMH65oih5CwQNBBTAVXg6PX8228w3NTc3d/Q1iOULly9KCYlVvN3SBIFpwL6BNQQ8OEFvAQgOYlAwGEwFvf7tNiP/hL2ybPVrr419ncXmzZsNRh33uK3EcRmkhBSz6Q2ZeOyZLKnbNtZAAubmgoVN9d0h388mnDVpHixOzOuIFi1Y2Ki8xPBn2DiEqnbGg+HXzXr+6TU97vuDWbBj8d4lcxdekcwkf+B0l863WK16GCeGgPc4F2qnO4BpOp1WoqFQKy0RD0WE1Jt95diYdc6scTRHPltWWX4htEP/oUL8lOBeoD1yFQxNi0c//HCT0+K8bt3WoYNyUUBx0UUXcYEu341Gs+lqm9Nelo81GggoYAHEY/GjskjcsHFz81/6WxDnN553eTKbur520vh5iURCi2LFhYoReGCXjsfjiWOHjmy3Way/0FtM/2hubk6MxUWGfdr/0kusNGHSM1an/SJFkRPpeOQ3aYn4VX19/aAVT6djnPNn1l3Dmo3X8RZzOVieYGHmKtzgb/SsBcAwGAyqp6vriJBKr7HZrE+uaf6oOfx09Hm433HllCtZr7798rSc/Z6t1DlXbzDoYazA7qMeArPL90R7yp7Ozt1KVnzGYLf+oR89GlU/fc537WWOO1mOK8X0kIXU/sVsVwAUWK08Ho12ZWOJJ/Wk9RfNu5uHXH2vKKAAwi+dv3ShP+p9DE6WfIiXDygoilI87Z7VHG++dsOGt/tMogrgJETTl2ek7DW83TIXQAEmBjNsoRwISBwKhdI+j2enRW961mC3vLl27dpT3m7DvWiKfd6O114zspVVz1hs1mWyLHtikeC9Msm8UV9fP3DaomJfPIT24MqfjiX+dtaUc5ZnMhkWXezR5In+AvB/D1chdrV3fMBz+r/qDdzvVjc3HxrCa8dUEwCJTt2JL6fk9NXl1ZUzSZLUYYZr+I1FhTEcHDgtT0fnXlomn6MU7o9b9m8J9TWgxpn1sxWW+ll5ZUWjxoH1xFNhnNRAREDP51N6IFGUTxw+vM1pK7+hubV5UzEELBooFi5caI4Foo+4Kl3/YTSZzPlkKPy+L+ecnpDbDiEjr9q2Y8vz/T3rkksuMSY9kS8zZu7/CYo0DUxtqNBE8xMsUgCPSCQiJKKJ3YQkvWA1Ov+ypg9laTEEHK62mzZtMltM/DNmq2WJLAqHY5HADXMaFo3J1H8rl6xY4osHf1k7YdzZIAvnFp5G7TymHkgmkylCknYoWfF1g9H2pzUb1rQPF81G6zmX1NUZAxLzFYHIftddVTlNEAQGRF5Yg5rHMMOcyk0JdID/fV1d70tJ4ZeMjvhjy65dfXpFaqkcPjx6u6PMeQ3NMGbU96A4ka+aOeqCMKdLPBoNhjzeP1pMpfc1b2/2FEOvooECXr6kYclKQc3eX1rm0sq093fl4yjQfNbZ0bnGaLJdt2HD2/1m32lqatJTGfkblJH7Ea2jJyNHgclxUPvek6JPPHH02EGWIH9nc9j+NhZPNOAodNXVz1oslkVCJrM3FY3+aHZj47FiJnck2kKU71v1a+4xWo1XG3mT5mQFmwOUyShLowjY2dHhySRS20pLSn/rDLn+8fKBl4WR6NPpfOayecucSSF6laCK/1lZU3MOchEYEYvBbdAn/CwWjR5KhiK/07PM8/2BBNzfOLdxAc0Qz5W63VOBS8YCWejQmE+07819hP3+d1mVvmbt1k1vF0ujYQGKxYsXlyaCkQddVeWfZzmuX3/0QoEiHAoHM8nM006d87E3W9+M9TfIy5ctc0aSwlWUQfcdzqDX0p1jwtFcRRpq47s7Oj5URfkvFqv5T2s3bhxTiW927NihYwjiSYvNtlDIJlvkaPLWqQsW9MmeFjvpxbS/YOEFFcGY73fu6srzITU/xu/AIkagh4pW4WDwA1JWX9Ez3F8onnt3qNr2Yvo63G1XLFjhCke8t+rt5sscJc5a0ANgLhYYP3CxmG8FrYCRYOhwOhZ/gdCzTw5UZGfx7Nmlkk53h4Hn/1uv1zPohYmBl6Csz+fCjeZnTU+STMZ8HZ2vOuzu23o7Mg6FLsMCFPDipfMWXyxS0gMWh306Zr3C+gRYEq2QDmJEYSgQ3KtnDTc2b2r+50DtLlp8UWk8GfwhZzX9B6vXj8c075p7uCBoxIUTDkyoIEu3nzjRoYrS6zbe9uu1m9/ZXkifTsc9oMxMV1bfYLFbpwip1Gp/PP7npUuXZk7HuwfzjiX1C1eqOvIRe6lDS8cGF+ZUgBMwGU+EQoHAbh3FvKRn6Tc2bN/+iRc1YIzLFi2bkEhGb3WUOi5WSLIMs6+h7gA3NsawQBtPZ9dhKZn5rV7P/GbLnj39+i+AyNF1rP1zrJF7lLdYhpwlDEUOAKtoKPQuIxM3lY2vWV1oFquB1sGwAQWcNKGo7/ay6sp/17E6K7ChuGlRbsu3IDH8GAbM6nRpT6fn76zRfHd/ik183qXLlpVF4unvsrzhKxRDT8SsP4jy6DKL9Rl9Xq8/HU++4zDZf+5MBDa9fODAqLPE6qpV1Pbzlq3QGw1mNSVtmbl0fp8m4nw0HOnv58+ce4VISA/UTBh3NnBwkMYNgJjn+WTniRNHMsn0P3mD6a/NOakDRrpPI/38ZQuXXRAMe28oq6qYS5CkFUABT3e0amDqBIzpCPp8xyKByP8QHP3k3r17B8xLOXfu3AkMQT5T4i67sJixoNObLMuRUGf3HwwG24Mbtm8YFqAeNqDQuIrGpctSYvyhypqaOjjBgWhoB4bTJl86cXTvBksGsFqxcKQjKyiPKIT483xJNlY2rXSnM/FvsmbDN2RVOctqtWpcBBDP5XIRXq/3VBp0WNjxWCzm6ezabuIMz5sN7No1BSYZLWYi87Xd+sZWi9Es0kFJii9duvSkynuMXUsbltaJqngfwahzbXY7rxKqEI/FPPFQdK/JZHqRI+QNa7f9K5fCGOv+oLpzSd0lxjgTWSkS0g9sJQ4ofkWjGAsPQk9U3KCwrkC3kIjGjkWD4b+YOObR1n37vAO9tGnWLFuGpr+v5/kbzRbLgBnC8nUend66Ozp2Gxj9Ne+0tqzP16bQ74cVKFasWGEKtHt+WlZbcQWn1zsx3h5YIWD70dzTX+cwsk7byPG4Jv91dnRu0Rv46zZsWKdlIh7oAhkyLSevkknla2ar5RwAJ0B8eFZFRcWp0w9ZZqjm7OnqOsAQ1F8sFv6vnwbbfj4aFfs9sMmH9x2+1B/0XlpWXu4UslkPTZKbGJ5bs3379kFp1l966SX2yiuvhOQ8Y67oMCgtU0L0qypDXlVWWTEN6JZbDxQOPTgIMf4CwAKytiUi0T0hn/8NldM9eODAgQF9dy6adBEXs4WWSaT8WFVN7WQQlYu5tD5IUjDY3f0HK88/+FZLy6ByTgz07mEFCnjRsoXnLU1kU/dV19bMk2SZhs6jXb2QoBYgPmxs8Lbs4QgSAX/gRYvV8uC6dR+NLu1rYGANkROZ72ZV+evV42qmZrNZpqeWgcYu+nw+7TcmB+4x0x71dXRtddgcvyINut2rV68ec0rEYhbQSLSdMqWJtxmEMkqgQpve3RQeyjte+f3vyw0kmVz5la/0q7AeynOLbdO0oGlWLBK8ylHmupi3msdDYmc4tOCAQacmeAccfhjopciy6O3uPphNZn7z7gfv/bSQPixuaJiiEMQ9FofjikL2Rr5nyrKs+jo6tlp4203rNm8Y1uQ/ww4UcOIcO3DoVs5q+LbL7a7EkPBCiqjmRtfBJIB7NnAX4VDoiCSoD8aSlS8cKMDEBk5Z6WDiq9F09Kqa8eNmK6rKAVoDaIFIouUO7PGfh8+0HI6yHPd2de2ymx2/pow68OQckx6R+RbLJ+X7VatWUdMmTJjD6vU+c2lp11gQtSA3pUNvXZEW01+ylTguYFidC0RnTDSDyYExSROGzafT6UwiEtkjp6UXrOUlvyzEwtM0q8mWJuM/5h3WH/K82YqBX8XMXyIW8yQCod+a9M6fNLcN7/oddqCAgS6fv/zcSMJ3r6O87CKaYbQALhQrBiIEOkth9ioACdjE4P7r8/la9Iz+1nUb1hWElABYwQ7fpfFM/PvuyspGkiINuQ4xWJUK2UeN7VNV2evxHiQk+S8Wi+Pvb294e1cxE3embf8UeOmll2hGks5nGSYkc9wHl1122ail84NewsZNiOH/pDj2C0azaaazxGkA8QLFDXShRsc+NPXHYrG4lM5sVgTpxe379vxPoZmjlsyff2lGlh5zl1dMxGRO+TybB1pPECsVCwTW6Cj2rnVbNg4qH2Yh63REgAJe3Dhr3n/Qevqmytqa6aFQSHMeyUcI2KwAEsBJwAbG/Jo9CtFY+9H21wzmkuu2D8LL7KLFF5zni/pvKHGXLaBoytY7uQp6u4E4gmJSOBTypOKJFpvN+rxEEJtaWlpGdREXMpGftHs0oFCUiwwclyBFce9nvvCFURP3muY3NYUi/v80O6zn2ez2WgzgAi4Y/sYkuCjCAmho2bnSaW/Q43mHY40vtO7e0WfUc1/zsrhh8RRJyTxhLy1dDocjgE8hlfYGmuNELHY0G008ygrm3zUfGP64phEDCs0xJ9R9g95m/kqZ2+3EDYmebGhWyq1fmg9IQqHQsUxG+CnLMr/cMohcExcuWjozlkpcTeu5lUbeWAViDXIXQHy0zPRUj9ZOkWg4nErFErtIknzVYjWvXbN+fdsnbTOO5f5CaYLX/vzni/Umk6CK4u4Lr7iioNJ2wzkmSOKcTMWWqzTxDavD1sDodHrgYtGakZt6DhPzoPgRDYdPxILRN3Sc/vltu7YV7Grf0NBQRqnqbQae/5bT6dRj6n4Mw8/DNZxKp4A1bsDKIsty2t/Z+SpL89e17m0dEbP6iAEFDLihrmERoSr3uyrdCwiCoDG5TW4WZgSOQoNePN2eNlJhbt+6o+XNwSyaCxcvLk8ms982Oa1XirJ8Lk3TFAAGptODhYCKKs2PoyePQtDvP65k5RaWY1812S1/e/PNT0eticHQbiTuBY7CoKpQSEonyfLWFZddNmwa+kL6e37j4nmhcORLjIG9uKzCfTYotzEbFXqYIicB4i8eaDzPi8ePHj0iJDJ/pRnu+bZ9bYcLeZ/GZTc2GmhR+SbFMTebbbZKTOaDFcbzPQfvh4MN1igcbNA24PPtU1LSrdWTx/9jOJyr+urHiAIF5NZMhGK3lZSX/hej01VAB5BrwAg3+KwvBO+rsxpRAgExFomtNpgsd7W0NBeM5JocqhUYUq8UFPFbthLHdJIkzUB8zN+J1arQeQZ+A2KLgpAUssIH6Whsrb207K9r31n7kUzJ+Sb4zPcfpwAAhYkkP2vmeXMyk9l00eWXj3hcC+itAl2Bc5Kx6FJBES6xOOxzHE5nCaw/DA0H6wasCQQNTGMAoJFJp2Nd7V37WIr5jUDJf9m9e/egwrYXz1twsUIpD9qczmlYkBlEbbgK8V4GLhgsMFjjBoAilUyGk9H48yxp+GnLruEzh/aesREFCngZJLcJBrz3VU6ohSQcBpiUXBEDg7iQsxhoUyGqx+PxqM/re91qtN492FyLsFjS/vjiYCL8A5rTLbDZbW4EMOgbetyhZhtzLJwURyLdqXhiF8dwf7PYTBvP+F0MHQLBh8LMMFdYLRZrIhJZt+Lznx/RuixNTU02MZa8mKSpz6oMPd9is9ayLKvFqsAF+jDkLtECgX44ABrpVMqTjMTWGjjDrxhev6kQy0YudRrnNE4SpOQTJeXlK51Op2b6Bx0IKu5hbedLTgzfQztwSOy5lM7jx1sMjP6mDdu35PUzGvpsEVCKcOSvxtnz/l2lyZtKy10z4G1YNAgDiVChky+MFgiLEyoIQkckFPktw5qf3TKIGoo42pWLlp0dTET+SyKVCysqKyerBMFiUBkCUm7/0DVXlqSUp9vTLqayO8w22585E7dt7dq1A3rfjTyFP3lveOPJJzmmuvpKs9XqiMbjb1x46aWHR8LxCg6GUJdvQSgS/JrV7lhkMJsmKYrCYK6MHkepU4ps5CgALDT/H1nOZFOp/WF/eK1ex/1P676dgw4mBItKkoitspc4vsnq9WY8KDFnBaxreG8+z2WYZRSL4N54NHpMTgr3Z2nlpYECzoZjdZwWoGhqaiqJ+cOrbCW2Kzmj0YWu3UAwJA6m/M83KDQlgRjS1dFxWBSJJ3Wc5U99JeXN9yzwvlNo8eKsmP6KyWabx+k5K2q2sW+YYQi95lDpJMtyNBQMHU3H41sdVscrBrt54xn9RT6K/+v79atWMcmpUy+3WXhLKBpfd8mVVx4bZqCgzl+wZJE/EPg8oSPnV9fUTJZkWSvpBxsUQADFC5hjNOHDiQ0HF8/zSsDv7/B1dO60GCwvUhb9G4NRoONIwfsybPb9iGSZH5WVl7tRt4DAAOsK/sbCVgNREEVi6F80Ekn4uj2vW02OG1tOQ8X30wIUMPjljctnp8T4PfaykuWqqnK4AWHjo8dbPqsHJkPBdGMw6d5uz4csza2iOOqN5ubBp/qCbE12vb0ukgx/F5LGGEyGKpoGE//Jqk6g8AQQA9kQuBlUxKIpNRKOBLPp9LukQr5jczj+SXP0B2c8O/MDhmYezWbP50wckUlm933uq18dlpoeixYtsnMKfU4sHrtApYkLXeXuqSaetwIAwOFyqoRhT0IZWH+oZIdDC5I1x6LRZPvR4/s5kvlfmqP+um3PniGXElhYN//rCq3c4XS5JmCgJKxf9EAGSoEiFXNc5qMcrD8FqkCFQi1ySnp48+5toNQf8azspw0ogADzZ837lsPtuFYlyXPg/1y3VUDJfIk5UMmEOQB6EFbt7OjYY9Fbb4lmom/nCx7rbyLObzy/MpmKf1WliZW8lZ9pdzgs0B84dWBSMc0YZi+C56DvBSy+RDzeFQ6EDhh03BaH3f4GYzbs/SQk9c23MEfy+xeffXYKq9PJRCbT+YXvfa+onKYnAd/ckEwlLxAJ6QKb3T6Jt1hK8SBCkRfmD9YNcoiowEYLQtDv745Hols5inmBUgwb+0tZVwhdFjcu/jdByjxYXlk5GR23oD/oM4HRzJgur5BYKLjH7/EcySYyz5lZ+3NDdZ8vpP+595xWoLh40cV2f9xzl7XE/h8mM+8ETTPGXfj9fs0payiXLMuCp8uzw2yy3/ROy1rIDTjkIKMLG8+fF0pGrzbbzAtMFr5WUVUWFhEGtaFtHUEtN8EI/B2LxbrC/sBBkiD3W8yWtXqL6YDNZjv+8suf/OxOQ5mb/tqAH8VwiBp1dZcYbfpUQyweulgl5AV2l+tcKG+Y65+Duqae01jjCjFQETO56xgm6enoOkjI8l85mvt7X7U2Ch0/mEEZhVmh0vI9JrN5OnCieNAM9Az0XkZOFrkMjAqF30JGCHg7O/5qNuhXbWxrGxYurJBxnVaggA6taFoxLRDovqNiXO1KnU6n1YPIzRRUSKf7ukfIZmNBf+BtPWd9eNPW9a1DfY7WxyUrxmfT6eXxVPzy0grXLN5iLhNFkcotYIP5CXERYrIe+K2qqpJKJkPRSLRDkaT9vJ5fbTLrd5uSyUOflDojxdDvdLSdN2/JeEaR6jLZ9HLOwDYYedME3mzWbI04JzhfKC7CQQSHE7D6ME/g7KSl1k+ljguJ1DodSf8hTSm7e5f2G+x4lsxfcimlU29yulxaglzsTz6rBnomY+kJsIjAIYVcCEPTqeOHDrVaefstLTtbtw62X8Xcf9qBAjq7pG7Bilg2dvvEyZMXZrNZstDkofkGGgmHI6lY8k2zyXp37+ro+dr29f2yhmVTEpnI55NC+oKKqsqpVpvNDicR9BeAIjfrMi4CEFXgQpf1WCyWTCcSRyVBfp8m6TaLmd9ASex7q7eciVAd7JxAZLCYEqclk8lZBEkssNgs9SbeOIHR6UyYGQ3NjLnJm9HKhjVH0Lqmo2l/OBTal01mXmEZ8vXNu3Z9pPbtYPsH9zc2Ns6jSfJevdF4gVbsp6eAdyEFsqA9xiABwABQBINBzRwKn3ceP76LSImPbjv47scKeg+lr4NpMypAsWLGClNM9X+fMOi+43K7xwP7B8rCfDkB8w1Mc0iJRr1BX/Adm8V+T/MwFZhZtuC8xlgq8UWKoc/jreZJJpOJR286BAb4H4vg5FpwMKmJIAiyoijd3R0dh1SFeM9s4t826s170mq6ayja9Hy0+LR8D+CQTIoTdao6KRD0r+QM7CSTmZ9otVrdNMNwsKEACNDnAced6/ELn6FjHfwty1Lc1+05mEkm3+L15r9u2tkK1cqGLK7iOxvrGqcTlPSQxeFYwfM8jR6dCF75dHCwfkHpiiHtmqghCJoSNhWPd4Z9vhdIg+GnxXI8Q1kbowIUJ9n7JeMDgfBtZTVVlzM6xo5mz6EMAttgmHo2kw0kIrE3TSbzT9ZvWr+nmGdiW1CWmUj9BQqpflYi5eVGk7HWbLGwGE0ICxZ+YJLhAvYRJhrkUwwygs9h8SQTiUAmlToiZLOHCIXYZ7VYd9I0dzwuxE+0tbV94iqxDwd9ez2DapzZWK7q1LOSyfg8UZLnc3pucmVVRS1F05q4ijoI5OxyU9WjEx88E83ZPc5KqThkxI7EWs0m84ubd20HfdawWAwW1C+YRtDybTan899omtbqjmJeTdA1gLiTz08IlZnAieABBO06Ozri0UDoNYPR/FjrztZRiTkaNaCASYS0aolM5D6zw7YUNl0+xM23IFGzDIsmHo/7I4HwWovRenPz1uZhcw8+f8H5tYKQXiap8md1HDtNbzJUMwyjR1df6APm/sSFAqIKnAyY2wAzhMdjsVQ8HvdlUqnudDrdZdAZWzmTYbeO1B1OK+n2oVpw8tFprH4PUZWiopwTjYSmSqJwroE3TLTZHRNsdlsJAC6ALyoGkabIsSGLj+w7Os9pMr4kxcRs9qi/27fLYrS8JLIq6CGGTRE4d9bcWRQlX8Px/BerqqrYcDisHRIgMmDFrkI8j2HtAEhgeHuPAlToOHq0xcKZ7t28d2fzcAHbYNfAqAIFdHZx/YIvcWb99QbeNGewne99P2xQIDQkfAUkjkYiwVgo+jZvd91EEJmOwbrdDtSf5QuX1wiy0ChL4kqONzTyFr6GoijtJEFWF0EDRCpgjdGZB5VbGMIM/yeTybQsSV6fx9uRSqR8DM18YDTy+8xG8zFZlT1ZIhsYae+7YulfSHuI/zEYDLSiKCYqmzUKEjEtnkpNTyWTkxVFreKtfKXBaCgx8SYny7I6oE0uHfF/VB5jPZfcNHLIXaTT6YSQyRzNxpNrSInYQEvG9S3vD2/KAOAkVEK6gTFwV9psNj0AVK5yHjgD0DVg4qSBaITcUU7Kf9Xb2bmbUsifjDvnrD+NVMBXIfM26kBxUcNFlpgc+SZj0P3QYrOOK6TT/d2DcSSYeQiCZ3xeXzgVSzRbLa573t7w5rAnolkyd0m1SqjnxdPxC428oZ7nTZXgppvrmIWnHrrs4qkHv9EzNdc/Q1VVSRSEWCKeCCcTCa8sKScIRT1i1Bvf50yG44JCdqXTka69e/cmi6HX6WgLIpter9dDUWk9SZaJEnWuIAkzkqnkuRRNwsZyG4zGcpZjS1mWNaJvTS5doJ+oi8BgQnR4w6hjaIfRldlMJpaIxQ8lorFNLMutpQl250iEXzfWN86WxMwNRpvlUpfLZYQ+A0ggJ4EcAlZPy0dvBEHMxeLr7j6cjMRe0JlNz2wb5YTFow4UGldRt7hckFI3WUsdX9YbDVruCoytAHMW5M8EZedg8gr2mClP2q8FKeLzendZHaU3KUr2wEgULK6rqzMyMnOBQkiLaIo+z2AxTjDxvBMXB55yvRc6ytNoQ0fFF/7fY15TRFGMZdLpYDKe9GYzaa8sqR2cTndMb9B3snqDj1CJuC6hO9h8oBnAo2jFXL5F3d/3EFvh9/vtsky7KEWqlCVhvCSKE0VCrZRFoRJAwWQyuTiDAdzlKfTGxU2OimB0V0ZwxergaMFA/QOKq5pvRDod8PsDh8VUZgvP8a9SBLunGIepgWiwaPaimSk1ebfJzH+mpKSELcSqgaJx7ppAhzB0/ILnADfc3dnliYfCr1h440NjoTbKmAAKINyKxhXnhJL+VaUV7otYjrUAKECmq/LycggtPwUcA01ebxdw3ISavCqKcU+39z2n1XlPUtS/09Ly6ohkrVo0fZGdZOQZAiGdxxrY8yianqTj2DKWZTnoB7oM58rS6LSFJj40v2L8AY4Z2WvNcUiWs5IkJQVBSMiimMyks5FYLB4mCNKno3Xtek7fzbKsR8fpvIRKhAmZSKh6NUPHaTFOxwWz2Sw0NzeDnFQoqFBTpkwBsYGxE3ZdiktxFEXxxeVSTgAAHcxJREFUqso4pGzaJUlqaSadPEslVADHUpqhnAajodRoNDo4vd6q0+mMuLlzwTLXca0XV3UqmhODBlEPgdyENr8EIWTS6e6gP/A+pZDvcKypWaCF/SMppjXOafxsVklfX1pW1mCxWDgQL3IVqP2tUUyQBIABayEXFNHrGHK6Bvz+aLCr6w2b2fnAhrYt/ZbVHCqYD6XdmAEK6PzSRUsbErHwbaVVFeerqmrEOgmgwEJN90CD7H1P7mmluYjLcjbgD35oMpofYjjqjZGMydBSsdtjk1RBmqfSynyT1TJPx7HjoThSrsY+VwZHTTmy0QAYyIIjaOT6B6BIg6eSVmdVlLKCKKSEjJDKZjIRURDCiqTEZFVJUCqRpCg6SVBknCLJtCzLkkqSCgk/igp1v7IkqaiEQqoE+ImoKk2SJK2QhA4SgUHdG1VWOUVVjRSh8iRFWWmdzklQBBTFsdrsNitJUSaSJPW5QIh9ztXfwPe5HpOofITPcBMhgOI8wm9k4ymSDIeCoc5YKLaP54yrdQy1LZiNHzowgsWcwOOSkInLCUL+MW+11oOIgVGmhUR/olUOTbUwVgRK9JuIhMOpQJen2WowPdDc1lpUBfKhAEJ/bcYUUEAnl89vavKEPLfUnjXxPIZhWEzoAZsnn3mpLzDJ5TJ6FqEc8PmPGA2mpzgj96c333zTP5wE7etZyxoaykSRnhpJxj5j4I1TTGb+bIah3CRNa9XfcWNg0BvWjMAYE2S3USGGdMCTGdv3FyuQK4aRBCmrhCoBSEAdCkJVASgIkqJUWZLA7qjCouh5J3iVUSAikCQBYgKtKPCjAIBQeNKjmAibOFd0QpdpNB0j4OPpi/3CNgiUQBPcgPhsbUOpajyVTHoi4fARRVS3m1jjOzTDHhjJhC04nwASqqB+g2HJ75pttukQPAZKc6ABAAbkhYXxDXTB+GDMaA1DcQVjPlRVTXcdPb7FxOrvp62md4ZT+V7sGh9zQAEDWjC74XMypVxX4nY1cBxHIkF7ixaFDj53QcJiBvauu7PzqKISf7NYLc+vXr16f6HPKva+hhkNVSolzRQFcaGBN82z2CwTaYYuVVRVc8DAzYc6CvQmhP+xRCOa2pCjQCUunsDIseQ6HeFJnWtOzJWVc8eVe4KjuAC/kdPJ1RMgVwBgABsFaY3P680BYaRmLuudaxZHsIPNQ9O0KgpCPBaN+qPhaIcsyVsMDLONZPT7Wne3jmiim1x6LKhbMDErpq+iOeaLZW63VgwbgQy4OEyOi/Tvb43kevOiazbQrMdcLh4+cHCb3cg/xDgsb44lkIDxjEmgAG+8bCRxlUQT37E7HdMBsTGKc6CN2ttW3dvyAKZT4FBgkuFvr8fjVyR1rdnm+IkopnafzsmBGhIlButkSVLqJUVsIHTU2Zyeq+D0nFPHsjzLcXo8kRFAoO+42HI3INIEo1kROPDzXBEsFxzwWcgC92b1c0Gi9999vR9lbnxeb2DH+YHfqJjG/AxwL7Dv2WxWErPZaDqd6Y6EQselrHSENxq26Bj2oJBW29s+aDut9VYW182fk5ay39YZuMtKSku1bGgo/qBvB4wXFO6geM+3Pnt8I065dqM/SNjna6Nl+kmjTn21eZAp9oo9vAppPyaBAjq+rGFZWTwV/rql1PYlimFmgx9CPoes3JMWNxcSAdqC5aSsrEybaPBpKC0tJSLhcCzkD+60252PcSZu7WiEhi+vq7MKjMklC8KkTDY9M56IzSJoqqq03F3pcNgdFE2bBUEgAdxwE+ZyEbjhe5ekw5MfRRQUDfDzXI6jr02NYID3o7IRFbK5ymIACdgoCAIoMuRyGLlAgZ9r71XVmKqqUU9Xlz8WjZ/QU8wes5nfIqvMB7JO7hgNxzOwYhlo9uKMkPlPi922wO5wWIHmKBaiQhU4CqAvrKd8IQgAipgYF5PlgMI+k0i8m41nnjXpiD+MRZAYsxwFbu7ldcutSSX6XZlSr6oeVzup90bojYR4AuOixw2EpyGiOUx4bi4AhqYFvz/wno6if2U12P/39XWv91uivhD0LfYeSL6iE3UTMkJyalYQ5iikOslgMroZhi7lONbMsCwEQbE4rlwdRO8x5wJALmucK44hkCAQ9xYfcsEW70Vzby73ADTFtrlcTS7LrSiyIAhiIpvJRNOpjFcQhHZVVg8xBHmMY437CJU4vmXPllGl/4IFCyYqGeErtI6+wlZSco5Op9PMn3ABSCI4YPW7wdTlQIcsTMXX3d5+UBblX9AK98fWfa1jNqXimOUocHFCQplILHito6zkCpOZr8WkH3i6AcIDC1iIHTvfBvZ2dX1oZLk3rBb7K6yc3fvy229H87UZ6e/BYcnMmMsImihJxmJny7I4TpKVs0iGrDaaTE7OqDfTNM0D524w6DmSojhVVSntFAAlZc4PfJabQAWViOhmnAsyfYkWqF/oS8TDz04CCKHK4DImillJFMG6EldkOZZOZQLpdOYISZBHGYr5UKfTfajq1KA5aA43H2s+GXY7uhe5pHFJoyxnv8YaDRcbTaYqBFd07Bqoe6iMRTMoiMvAZSCQQFuM+4Hn+bu9H4rp7G9pgvv19gODK/B8usk05oECCNI0t8mdzMZuNFpNl+uNxlpMgIoVz7GiUz7RJB9xgbX3eDwhRZIOGGjdbwk9u27NmjVH87U73d83NjY6uCzhUGnSLghSVTqTqRVEqVpSpHK9Ue8w8gab0WCysKzOSJAEKwhZVpQknd1u1wmiqKNpmgTLBSpIMTYFrSm9uQLkSlCrr0AuNkmSJFkWZEkWVVXJqqqakQQpkRUyAAhBSRDDKqH6KZI5oWeZ4xTD+hRaCamqGmNZNjLWIma1iGZd8N9Zlr2AM5nOp2i6BGu99Nb59DffQKdcy1yuGAafYxJdAOug338oEY79wWSw/nrzrs1Fh7eP9Br8RAAFEOGChgvOCqcCP6isrTovkU7NQLMUyMUY8p1P65yPmPAssIhks1kFrCIGveFV3mB5YfX61cMSgZrv/cV+D3K1iTI5KYJyqqpYKgqSU1Zli/r/27vWH7uq674f531f8/R4/IrxIwZjO4CpCSZ2Jh4zjiGQKC1qihQpUtpP+dKq6peoH+g/UFVRVPVDUyk0aoRQkRoaiBxspsbOYBMwYDAGG2Ns47HndZ/nffbe1b6eRTZXZjwzd1535twvdx5nn7PP2nuvvfZav/VbiGUxItkwCtYngucJoZrAQtaEtUzLtBjnlq5pFFNKMJLwiTqSict5jxFiSCCGMIprlYpHCA0o1TzE0TjiYpwSOiYILlGBKppujhKdVBDzSxO+X2wFiLl0Kvd2dt5drXl/rdvmIdtx7iKE6HLnh91fDUdPNUZwnJXXAD8JENfIv8l5Kje3arl8KSy7z2rI+fnp86fHmx33hWjfMopCCkMeQ8rlsX808s5jXd3dG6CIsdT4Uvs3a1HAQMpnSeuiWqkMV4vlN3KZ3LOmcI799sRviwsxKPPwDLJ79+56kL+NUjuKTcIJt3VDN3CCTaJzRwihc07qRxZCOBeCMvmNhUgE15mmcSZi5iGBkgiRODGTkDEWDA0NhYuV0disnPbu3btK1j/lQjzl5PNft2y7Exy0ctMBMJy68Kd6JoSg5TVghanYCfn/8sTEhYnR8RfyXR3/tNSsqqneraUURf0Y8vW+jdVa6SedPV2HECU7pQUgtbY8D84kF+R2QoGBliajvGcd4MS5Kxg7G7n+q3a28N9IR+ePHDmy5JOxml1Ey7m9BE/lqLXLDWs/FIQcXLV69aaEMb3R96I6xYF3ZCq5gI8CAGZwdJH30Shl165ceZ8H0X+6PPnZfCJI52PsWk5R1JVFX59Vvjn6Uzufe9LOZr4GlGO3c8DNRGigIOTAAioSAEXVSuVG7IfvmbbzK83UBo8dO7bkz5UzefeVcu2+ffu6RcS+E4Tej/MdHTs7Ojry9Upgvl8/GqhgNbAMbodDuZ28ZFt5/IAICZQHcF03qZXL7+BI/Fsl8Z9tNSUh37UlFQUM0gP3fO3vkIb/at1dG+7HGGvNHj1UsxMcU6A0JuuTRsXxicsoEUecbPZ5PdbfS7kvW0PFHD582Ix8f59fc59KBD/Q1dOzBZL05DcsajWUCyhWwI1MBycB0TgII1cqldCr1t4SQfgLZurPLgYmZC5GqKUVRd/2vmxsBY/5cfA33b2r9hlytJv4gKJpxCKA1xtqQkiG7WKxeF7D9Ei2Lf8i5/zdhUR1NvGKK7LpwIEDe2tV9/sC8YFcW9sm07IyKkhNLceggtDANwHQ9TvV3bjl3yH1yEcd5h2GldGRkdctavxcGHTw5Mm5Jc1ZyMFsaUUxKSh84M/27xspjfx0/eaNjyCMs+CrgLg/DHgj+nA2goZQoqxJUZyYGK4WK2czduY3dibzhxjF76UKYzZSnZc2+Nv9/Tsr5eq3GeLfy7e13WvZ9q3S4bP8KGNf92HJ+QRZvWB1QAp5FEXF2sTEMcc0//nY0NDQDNL5Z9m7+W22HBRFXUJ9e/oeLFXH/2Hdpg37BUKrATkodwgZ/58Llm/whMNuJHcimZsQ+v5V1/XPWtR4xcwXjr/aIuHU+Z1ai3d3yWsaht7hIPafyhYK29s7O1ZPl2Vqql7D+Df6LCA6Ig1aaUlUyuUb5dHRV3JO4V9ePXViUchw51r6y0ZRSMHsf2j/1lqt9BOs08d7163dVM+DRqgeEWnyVFKXu5wQqsMUUHdSYdRqtTCO4uHSePEjU7NeyuVzx145/sqSIB2Z60mzVO/Xv69/u1ur7i/XSn/e2d29rad3da/v+5rc7SVrFGTizrb/QJAMGAl5Hzkf1NyXSql0KXDDF9ss51+Pnj4x65qls+3jfLVbVoqiblnIEvNx9Wmh8x+tXrtmJxfCgmI80ykrP5WgwSMOGY/yWnlvOJdO+jiS8bGxG5ViWXJcvlpob/+95mlnXz71cmW+BnGl33fgGwO7i9XxR4PIO9TTu2ZTNp9bF4ZhfZOAvIxmx17eC3JZVEKhz1nB5VljbOIci9h/YIu+MDS0uPkqcz0nlp2imBQQ2XvfnsNlr/L3Xat7HrRsK3cnj/V0BaumZgOnACgQME3ls3RdZ8VicaQ0NnFRI9oJx86etKh1esQbKbWq53u6MlqI62SInDCyvTwx/jhD4ludq7ruMW2rngaucl0AMhLyWprpm1QUYJVIBSEtCYnmjcKgGFS9t7Agv8ixtt8ceXf54WyWq6L43G9RDSt/27Om55txkqy7EwPRdCaRnByQIwG4CxWopYZo5bVSmQS+P5KE8Q235l7J53P/Sy3jRKVS+ShVGNOR+BevGdg/sN6LvXu9WvVbCKFvFDraNhfa23sgIgEwfnA2yt+lcxsyh2f+xD+1kL4JqHouLUkJx745PHxZw+QlDVu/1nP6HwcHl0RyWzOvedu2y1pRyDd+9KH9W0u16o+d9uxj2XxuG6G0np49mw8U7lF9FapjS/7cmG2oRmBM0/TGRkZHyqXyOUPXX8s72de4QS4ePXp0yaYXz0ZOc9lGZs92ZjrXBUmw3q1WH2RJ8iA19e1d3V3rLcfukAsXrAUpayC6BVQkoCTr6EhNa6prdU7SScSu73l+4HrvE46fo5r5P8dPHV8wxq2mXmKWjZe9opByqTNjm7zfDb0fdfZ07bFsu3s28oLwGBwx1GQhcHI2hmDBwlBJdTDGLAyCkfLExKdxzD+wLfP3lpl5NyHJyGuv9Y8j9MyclLmbzTsulTb9/f09IhabA7f6cJzEewzLulszjC4nm+k0TbNeaAmIYICaDnJ+5O9SgaiW3pdxbMzkfaUzs25JVCojxbGJ123N+qWOreODbw4uKOvWTPo8V9euCEUBwpIl65Io+osEJ3/Z2d21JZvLGfLMCWQkwHUBFgOg7OSEbDYz9csGTHJCutXqNbdavZokfNi0rLccJ3tGUHGNEDK8XE3ZRnnIeiDV0er6BAWrg6r7QBiFe5CmbcsV8ndZjtNFCJGEvnMy7wFAB5YIKHGpYIAFTM0cBTg/wTi6+umnF1nIjuUz2V8Onj75xznpUAvcZG4k3wIv+rmyuH9fdyLCRxnhP8wWcg/k8vlVcuLICSJzRuB4IU1YgOEC+ct8v2YUhp7veeNurTacxMlnBOH3Mk7mDdPU3qeOc3O5JaMNDAzIgsOd3PPurtW8vZiSuy3H/irVtB7dsmRJQVk7pA5sAt9QM2MAR0PV+lMtDbAY4G/gvKwzWRFSvX712plcJvfvGjYHj79x/GozfWm1titOUcAA9T+0b1cl9H6gm/pj7Z2d9ximUbcuYGLCmRZ2lrlg0LrT5FCtliSOIz/wy1EQ3gi94FMWx8Oarl/QNP0Ty85cIpyM+cgvnjx5UmayLvmjisy1SCpJZ2Ik7UmQdIVubUvEkvs1itdl8vlNiJC1lm23UUoJ7OBSXrBoIQ/nTjKc6v+gbFQ/kno0lM5uGcUAX4bcLBzHYaHnfXjtymcfdOTbfsYMfKaVodizld+KVRRSYIcefrjD9VG/z/ynO3q69krrQsXzqz6IuZiodxok8G/A4gBLRi4czlitUqlUojCsRmFUThJWxAIPW4b2sWFaFzRMryY6GiU+qdpddvHll1+WPBEL/nnmmWfI4OBgh4GMLkRQR+C56zzX3xgn8QYu2HpMcKesHJbJOG2GZbVnslnJ/1n3KYCShoxdgODL/0OBoGZfSD12wL0gvA1MaZAI6HvexM3r1886Rv5XwhQvnjq1dDktm5XLndqvaEUBwul7uG9L4FV/YGSs7yJKtmZzuYKk25MTVSX0nasz8pcNCux4Kg4AQqzyG9LpIasxjuMgiWM3jqKyrLvJGCsLxstc8BJGpEiwNmYa2k1qWaOU8XFBuBsKEehMZyEOPZvbmBIqmM3q3KDd3d0x9O3SpUtk1apVZGRkhFqWRZMkwZqmZQkh9RKEJjd1hlhOI6gtCMM2lsTtfhhs5AJ3YyG6ia51mLbZZZpmB6FEVhXLZTIZC7gnAaQGShFyJFQZN8q7WfmDsmmkEVCzhicrp3vFsbGPYz8azGWy/zV46uTrd1pIy/3/qaKYHOE6PTvR94Z+9B1GxL5ce36L4zh5QPZNp65Is5NFZVWCBSV3U4CKy7i9ugsCJb78m7JTyoUcCs7CKIrDOI6jJEnCuF6jNKkILmRJwYhSza1T3iEUG5peZgkTiKIICSKp8CSqUdYMIwILijCnWGDKBM9wzizOuMMRylCKsxrVMlTXLMkKns1mHYmEFULIEDQGpmkw9eFoB0cKeBfwBd2O90G+F1gYzYY3AW4tnwvVulTQnCTZrpRKn/pV7y3TdJ5jlL22kq0IdT6niqJhdQ/sHVgVsNp9oR98l1E0UGhv+0q+UNAXwkehOk1V8xu6CFD0xnO7utPC/1RCWLgv7JyQ9ZgkieCcC8MwIrlgkji+VbB4MrqAb30mSwpiYhgGgX7dugx/oSARHNXgeRBNAHQkZFqCRQQKA3Z4lZi2UYnMBWBK3lO12iCZi1IiCyzevH7l6vmskfs1NY3/O37q+MVWz/hsduNKFcU0JHjwkYMb3FrlsKDiqUJn+3ai0dWaps2rYgUrAha+6miDhaLuvsDHCH9Td2pV6ag+D4ggQCEa+TuQtqjJTrcTUSPDtOr4hb43tgPIO6BYgSwGnMWgeKDKmPp+gK4EhTSNYZvykrqvR9YwnfzI+/uuOxyG0bnYDYYyZuE5lEUXV0pIeibynNeJP5OOLNVrB/oGdtTKle+FLDqQ78jvdDKZLoAEwySHyacW1FUXubo7LtX3bJV+gVUEix4cnmrxIfDryHeCsZI/A92AvNat1UYnRscuaIi+ki20/a4W1t558803p64J2CpCmod+popiGkKVZKwFo7BjvDj2dLYtswcTshUR3C0nqzwOqLtkI5gHdmnY/afxuPSSL5EAFNaBYyDIFmQO5f6khaQSysDRR45B4PtjSRSdi73ohGmYv8M1/czgucFaKvSpJZAqihnMEJmxmCHGA+PF4vepoe1p7+zcJrDoSpKEADGrCuFWHXFg4s/gcemlDRJQZSuPI6oygIpxdV/LJPsUKIg6LgOhsUqpfDEO4j8U7PwLFeGdPXXqVJr6P81ZliqKaQpKvezJR57MMRrsLLnlJ/w4ejjbltvi2M6qhCWyClc9SgGmMZzd5woHMIvuLpsm0iKAaMVkGPPzkomAuoRveeRgjEVutXrTq7nnkiA8k7fbXkJY++joqTQJb6aTIlUUM5VYw/WPSx+GWzvgxUH/qt7VOxBG3QKhnArQkg66Rkdak49dkc3VqI1UGpAEBn4IIKeJwrBWLpWG/Zr3gUWNo0Ym8yoxyYXUSTn7aZMqitnL7vOWMqHJnXA3V8vlASaS3VgjO+yMvcHJZguUUhN2vztFFeagK8v6FhBWlccO1aF8K/U7DHjCiq7rXouD6A2TmscMi7yDTPNySnjc/LRIFUXzMvzCHSQOA+tsW6VS6ZMZkMTQNnd2d60ttLVlfd+v07Oln9lJQK3WJa20OI5ZrVotRWF0LfT9tzVMzliGPRQS9vHp061R03N2klj4VqmimEeZH+o7tCUK/Adcv3YgTOKtHV2dm0zL7NANoyna+Hns8pK+dR2LEceykHo5DMKb5VLlQhyE7+Sy2eOGZn+40jI6F3KwUkWxANJ+5JFHcqYwO6LI/yZDfAfCZDemaLNl2+1OxslJIBfAi1UYswq8kmdyKMTciNEAQJWKJVCBRQBiUuniGol2VGegivxUIw0qZByukeIDUBVgGuTfGv8P4CwVRdqIHpXtIc9FXqegU5MkjqtRGI9UyuXzSRi/q+vmaUMz3nv97dcvL8AQrvhHpIpigafAwYMHCzRgGyue91AYhtKfsVXT9V7d1Los2y4YhlGPnMBCgQUMpCqw6G9HpAO0cLBwG+HcUpHAIla/QQSwiG+XmAXIyqnaq2AoFeMAPhq1z4C2VP8GDt960WnfD8IwLLEkucETdjkKwg8Joe9qmvm2XbQvDV5entyUCzwdp/24VFFMW1Rzf+ETu59wXNPtRQhtDmN/F2PJbifnfFXTjV5EsORmsNUFpfIowOKTvZJndyh3qC5kta38uV6dvZ4H9qePmq8BUYPbWRvwHNVSaISJAwUd3Ef+DolhquJTI0KK1SA7Vgv9YMJ13c8iP/iIEu2sY1lvck4+4QYfHRoa8ud+FNI7TkcCqaKYjpQW6BqZX0IoWee7td0hT+7VdG2j5VhrdEPvwQTnOeemruv1rEwV8QmoTyDZAaAXKAX4vl3UZSorQj1CQMQBvhstG7B81IQw2R64LYFvdDJRTCajhSxJfJYkpThORsIg+iyJog91or2vU/pBFIrPNtyzYez5559nCyT+9DFTSCBVFEt0esi0dwc5BU3T1vhJtCPw3W0IodW6qa/RTG2trmkdhmlkdcOwCSH1M4VUEHIhwjlfVSaqzwJeWfVFqMePxsWuikht02h5gI8BskYnrYVICOFxxrzADyTxzpjvedd5LEYJJVdM0z6v6/onEYrGyuXyxMWLFxeFcGeJToMl061UUSyZobhzR+67r6/N4F47JbSXC76ZMbaBIbaW6nQdxrirvbMtLwTKcs4yMimUUqJRqlFC68S0VHWUqlmdjdmq6vGi8ZiiKodJ64IJwRMkUCx5L5I4DsMwrvmB58VhXGIJG6aEXCMEXzd18zzR9NEEJ6NaWSttuH+Dm1oMdx73pXBFqiiWwig00Yft27cbWZ7NYQPbBJM1gohOwUVvwpNuxFE7ojxPMc1qpp4Xgndgii2pRAjBBsbEoFKTUEowwYQSQrgQiHOBhOCS10bmZEuvBscCcd/3OCE0whj5ScxqcRxWOUOSTacmuKgSTEcJRqMaptcZR2OIonKM44mOSkcldT42MchLoGmqKJbAIMxjF/CuXbsc6lGHGMSmPLGorpmCIYdrNKMjkkUY2QwjWRlH54JLdioZqhW4nqSCJTVejBGNCREJT5hHMAkZSryYI48z7vOY+yQhtRIqBZcvXw7m8V3SWy+iBFJFsYjCTx+dSqBVJJAqilYZqbSfqQQWUQKpolhE4aePTiXQKhJIFUWrjFTaz1QCiyiBVFEsovDTR6cSaBUJpIqiVUYq7WcqgUWUQKooFlH46aNTCbSKBFJF0SojlfYzlcAiSiBVFIso/PTRqQRaRQKpomiVkUr7mUpgESXw/38kNWeTQPd4AAAAAElFTkSuQmCC;gliffyId=134;" parent="2" vertex="1">
          <mxGeometry x="416.95" y="396.5" width="42.7" height="60" as="geometry" />
        </mxCell>
        <mxCell id="25" value="&lt;div style=&quot;width: 142.0px ; height: auto ; word-break: break-word&quot;&gt;&lt;div align=&quot;center&quot;&gt;&lt;span style=&quot;font-size: 12px ; font-family: &amp;#34;arial&amp;#34; ; line-height: 0&quot;&gt;&lt;span style=&quot;line-height: 0&quot;&gt;&lt;span style=&quot;font-size: 14px ; font-weight: bold ; line-height: normal&quot;&gt;Universal&amp;nbsp; Robot + *&amp;nbsp;&lt;/span&gt;&lt;br&gt;&lt;/span&gt;&lt;/span&gt;&lt;/div&gt;&lt;/div&gt;" style="text;html=1;nl2Br=0;html=1;nl2Br=0;verticalAlign=middle;align=center;spacingLeft=0.0;spacingRight=0;whiteSpace=wrap;gliffyId=135;" parent="2" vertex="1">
          <mxGeometry x="369.4985205078125" y="694.5" width="145" height="16" as="geometry" />
        </mxCell>
        <mxCell id="28" style="shape=mxgraph.mockup.graphics.lineChart;strokeColor=none;strokeColor2=#666666;strokeColor3=#008cff;strokeColor4=#dddddd;shadow=0;strokeWidth=2;opacity=100.0;gliffyId=141;" parent="2" vertex="1">
          <mxGeometry x="635" y="181" width="194" height="100" as="geometry" />
        </mxCell>
        <mxCell id="30" value="&lt;div style=&#39;width: 130.3915px;height:auto;word-break: break-word;&#39;&gt;&lt;div align=&quot;center&quot;&gt;&lt;span style=&quot;font-size:12px;font-family:Arial; line-height: 0;&quot;&gt;&lt;span style=&quot; line-height: 0;&quot;&gt;&lt;span style=&quot;font-size:14px;font-weight:bold; line-height: normal;&quot;&gt;Port&lt;/span&gt;&lt;br /&gt;&lt;/span&gt;&lt;/span&gt;&lt;/div&gt;&lt;/div&gt;" style="text;html=1;nl2Br=0;html=1;nl2Br=0;verticalAlign=middle;align=center;spacingLeft=0.0;spacingRight=0;whiteSpace=wrap;gliffyId=161;" parent="2" vertex="1">
          <mxGeometry x="624.6957397460938" y="449.5" width="133.39149475097656" height="16" as="geometry" />
        </mxCell>
        <mxCell id="32" value="&lt;div style=&#39;width: 130.3915px;height:auto;word-break: break-word;&#39;&gt;&lt;div align=&quot;center&quot;&gt;&lt;span style=&quot;font-size:12px;font-family:Arial; line-height: 0;&quot;&gt;&lt;span style=&quot; line-height: 0;&quot;&gt;&lt;span style=&quot;font-size:14px;font-weight:bold; line-height: normal;&quot;&gt;Port&lt;/span&gt;&lt;br /&gt;&lt;/span&gt;&lt;/span&gt;&lt;/div&gt;&lt;/div&gt;" style="text;html=1;nl2Br=0;html=1;nl2Br=0;verticalAlign=middle;align=center;spacingLeft=0.0;spacingRight=0;whiteSpace=wrap;gliffyId=166;" parent="2" vertex="1">
          <mxGeometry x="619" y="646.5" width="133.39149475097656" height="20" as="geometry" />
        </mxCell>
        <mxCell id="33" value="&lt;div style=&quot;width: 102.061226px ; height: auto ; word-break: break-word&quot;&gt;&lt;div align=&quot;center&quot;&gt;&lt;span style=&quot;font-size: 12px ; font-family: &amp;#34;arial&amp;#34; ; text-decoration: none ; line-height: 0&quot;&gt;&lt;span style=&quot;text-decoration: none ; line-height: 0&quot;&gt;&lt;span style=&quot;font-size: 14px ; line-height: normal&quot;&gt;Insertion and Extraction test Polyscope program&lt;/span&gt;&lt;br&gt;&lt;/span&gt;&lt;/span&gt;&lt;/div&gt;&lt;/div&gt;" style="shape=rect;shadow=0;strokeWidth=2;opacity=100.0;html=1;nl2Br=0;verticalAlign=middle;align=center;spacingLeft=1.4693878;spacingRight=0;whiteSpace=wrap;gliffyId=167;" parent="2" vertex="1">
          <mxGeometry x="627" y="567.5" width="116.39" height="78" as="geometry" />
        </mxCell>
        <mxCell id="1v6BCpd65HdNt9j6V_Qv-43" style="edgeStyle=orthogonalEdgeStyle;rounded=0;orthogonalLoop=1;jettySize=auto;html=1;exitX=1;exitY=0.5;exitDx=0;exitDy=0;endArrow=open;endFill=0;strokeWidth=2;startArrow=open;startFill=0;dashed=1;" parent="2" source="35" target="7" edge="1">
          <mxGeometry relative="1" as="geometry" />
        </mxCell>
        <mxCell id="35" value="&lt;div style=&#39;width: 138.05443px;height:auto;word-break: break-word;&#39;&gt;&lt;div align=&quot;center&quot;&gt;&lt;span style=&quot;font-size:12px;font-family:Arial; line-height: 0;&quot;&gt;&lt;span style=&quot; line-height: 0;&quot;&gt;&lt;span style=&quot;font-size:14px; line-height: normal;&quot;&gt;TCP data server&lt;/span&gt;&lt;br /&gt;&lt;/span&gt;&lt;/span&gt;&lt;/div&gt;&lt;/div&gt;" style="shape=rect;shadow=0;strokeWidth=2;opacity=100.0;html=1;nl2Br=0;verticalAlign=middle;align=center;spacingLeft=1.9727892;spacingRight=0;whiteSpace=wrap;gliffyId=173;" parent="2" vertex="1">
          <mxGeometry x="619" y="405.5" width="145" height="42" as="geometry" />
        </mxCell>
        <mxCell id="39" style="shape=filledEdge;strokeWidth=2;fillColor=none;startArrow=open;startFill=0;startSize=10;endArrow=open;endFill=0;endSize=10;dashed=1;fixDash=1;dashPattern=8.0 8.0;gliffyId=182;exitX=1.0;exitY=0.5;exitPerimeter=0;entryX=0.7071067690849304;entryY=1.0;entryPerimeter=0;edgeStyle=orthogonalEdgeStyle;" parent="2" source="33" target="7" edge="1">
          <mxGeometry width="100" height="100" relative="1" as="geometry">
            <Array as="points">
              <mxPoint x="743.3914794921875" y="606.5" />
              <mxPoint x="901.8427124023438" y="606.5" />
              <mxPoint x="901.8427124023438" y="299" />
            </Array>
          </mxGeometry>
        </mxCell>
        <mxCell id="40" value="&lt;div style=&#39;width: 202.0px;height:auto;word-break: break-word;&#39;&gt;&lt;div align=&quot;center&quot;&gt;&lt;span style=&quot;font-size:14px;color:#1155cc;font-family:Arial; line-height: 0;&quot;&gt;&lt;span style=&quot; line-height: normal;&quot;&gt;socket communication&lt;/span&gt;&lt;/span&gt;&lt;/div&gt;&lt;/div&gt;" style="text;html=1;nl2Br=0;rotation=90.0;html=1;nl2Br=0;verticalAlign=middle;align=center;spacingLeft=0.0;spacingRight=0;whiteSpace=wrap;gliffyId=183;" parent="2" vertex="1">
          <mxGeometry x="815" y="404.5" width="205" height="31" as="geometry" />
        </mxCell>
        <mxCell id="41" value="&lt;div style=&#39;width: 157.0px;height:auto;word-break: break-word;&#39;&gt;&lt;div align=&quot;left&quot;&gt;&lt;span style=&quot;font-size:14px;color:#1155cc;font-family:Arial; line-height: 0;&quot;&gt;&lt;span style=&quot; line-height: normal;&quot;&gt;socket&lt;/span&gt;&lt;/span&gt;&lt;/div&gt;&lt;div align=&quot;left&quot;&gt;&lt;span style=&quot;font-size:14px;color:#1155cc;font-family:Arial; line-height: 0;&quot;&gt;&lt;span style=&quot; line-height: normal;&quot;&gt;c&lt;/span&gt;&lt;/span&gt;&lt;span style=&quot;font-size:14px;color:#1155cc; line-height: 0;&quot;&gt;&lt;span style=&quot; line-height: normal;&quot;&gt;ommunication&lt;/span&gt;&lt;/span&gt;&lt;/div&gt;&lt;/div&gt;" style="text;html=1;nl2Br=0;rotation=90.0;html=1;nl2Br=0;verticalAlign=middle;align=left;spacingLeft=0.0;spacingRight=0;whiteSpace=wrap;gliffyId=187;" parent="2" vertex="1">
          <mxGeometry x="759" y="380.5" width="160" height="32" as="geometry" />
        </mxCell>
        <mxCell id="Mmk1gVjBXLRzZorFBJCk-44" value="&lt;div style=&#39;width: 128.74467px;height:auto;word-break: break-word;&#39;&gt;&lt;div align=&quot;center&quot;&gt;&lt;span style=&quot;font-size:12px;font-family:Arial; line-height: 0;&quot;&gt;&lt;span style=&quot; line-height: 0;&quot;&gt;&lt;span style=&quot;font-size:14px;font-weight:bold;color:#1155cc; line-height: normal;&quot;&gt;TCP/IP protocol&lt;/span&gt;&lt;br /&gt;&lt;/span&gt;&lt;/span&gt;&lt;/div&gt;&lt;/div&gt;" style="text;html=1;nl2Br=0;rotation=0;html=1;nl2Br=0;verticalAlign=middle;align=center;spacingLeft=0.0;spacingRight=0;whiteSpace=wrap;gliffyId=143;" parent="2" vertex="1">
          <mxGeometry x="184.63" y="388.5" width="131.74" height="20" as="geometry" />
        </mxCell>
        <mxCell id="Mmk1gVjBXLRzZorFBJCk-46" value="&lt;div style=&#39;width: 128.74467px;height:auto;word-break: break-word;&#39;&gt;&lt;div align=&quot;center&quot;&gt;&lt;span style=&quot;font-size:12px;font-family:Arial; line-height: 0;&quot;&gt;&lt;span style=&quot; line-height: 0;&quot;&gt;&lt;span style=&quot;font-size:14px;font-weight:bold;color:#1155cc; line-height: normal;&quot;&gt;TCP/IP protocol&lt;/span&gt;&lt;br /&gt;&lt;/span&gt;&lt;/span&gt;&lt;/div&gt;&lt;/div&gt;" style="text;html=1;nl2Br=0;rotation=0;html=1;nl2Br=0;verticalAlign=middle;align=center;spacingLeft=0.0;spacingRight=0;whiteSpace=wrap;gliffyId=143;" parent="2" vertex="1">
          <mxGeometry x="184.63" y="547.5" width="131.74" height="20" as="geometry" />
        </mxCell>
        <mxCell id="Mmk1gVjBXLRzZorFBJCk-47" value="&lt;div style=&#39;width: 128.74467px;height:auto;word-break: break-word;&#39;&gt;&lt;div align=&quot;center&quot;&gt;&lt;span style=&quot;font-size:12px;font-family:Arial; line-height: 0;&quot;&gt;&lt;span style=&quot; line-height: 0;&quot;&gt;&lt;span style=&quot;font-size:14px;font-weight:bold;color:#1155cc; line-height: normal;&quot;&gt;TCP/IP protocol&lt;/span&gt;&lt;br /&gt;&lt;/span&gt;&lt;/span&gt;&lt;/div&gt;&lt;/div&gt;" style="text;html=1;nl2Br=0;rotation=0;html=1;nl2Br=0;verticalAlign=middle;align=center;spacingLeft=0.0;spacingRight=0;whiteSpace=wrap;gliffyId=143;" parent="2" vertex="1">
          <mxGeometry x="184.63" y="166" width="131.74" height="20" as="geometry" />
        </mxCell>
        <mxCell id="Mmk1gVjBXLRzZorFBJCk-48" value="" style="verticalLabelPosition=bottom;verticalAlign=top;html=1;shape=mxgraph.basic.x;rounded=0;sketch=0;align=center;fillColor=#000000;" parent="2" vertex="1">
          <mxGeometry x="998" y="123.5" width="12" height="12.5" as="geometry" />
        </mxCell>
        <mxCell id="1v6BCpd65HdNt9j6V_Qv-53" value="&lt;font style=&quot;font-size: 14px&quot;&gt;&lt;b&gt;ATI Net F/T sensor +*&lt;/b&gt;&lt;/font&gt;" style="text;html=1;align=center;verticalAlign=middle;resizable=0;points=[];autosize=1;" parent="2" vertex="1">
          <mxGeometry x="367.5" y="449.5" width="150" height="19" as="geometry" />
        </mxCell>
        <mxCell id="1v6BCpd65HdNt9j6V_Qv-57" value="&lt;b style=&quot;font-size: 14px&quot;&gt;&quot;+&quot; means more subsystems are included, and they are described in other files.&lt;br&gt;&quot;Universal Robot +&quot; includes OnRobot Gripper, PDSP, Platform with support structure, etc.&lt;br&gt;&quot;ATI Net F/T sensor +&quot; includes sensor, Net box, etc.&lt;br&gt;&lt;br&gt;&lt;/b&gt;" style="text;html=1;strokeColor=none;fillColor=none;align=left;verticalAlign=top;whiteSpace=wrap;rounded=0;" parent="2" vertex="1">
          <mxGeometry x="11" y="779" width="631" height="55" as="geometry" />
        </mxCell>
        <mxCell id="1v6BCpd65HdNt9j6V_Qv-58" style="shape=rect;shadow=0;strokeWidth=2;opacity=100.0;gliffyId=86;" parent="2" vertex="1">
          <mxGeometry x="899" y="170" width="110" height="15" as="geometry" />
        </mxCell>
        <mxCell id="1v6BCpd65HdNt9j6V_Qv-59" value="&lt;div style=&quot;text-align: left ; font-size: 20px&quot;&gt;&lt;span style=&quot;font-family: &amp;#34;helvetica&amp;#34; ; line-height: normal&quot;&gt;&lt;b&gt;Improved Automation System Architecture -&amp;nbsp;&lt;/b&gt;&lt;/span&gt;&lt;b style=&quot;text-align: left ; font-family: &amp;#34;helvetica&amp;#34;&quot;&gt;&amp;nbsp;Network Communication&lt;/b&gt;&lt;/div&gt;" style="text;html=1;align=center;verticalAlign=middle;resizable=0;points=[];autosize=1;" parent="2" vertex="1">
          <mxGeometry x="21" y="44" width="674" height="27" as="geometry" />
        </mxCell>
      </root>
    </mxGraphModel>
  </diagram>
</mxfile>
